%TF.GenerationSoftware,KiCad,Pcbnew,9.0.1*%
%TF.CreationDate,2025-04-13T00:15:51+02:00*%
%TF.ProjectId,Sony_HB-F1Xxx_Membrane,536f6e79-5f48-4422-9d46-315878785f4d,1.0*%
%TF.SameCoordinates,Original*%
%TF.FileFunction,Soldermask,Top*%
%TF.FilePolarity,Negative*%
%FSLAX46Y46*%
G04 Gerber Fmt 4.6, Leading zero omitted, Abs format (unit mm)*
G04 Created by KiCad (PCBNEW 9.0.1) date 2025-04-13 00:15:51*
%MOMM*%
%LPD*%
G01*
G04 APERTURE LIST*
%ADD10C,0.200000*%
G04 APERTURE END LIST*
D10*
X347615775Y-134451659D02*
X347545064Y-135370898D01*
X347898617Y-135724451D01*
X347191511Y-136431558D01*
X346837957Y-136078005D01*
X345918718Y-136148715D01*
X345300000Y-135529997D01*
X343938819Y-136148715D01*
X343691332Y-135901228D01*
X343381973Y-135591869D01*
X344062563Y-134292560D01*
X343443845Y-133673842D01*
X345140901Y-131976785D01*
X347615775Y-134451659D01*
G36*
X347615775Y-134451659D02*
G01*
X347545064Y-135370898D01*
X347898617Y-135724451D01*
X347191511Y-136431558D01*
X346837957Y-136078005D01*
X345918718Y-136148715D01*
X345300000Y-135529997D01*
X343938819Y-136148715D01*
X343691332Y-135901228D01*
X343381973Y-135591869D01*
X344062563Y-134292560D01*
X343443845Y-133673842D01*
X345140901Y-131976785D01*
X347615775Y-134451659D01*
G37*
X346417378Y-29065881D02*
X344917378Y-29065881D01*
X344917378Y-17865881D01*
X346417378Y-17865881D01*
X346417378Y-29065881D01*
G36*
X346417378Y-29065881D02*
G01*
X344917378Y-29065881D01*
X344917378Y-17865881D01*
X346417378Y-17865881D01*
X346417378Y-29065881D01*
G37*
X68477944Y-165423780D02*
X69397183Y-165353070D01*
X70015901Y-165971788D01*
X71377082Y-165353070D01*
X71624569Y-165600557D01*
X71933928Y-165909916D01*
X71253338Y-167209225D01*
X71872056Y-167827943D01*
X70175000Y-169525000D01*
X67700126Y-167050126D01*
X67770837Y-166130887D01*
X67417284Y-165777334D01*
X68124390Y-165070227D01*
X68477944Y-165423780D01*
G36*
X68477944Y-165423780D02*
G01*
X69397183Y-165353070D01*
X70015901Y-165971788D01*
X71377082Y-165353070D01*
X71624569Y-165600557D01*
X71933928Y-165909916D01*
X71253338Y-167209225D01*
X71872056Y-167827943D01*
X70175000Y-169525000D01*
X67700126Y-167050126D01*
X67770837Y-166130887D01*
X67417284Y-165777334D01*
X68124390Y-165070227D01*
X68477944Y-165423780D01*
G37*
X363452866Y-132242816D02*
X364372105Y-132172105D01*
X366634846Y-134434847D01*
X366634846Y-135424796D01*
X366917689Y-135707639D01*
X366210582Y-136414746D01*
X365927739Y-136131903D01*
X364937790Y-136131903D01*
X362675048Y-133869161D01*
X362675048Y-133020633D01*
X362392206Y-132737790D01*
X363170023Y-131959973D01*
X363452866Y-132242816D01*
G36*
X363452866Y-132242816D02*
G01*
X364372105Y-132172105D01*
X366634846Y-134434847D01*
X366634846Y-135424796D01*
X366917689Y-135707639D01*
X366210582Y-136414746D01*
X365927739Y-136131903D01*
X364937790Y-136131903D01*
X362675048Y-133869161D01*
X362675048Y-133020633D01*
X362392206Y-132737790D01*
X363170023Y-131959973D01*
X363452866Y-132242816D01*
G37*
X90710757Y-153551211D02*
X88942990Y-155318978D01*
X88448016Y-154824003D01*
X87811619Y-154894714D01*
X87104513Y-155601821D01*
X86326695Y-154824003D01*
X87033802Y-154116897D01*
X87033802Y-153409790D01*
X86538827Y-152914815D01*
X88306594Y-151147048D01*
X90710757Y-153551211D01*
G36*
X90710757Y-153551211D02*
G01*
X88942990Y-155318978D01*
X88448016Y-154824003D01*
X87811619Y-154894714D01*
X87104513Y-155601821D01*
X86326695Y-154824003D01*
X87033802Y-154116897D01*
X87033802Y-153409790D01*
X86538827Y-152914815D01*
X88306594Y-151147048D01*
X90710757Y-153551211D01*
G37*
X288071930Y-153427817D02*
X288001219Y-154347056D01*
X288354772Y-154700609D01*
X287647666Y-155407716D01*
X287294112Y-155054163D01*
X286374873Y-155124873D01*
X285756155Y-154506155D01*
X284394974Y-155124873D01*
X284147487Y-154877386D01*
X283838128Y-154568027D01*
X284518718Y-153268718D01*
X283900000Y-152650000D01*
X285597056Y-150952943D01*
X288071930Y-153427817D01*
G36*
X288071930Y-153427817D02*
G01*
X288001219Y-154347056D01*
X288354772Y-154700609D01*
X287647666Y-155407716D01*
X287294112Y-155054163D01*
X286374873Y-155124873D01*
X285756155Y-154506155D01*
X284394974Y-155124873D01*
X284147487Y-154877386D01*
X283838128Y-154568027D01*
X284518718Y-153268718D01*
X283900000Y-152650000D01*
X285597056Y-150952943D01*
X288071930Y-153427817D01*
G37*
X105616295Y-127594975D02*
X104909188Y-128302081D01*
X104909188Y-129009188D01*
X105404163Y-129504163D01*
X103636396Y-131271930D01*
X101232233Y-128867767D01*
X103000000Y-127100000D01*
X103494974Y-127594975D01*
X104131371Y-127524264D01*
X104838477Y-126817157D01*
X105616295Y-127594975D01*
G36*
X105616295Y-127594975D02*
G01*
X104909188Y-128302081D01*
X104909188Y-129009188D01*
X105404163Y-129504163D01*
X103636396Y-131271930D01*
X101232233Y-128867767D01*
X103000000Y-127100000D01*
X103494974Y-127594975D01*
X104131371Y-127524264D01*
X104838477Y-126817157D01*
X105616295Y-127594975D01*
G37*
X158980761Y-93935177D02*
X159900000Y-93864466D01*
X162162741Y-96127208D01*
X162162741Y-97117157D01*
X162445584Y-97400000D01*
X161738477Y-98107107D01*
X161455634Y-97824264D01*
X160465685Y-97824264D01*
X158202943Y-95561522D01*
X158202943Y-94712994D01*
X157920101Y-94430151D01*
X158697918Y-93652334D01*
X158980761Y-93935177D01*
G36*
X158980761Y-93935177D02*
G01*
X159900000Y-93864466D01*
X162162741Y-96127208D01*
X162162741Y-97117157D01*
X162445584Y-97400000D01*
X161738477Y-98107107D01*
X161455634Y-97824264D01*
X160465685Y-97824264D01*
X158202943Y-95561522D01*
X158202943Y-94712994D01*
X157920101Y-94430151D01*
X158697918Y-93652334D01*
X158980761Y-93935177D01*
G37*
X310991302Y-29065881D02*
X309491302Y-29065881D01*
X309491302Y-17865881D01*
X310991302Y-17865881D01*
X310991302Y-29065881D01*
G36*
X310991302Y-29065881D02*
G01*
X309491302Y-29065881D01*
X309491302Y-17865881D01*
X310991302Y-17865881D01*
X310991302Y-29065881D01*
G37*
X128733802Y-153609790D02*
X128663091Y-154529029D01*
X129016644Y-154882582D01*
X128309538Y-155589689D01*
X127955984Y-155236136D01*
X127036745Y-155306846D01*
X126418027Y-154688128D01*
X125056846Y-155306846D01*
X124809359Y-155059359D01*
X124500000Y-154750000D01*
X125180590Y-153450691D01*
X124561872Y-152831973D01*
X126258928Y-151134916D01*
X128733802Y-153609790D01*
G36*
X128733802Y-153609790D02*
G01*
X128663091Y-154529029D01*
X129016644Y-154882582D01*
X128309538Y-155589689D01*
X127955984Y-155236136D01*
X127036745Y-155306846D01*
X126418027Y-154688128D01*
X125056846Y-155306846D01*
X124809359Y-155059359D01*
X124500000Y-154750000D01*
X125180590Y-153450691D01*
X124561872Y-152831973D01*
X126258928Y-151134916D01*
X128733802Y-153609790D01*
G37*
X273360660Y-127205026D02*
X274279899Y-127134315D01*
X276542640Y-129397057D01*
X276542640Y-130387006D01*
X276825483Y-130669849D01*
X276118376Y-131376956D01*
X275835533Y-131094113D01*
X274845584Y-131094113D01*
X272582842Y-128831371D01*
X272582842Y-127982843D01*
X272300000Y-127700000D01*
X273077817Y-126922183D01*
X273360660Y-127205026D01*
G36*
X273360660Y-127205026D02*
G01*
X274279899Y-127134315D01*
X276542640Y-129397057D01*
X276542640Y-130387006D01*
X276825483Y-130669849D01*
X276118376Y-131376956D01*
X275835533Y-131094113D01*
X274845584Y-131094113D01*
X272582842Y-128831371D01*
X272582842Y-127982843D01*
X272300000Y-127700000D01*
X273077817Y-126922183D01*
X273360660Y-127205026D01*
G37*
X326173906Y-29065881D02*
X324673906Y-29065881D01*
X324673906Y-17865881D01*
X326173906Y-17865881D01*
X326173906Y-29065881D01*
G36*
X326173906Y-29065881D02*
G01*
X324673906Y-29065881D01*
X324673906Y-17865881D01*
X326173906Y-17865881D01*
X326173906Y-29065881D01*
G37*
X138918377Y-108502944D02*
X138211270Y-109210050D01*
X138211270Y-109917157D01*
X138706245Y-110412132D01*
X136938478Y-112179899D01*
X134534315Y-109775736D01*
X136302082Y-108007969D01*
X136797056Y-108502944D01*
X137433453Y-108432233D01*
X138140559Y-107725126D01*
X138918377Y-108502944D01*
G36*
X138918377Y-108502944D02*
G01*
X138211270Y-109210050D01*
X138211270Y-109917157D01*
X138706245Y-110412132D01*
X136938478Y-112179899D01*
X134534315Y-109775736D01*
X136302082Y-108007969D01*
X136797056Y-108502944D01*
X137433453Y-108432233D01*
X138140559Y-107725126D01*
X138918377Y-108502944D01*
G37*
X219462741Y-96327208D02*
X219392030Y-97246447D01*
X219745583Y-97600000D01*
X219038477Y-98307107D01*
X218684923Y-97953554D01*
X217765684Y-98024264D01*
X217146966Y-97405546D01*
X215785785Y-98024264D01*
X215538298Y-97776777D01*
X215228939Y-97467418D01*
X215909529Y-96168109D01*
X215290811Y-95549391D01*
X216987867Y-93852334D01*
X219462741Y-96327208D01*
G36*
X219462741Y-96327208D02*
G01*
X219392030Y-97246447D01*
X219745583Y-97600000D01*
X219038477Y-98307107D01*
X218684923Y-97953554D01*
X217765684Y-98024264D01*
X217146966Y-97405546D01*
X215785785Y-98024264D01*
X215538298Y-97776777D01*
X215228939Y-97467418D01*
X215909529Y-96168109D01*
X215290811Y-95549391D01*
X216987867Y-93852334D01*
X219462741Y-96327208D01*
G37*
X331234774Y-29065881D02*
X329734774Y-29065881D01*
X329734774Y-17865881D01*
X331234774Y-17865881D01*
X331234774Y-29065881D01*
G36*
X331234774Y-29065881D02*
G01*
X329734774Y-29065881D01*
X329734774Y-17865881D01*
X331234774Y-17865881D01*
X331234774Y-29065881D01*
G37*
X138358415Y-134618719D02*
X138287704Y-135537958D01*
X138641257Y-135891510D01*
X137934151Y-136598618D01*
X137580597Y-136245065D01*
X136661358Y-136315775D01*
X136042640Y-135697057D01*
X134681459Y-136315775D01*
X134433972Y-136068288D01*
X134124613Y-135758929D01*
X134805203Y-134459620D01*
X134186485Y-133840902D01*
X135883541Y-132143845D01*
X138358415Y-134618719D01*
G36*
X138358415Y-134618719D02*
G01*
X138287704Y-135537958D01*
X138641257Y-135891510D01*
X137934151Y-136598618D01*
X137580597Y-136245065D01*
X136661358Y-136315775D01*
X136042640Y-135697057D01*
X134681459Y-136315775D01*
X134433972Y-136068288D01*
X134124613Y-135758929D01*
X134805203Y-134459620D01*
X134186485Y-133840902D01*
X135883541Y-132143845D01*
X138358415Y-134618719D01*
G37*
X230080761Y-131936591D02*
X231000000Y-131865881D01*
X233474874Y-134340754D01*
X231777818Y-136037811D01*
X229302944Y-133562937D01*
X229373655Y-132643698D01*
X229020101Y-132290145D01*
X229727208Y-131583038D01*
X230080761Y-131936591D01*
G36*
X230080761Y-131936591D02*
G01*
X231000000Y-131865881D01*
X233474874Y-134340754D01*
X231777818Y-136037811D01*
X229302944Y-133562937D01*
X229373655Y-132643698D01*
X229020101Y-132290145D01*
X229727208Y-131583038D01*
X230080761Y-131936591D01*
G37*
X356539114Y-29065881D02*
X355039114Y-29065881D01*
X355039114Y-17865881D01*
X356539114Y-17865881D01*
X356539114Y-29065881D01*
G36*
X356539114Y-29065881D02*
G01*
X355039114Y-29065881D01*
X355039114Y-17865881D01*
X356539114Y-17865881D01*
X356539114Y-29065881D01*
G37*
X78121662Y-108117499D02*
X79040901Y-108046789D01*
X79659619Y-108665507D01*
X81020800Y-108046789D01*
X81268287Y-108294276D01*
X81577646Y-108603635D01*
X80897056Y-109902944D01*
X81515774Y-110521662D01*
X79818718Y-112218719D01*
X77343844Y-109743845D01*
X77414555Y-108824606D01*
X77061002Y-108471053D01*
X77768108Y-107763946D01*
X78121662Y-108117499D01*
G36*
X78121662Y-108117499D02*
G01*
X79040901Y-108046789D01*
X79659619Y-108665507D01*
X81020800Y-108046789D01*
X81268287Y-108294276D01*
X81577646Y-108603635D01*
X80897056Y-109902944D01*
X81515774Y-110521662D01*
X79818718Y-112218719D01*
X77343844Y-109743845D01*
X77414555Y-108824606D01*
X77061002Y-108471053D01*
X77768108Y-107763946D01*
X78121662Y-108117499D01*
G37*
X268574874Y-107876598D02*
X269494113Y-107805888D01*
X270112831Y-108424606D01*
X271474012Y-107805888D01*
X271721499Y-108053375D01*
X272030858Y-108362734D01*
X271350268Y-109662043D01*
X271968986Y-110280761D01*
X270271930Y-111977818D01*
X267797056Y-109502944D01*
X267867767Y-108583705D01*
X267514214Y-108230153D01*
X268221320Y-107523045D01*
X268574874Y-107876598D01*
G36*
X268574874Y-107876598D02*
G01*
X269494113Y-107805888D01*
X270112831Y-108424606D01*
X271474012Y-107805888D01*
X271721499Y-108053375D01*
X272030858Y-108362734D01*
X271350268Y-109662043D01*
X271968986Y-110280761D01*
X270271930Y-111977818D01*
X267797056Y-109502944D01*
X267867767Y-108583705D01*
X267514214Y-108230153D01*
X268221320Y-107523045D01*
X268574874Y-107876598D01*
G37*
X181262741Y-96227208D02*
X181192030Y-97146447D01*
X181545583Y-97500000D01*
X180838477Y-98207107D01*
X180484923Y-97853554D01*
X179565684Y-97924264D01*
X178946966Y-97305546D01*
X177585785Y-97924264D01*
X177338298Y-97676777D01*
X177028939Y-97367418D01*
X177709529Y-96068109D01*
X177090811Y-95449391D01*
X178787867Y-93752334D01*
X181262741Y-96227208D01*
G36*
X181262741Y-96227208D02*
G01*
X181192030Y-97146447D01*
X181545583Y-97500000D01*
X180838477Y-98207107D01*
X180484923Y-97853554D01*
X179565684Y-97924264D01*
X178946966Y-97305546D01*
X177585785Y-97924264D01*
X177338298Y-97676777D01*
X177028939Y-97367418D01*
X177709529Y-96068109D01*
X177090811Y-95449391D01*
X178787867Y-93752334D01*
X181262741Y-96227208D01*
G37*
X349355888Y-108045837D02*
X350275127Y-107975127D01*
X350893845Y-108593845D01*
X352255026Y-107975127D01*
X352502513Y-108222614D01*
X352811872Y-108531973D01*
X352131282Y-109831282D01*
X352750000Y-110450000D01*
X351052944Y-112147057D01*
X348578070Y-109672183D01*
X348648781Y-108752944D01*
X348295228Y-108399391D01*
X349002334Y-107692284D01*
X349355888Y-108045837D01*
G36*
X349355888Y-108045837D02*
G01*
X350275127Y-107975127D01*
X350893845Y-108593845D01*
X352255026Y-107975127D01*
X352502513Y-108222614D01*
X352811872Y-108531973D01*
X352131282Y-109831282D01*
X352750000Y-110450000D01*
X351052944Y-112147057D01*
X348578070Y-109672183D01*
X348648781Y-108752944D01*
X348295228Y-108399391D01*
X349002334Y-107692284D01*
X349355888Y-108045837D01*
G37*
X224010757Y-153451211D02*
X222242990Y-155218978D01*
X221748016Y-154724003D01*
X221111619Y-154794714D01*
X220404513Y-155501821D01*
X219626695Y-154724003D01*
X220333802Y-154016897D01*
X220333802Y-153309790D01*
X219838827Y-152814815D01*
X221606594Y-151047048D01*
X224010757Y-153451211D01*
G36*
X224010757Y-153451211D02*
G01*
X222242990Y-155218978D01*
X221748016Y-154724003D01*
X221111619Y-154794714D01*
X220404513Y-155501821D01*
X219626695Y-154724003D01*
X220333802Y-154016897D01*
X220333802Y-153309790D01*
X219838827Y-152814815D01*
X221606594Y-151047048D01*
X224010757Y-153451211D01*
G37*
X390679118Y-89205106D02*
X390926605Y-89452593D01*
X390307887Y-90813774D01*
X390926605Y-91432492D01*
X390855895Y-92351731D01*
X391209448Y-92705285D01*
X390502341Y-93412391D01*
X390148788Y-93058838D01*
X389229549Y-93129549D01*
X386754675Y-90654675D01*
X388451732Y-88957619D01*
X389070450Y-89576337D01*
X390369759Y-88895747D01*
X390679118Y-89205106D01*
G36*
X390679118Y-89205106D02*
G01*
X390926605Y-89452593D01*
X390307887Y-90813774D01*
X390926605Y-91432492D01*
X390855895Y-92351731D01*
X391209448Y-92705285D01*
X390502341Y-93412391D01*
X390148788Y-93058838D01*
X389229549Y-93129549D01*
X386754675Y-90654675D01*
X388451732Y-88957619D01*
X389070450Y-89576337D01*
X390369759Y-88895747D01*
X390679118Y-89205106D01*
G37*
X338826076Y-29065881D02*
X337326076Y-29065881D01*
X337326076Y-17865881D01*
X338826076Y-17865881D01*
X338826076Y-29065881D01*
G36*
X338826076Y-29065881D02*
G01*
X337326076Y-29065881D01*
X337326076Y-17865881D01*
X338826076Y-17865881D01*
X338826076Y-29065881D01*
G37*
X92358408Y-146324345D02*
X93277647Y-146253635D01*
X93896365Y-146872353D01*
X95257546Y-146253635D01*
X95505033Y-146501122D01*
X95814392Y-146810481D01*
X95133802Y-148109790D01*
X95752520Y-148728508D01*
X94055464Y-150425565D01*
X91580590Y-147950691D01*
X91651301Y-147031452D01*
X91297748Y-146677899D01*
X92004854Y-145970792D01*
X92358408Y-146324345D01*
G36*
X92358408Y-146324345D02*
G01*
X93277647Y-146253635D01*
X93896365Y-146872353D01*
X95257546Y-146253635D01*
X95505033Y-146501122D01*
X95814392Y-146810481D01*
X95133802Y-148109790D01*
X95752520Y-148728508D01*
X94055464Y-150425565D01*
X91580590Y-147950691D01*
X91651301Y-147031452D01*
X91297748Y-146677899D01*
X92004854Y-145970792D01*
X92358408Y-146324345D01*
G37*
X205010757Y-153351211D02*
X203242990Y-155118978D01*
X202748016Y-154624003D01*
X202111619Y-154694714D01*
X201404513Y-155401821D01*
X200626695Y-154624003D01*
X201333802Y-153916897D01*
X201333802Y-153209790D01*
X200838827Y-152714815D01*
X202606594Y-150947048D01*
X205010757Y-153351211D01*
G36*
X205010757Y-153351211D02*
G01*
X203242990Y-155118978D01*
X202748016Y-154624003D01*
X202111619Y-154694714D01*
X201404513Y-155401821D01*
X200626695Y-154624003D01*
X201333802Y-153916897D01*
X201333802Y-153209790D01*
X200838827Y-152714815D01*
X202606594Y-150947048D01*
X205010757Y-153351211D01*
G37*
X247897056Y-115302944D02*
X247826345Y-116222183D01*
X248179898Y-116575736D01*
X247472792Y-117282843D01*
X247119238Y-116929290D01*
X246199999Y-117000000D01*
X245581281Y-116381282D01*
X244220100Y-117000000D01*
X243972613Y-116752513D01*
X243663254Y-116443154D01*
X244343844Y-115143845D01*
X243725126Y-114525127D01*
X245422182Y-112828070D01*
X247897056Y-115302944D01*
G36*
X247897056Y-115302944D02*
G01*
X247826345Y-116222183D01*
X248179898Y-116575736D01*
X247472792Y-117282843D01*
X247119238Y-116929290D01*
X246199999Y-117000000D01*
X245581281Y-116381282D01*
X244220100Y-117000000D01*
X243972613Y-116752513D01*
X243663254Y-116443154D01*
X244343844Y-115143845D01*
X243725126Y-114525127D01*
X245422182Y-112828070D01*
X247897056Y-115302944D01*
G37*
X293074011Y-124844365D02*
X291306244Y-126612132D01*
X290811270Y-126117157D01*
X290174873Y-126187868D01*
X289467767Y-126894975D01*
X288689949Y-126117157D01*
X289397056Y-125410051D01*
X289397056Y-124702944D01*
X288902081Y-124207969D01*
X290669848Y-122440202D01*
X293074011Y-124844365D01*
G36*
X293074011Y-124844365D02*
G01*
X291306244Y-126612132D01*
X290811270Y-126117157D01*
X290174873Y-126187868D01*
X289467767Y-126894975D01*
X288689949Y-126117157D01*
X289397056Y-125410051D01*
X289397056Y-124702944D01*
X288902081Y-124207969D01*
X290669848Y-122440202D01*
X293074011Y-124844365D01*
G37*
X313521736Y-29065881D02*
X312021736Y-29065881D01*
X312021736Y-17865881D01*
X313521736Y-17865881D01*
X313521736Y-29065881D01*
G36*
X313521736Y-29065881D02*
G01*
X312021736Y-29065881D01*
X312021736Y-17865881D01*
X313521736Y-17865881D01*
X313521736Y-29065881D01*
G37*
X54318020Y-113257969D02*
X55237259Y-113187258D01*
X57500000Y-115450000D01*
X57500000Y-116439949D01*
X57782843Y-116722792D01*
X57075736Y-117429899D01*
X56792893Y-117147056D01*
X55802944Y-117147056D01*
X53540202Y-114884314D01*
X53540202Y-114035786D01*
X53257360Y-113752943D01*
X54035177Y-112975126D01*
X54318020Y-113257969D01*
G36*
X54318020Y-113257969D02*
G01*
X55237259Y-113187258D01*
X57500000Y-115450000D01*
X57500000Y-116439949D01*
X57782843Y-116722792D01*
X57075736Y-117429899D01*
X56792893Y-117147056D01*
X55802944Y-117147056D01*
X53540202Y-114884314D01*
X53540202Y-114035786D01*
X53257360Y-113752943D01*
X54035177Y-112975126D01*
X54318020Y-113257969D01*
G37*
X386100000Y-77404163D02*
X384332233Y-79171930D01*
X383837259Y-78676955D01*
X383200862Y-78747666D01*
X382493756Y-79454773D01*
X381715938Y-78676955D01*
X382423045Y-77969849D01*
X382423045Y-77262742D01*
X381928070Y-76767767D01*
X383695837Y-75000000D01*
X386100000Y-77404163D01*
G36*
X386100000Y-77404163D02*
G01*
X384332233Y-79171930D01*
X383837259Y-78676955D01*
X383200862Y-78747666D01*
X382493756Y-79454773D01*
X381715938Y-78676955D01*
X382423045Y-77969849D01*
X382423045Y-77262742D01*
X381928070Y-76767767D01*
X383695837Y-75000000D01*
X386100000Y-77404163D01*
G37*
X186262741Y-91327208D02*
X186192030Y-92246447D01*
X186545584Y-92600000D01*
X185838477Y-93307107D01*
X185484924Y-92953554D01*
X184565685Y-93024264D01*
X182090811Y-90549391D01*
X183787867Y-88852334D01*
X186262741Y-91327208D01*
G36*
X186262741Y-91327208D02*
G01*
X186192030Y-92246447D01*
X186545584Y-92600000D01*
X185838477Y-93307107D01*
X185484924Y-92953554D01*
X184565685Y-93024264D01*
X182090811Y-90549391D01*
X183787867Y-88852334D01*
X186262741Y-91327208D01*
G37*
X230459099Y-107854936D02*
X231378338Y-107784226D01*
X231997056Y-108402944D01*
X233358237Y-107784226D01*
X233605724Y-108031713D01*
X233915083Y-108341072D01*
X233234493Y-109640381D01*
X233853211Y-110259099D01*
X232156155Y-111956156D01*
X229681281Y-109481282D01*
X229751992Y-108562043D01*
X229398439Y-108208491D01*
X230105545Y-107501383D01*
X230459099Y-107854936D01*
G36*
X230459099Y-107854936D02*
G01*
X231378338Y-107784226D01*
X231997056Y-108402944D01*
X233358237Y-107784226D01*
X233605724Y-108031713D01*
X233915083Y-108341072D01*
X233234493Y-109640381D01*
X233853211Y-110259099D01*
X232156155Y-111956156D01*
X229681281Y-109481282D01*
X229751992Y-108562043D01*
X229398439Y-108208491D01*
X230105545Y-107501383D01*
X230459099Y-107854936D01*
G37*
X92318020Y-113107969D02*
X93237259Y-113037258D01*
X95500000Y-115300000D01*
X95500000Y-116289949D01*
X95782843Y-116572792D01*
X95075736Y-117279899D01*
X94792893Y-116997056D01*
X93802944Y-116997056D01*
X91540202Y-114734314D01*
X91540202Y-113885786D01*
X91257360Y-113602943D01*
X92035177Y-112825126D01*
X92318020Y-113107969D01*
G36*
X92318020Y-113107969D02*
G01*
X93237259Y-113037258D01*
X95500000Y-115300000D01*
X95500000Y-116289949D01*
X95782843Y-116572792D01*
X95075736Y-117279899D01*
X94792893Y-116997056D01*
X93802944Y-116997056D01*
X91540202Y-114734314D01*
X91540202Y-113885786D01*
X91257360Y-113602943D01*
X92035177Y-112825126D01*
X92318020Y-113107969D01*
G37*
X354008680Y-29065881D02*
X352508680Y-29065881D01*
X352508680Y-17865881D01*
X354008680Y-17865881D01*
X354008680Y-29065881D01*
G36*
X354008680Y-29065881D02*
G01*
X352508680Y-29065881D01*
X352508680Y-17865881D01*
X354008680Y-17865881D01*
X354008680Y-29065881D01*
G37*
X297300000Y-71900000D02*
X298700000Y-71900000D01*
X298700000Y-69600000D01*
X299300000Y-69600000D01*
X299300000Y-72400000D01*
X298700000Y-73000000D01*
X298700000Y-73600000D01*
X297300000Y-73600000D01*
X297300000Y-72900000D01*
X296600000Y-72500000D01*
X296600000Y-68500000D01*
X297300000Y-68500000D01*
X297300000Y-71900000D01*
G36*
X297300000Y-71900000D02*
G01*
X298700000Y-71900000D01*
X298700000Y-69600000D01*
X299300000Y-69600000D01*
X299300000Y-72400000D01*
X298700000Y-73000000D01*
X298700000Y-73600000D01*
X297300000Y-73600000D01*
X297300000Y-72900000D01*
X296600000Y-72500000D01*
X296600000Y-68500000D01*
X297300000Y-68500000D01*
X297300000Y-71900000D01*
G37*
X266797056Y-115202944D02*
X266726345Y-116122183D01*
X267079899Y-116475736D01*
X266372792Y-117182843D01*
X266019239Y-116829290D01*
X265100000Y-116900000D01*
X262625126Y-114425127D01*
X264322182Y-112728070D01*
X266797056Y-115202944D01*
G36*
X266797056Y-115202944D02*
G01*
X266726345Y-116122183D01*
X267079899Y-116475736D01*
X266372792Y-117182843D01*
X266019239Y-116829290D01*
X265100000Y-116900000D01*
X262625126Y-114425127D01*
X264322182Y-112728070D01*
X266797056Y-115202944D01*
G37*
X197080761Y-93935177D02*
X198000000Y-93864466D01*
X200262741Y-96127208D01*
X200262741Y-97117157D01*
X200545584Y-97400000D01*
X199838477Y-98107107D01*
X199555634Y-97824264D01*
X198565685Y-97824264D01*
X196302943Y-95561522D01*
X196302943Y-94712994D01*
X196020101Y-94430151D01*
X196797918Y-93652334D01*
X197080761Y-93935177D01*
G36*
X197080761Y-93935177D02*
G01*
X198000000Y-93864466D01*
X200262741Y-96127208D01*
X200262741Y-97117157D01*
X200545584Y-97400000D01*
X199838477Y-98107107D01*
X199555634Y-97824264D01*
X198565685Y-97824264D01*
X196302943Y-95561522D01*
X196302943Y-94712994D01*
X196020101Y-94430151D01*
X196797918Y-93652334D01*
X197080761Y-93935177D01*
G37*
X119339696Y-134600001D02*
X119268985Y-135519240D01*
X119622539Y-135872793D01*
X118915432Y-136579900D01*
X118561880Y-136226347D01*
X117642640Y-136297057D01*
X115167766Y-133822184D01*
X116864823Y-132125127D01*
X119339696Y-134600001D01*
G36*
X119339696Y-134600001D02*
G01*
X119268985Y-135519240D01*
X119622539Y-135872793D01*
X118915432Y-136579900D01*
X118561880Y-136226347D01*
X117642640Y-136297057D01*
X115167766Y-133822184D01*
X116864823Y-132125127D01*
X119339696Y-134600001D01*
G37*
X262784062Y-89227208D02*
X262076955Y-89934314D01*
X262076955Y-90641421D01*
X262571930Y-91136396D01*
X260804163Y-92904163D01*
X258400000Y-90500000D01*
X260167767Y-88732233D01*
X260662741Y-89227208D01*
X261299138Y-89156497D01*
X262006244Y-88449390D01*
X262784062Y-89227208D01*
G36*
X262784062Y-89227208D02*
G01*
X262076955Y-89934314D01*
X262076955Y-90641421D01*
X262571930Y-91136396D01*
X260804163Y-92904163D01*
X258400000Y-90500000D01*
X260167767Y-88732233D01*
X260662741Y-89227208D01*
X261299138Y-89156497D01*
X262006244Y-88449390D01*
X262784062Y-89227208D01*
G37*
X384879996Y-170085884D02*
X384809285Y-171005123D01*
X385162838Y-171358676D01*
X384455732Y-172065783D01*
X384102178Y-171712230D01*
X383182939Y-171782940D01*
X382564221Y-171164222D01*
X381203040Y-171782940D01*
X380955553Y-171535453D01*
X380646194Y-171226094D01*
X381326784Y-169926785D01*
X380708066Y-169308067D01*
X382405122Y-167611010D01*
X384879996Y-170085884D01*
G36*
X384879996Y-170085884D02*
G01*
X384809285Y-171005123D01*
X385162838Y-171358676D01*
X384455732Y-172065783D01*
X384102178Y-171712230D01*
X383182939Y-171782940D01*
X382564221Y-171164222D01*
X381203040Y-171782940D01*
X380955553Y-171535453D01*
X380646194Y-171226094D01*
X381326784Y-169926785D01*
X380708066Y-169308067D01*
X382405122Y-167611010D01*
X384879996Y-170085884D01*
G37*
X88300000Y-73500000D02*
X88700000Y-73500000D01*
X88700000Y-74500000D01*
X88300000Y-74500000D01*
X87600000Y-75200000D01*
X84400000Y-75200000D01*
X83800000Y-74600000D01*
X83400000Y-74600000D01*
X83400000Y-73500000D01*
X83800000Y-73500000D01*
X84400000Y-72800000D01*
X87600000Y-72800000D01*
X88300000Y-73500000D01*
G36*
X88300000Y-73500000D02*
G01*
X88700000Y-73500000D01*
X88700000Y-74500000D01*
X88300000Y-74500000D01*
X87600000Y-75200000D01*
X84400000Y-75200000D01*
X83800000Y-74600000D01*
X83400000Y-74600000D01*
X83400000Y-73500000D01*
X83800000Y-73500000D01*
X84400000Y-72800000D01*
X87600000Y-72800000D01*
X88300000Y-73500000D01*
G37*
X105281459Y-96345926D02*
X105210748Y-97265165D01*
X105564301Y-97618718D01*
X104857195Y-98325825D01*
X104503641Y-97972272D01*
X103584402Y-98042982D01*
X102965684Y-97424264D01*
X101604503Y-98042982D01*
X101357016Y-97795495D01*
X101047657Y-97486136D01*
X101728247Y-96186827D01*
X101109529Y-95568109D01*
X102806585Y-93871052D01*
X105281459Y-96345926D01*
G36*
X105281459Y-96345926D02*
G01*
X105210748Y-97265165D01*
X105564301Y-97618718D01*
X104857195Y-98325825D01*
X104503641Y-97972272D01*
X103584402Y-98042982D01*
X102965684Y-97424264D01*
X101604503Y-98042982D01*
X101357016Y-97795495D01*
X101047657Y-97486136D01*
X101728247Y-96186827D01*
X101109529Y-95568109D01*
X102806585Y-93871052D01*
X105281459Y-96345926D01*
G37*
X351478246Y-29065881D02*
X349978246Y-29065881D01*
X349978246Y-17865881D01*
X351478246Y-17865881D01*
X351478246Y-29065881D01*
G36*
X351478246Y-29065881D02*
G01*
X349978246Y-29065881D01*
X349978246Y-17865881D01*
X351478246Y-17865881D01*
X351478246Y-29065881D01*
G37*
X303400000Y-29065881D02*
X301900000Y-29065881D01*
X301900000Y-17865881D01*
X303400000Y-17865881D01*
X303400000Y-29065881D01*
G36*
X303400000Y-29065881D02*
G01*
X301900000Y-29065881D01*
X301900000Y-17865881D01*
X303400000Y-17865881D01*
X303400000Y-29065881D01*
G37*
X221080761Y-88935177D02*
X222000000Y-88864466D01*
X224262741Y-91127208D01*
X224262741Y-92117157D01*
X224545584Y-92400000D01*
X223838477Y-93107107D01*
X223555634Y-92824264D01*
X222565685Y-92824264D01*
X220302943Y-90561522D01*
X220302943Y-89712994D01*
X220020101Y-89430151D01*
X220797918Y-88652334D01*
X221080761Y-88935177D01*
G36*
X221080761Y-88935177D02*
G01*
X222000000Y-88864466D01*
X224262741Y-91127208D01*
X224262741Y-92117157D01*
X224545584Y-92400000D01*
X223838477Y-93107107D01*
X223555634Y-92824264D01*
X222565685Y-92824264D01*
X220302943Y-90561522D01*
X220302943Y-89712994D01*
X220020101Y-89430151D01*
X220797918Y-88652334D01*
X221080761Y-88935177D01*
G37*
X167484062Y-89427208D02*
X166776955Y-90134314D01*
X166776955Y-90841421D01*
X167271930Y-91336396D01*
X165504163Y-93104163D01*
X163100000Y-90700000D01*
X164867767Y-88932233D01*
X165362741Y-89427208D01*
X165999138Y-89356497D01*
X166706244Y-88649390D01*
X167484062Y-89427208D01*
G36*
X167484062Y-89427208D02*
G01*
X166776955Y-90134314D01*
X166776955Y-90841421D01*
X167271930Y-91336396D01*
X165504163Y-93104163D01*
X163100000Y-90700000D01*
X164867767Y-88932233D01*
X165362741Y-89427208D01*
X165999138Y-89356497D01*
X166706244Y-88649390D01*
X167484062Y-89427208D01*
G37*
X209774011Y-115344365D02*
X208006244Y-117112132D01*
X207511270Y-116617157D01*
X206874873Y-116687868D01*
X206167767Y-117394975D01*
X205389949Y-116617157D01*
X206097056Y-115910051D01*
X206097056Y-115202944D01*
X205602081Y-114707969D01*
X207369848Y-112940202D01*
X209774011Y-115344365D01*
G36*
X209774011Y-115344365D02*
G01*
X208006244Y-117112132D01*
X207511270Y-116617157D01*
X206874873Y-116687868D01*
X206167767Y-117394975D01*
X205389949Y-116617157D01*
X206097056Y-115910051D01*
X206097056Y-115202944D01*
X205602081Y-114707969D01*
X207369848Y-112940202D01*
X209774011Y-115344365D01*
G37*
X113300000Y-75300000D02*
X112600000Y-75300000D01*
X112200000Y-75800000D01*
X112200000Y-76800000D01*
X111100000Y-76800000D01*
X111100000Y-75800000D01*
X110600000Y-75300000D01*
X109900000Y-75300000D01*
X109900000Y-72800000D01*
X113300000Y-72800000D01*
X113300000Y-75300000D01*
G36*
X113300000Y-75300000D02*
G01*
X112600000Y-75300000D01*
X112200000Y-75800000D01*
X112200000Y-76800000D01*
X111100000Y-76800000D01*
X111100000Y-75800000D01*
X110600000Y-75300000D01*
X109900000Y-75300000D01*
X109900000Y-72800000D01*
X113300000Y-72800000D01*
X113300000Y-75300000D01*
G37*
X254140558Y-93900862D02*
X255059797Y-93830152D01*
X257534671Y-96305025D01*
X255837615Y-98002082D01*
X253362741Y-95527208D01*
X253433452Y-94607969D01*
X253079898Y-94254416D01*
X253787005Y-93547309D01*
X254140558Y-93900862D01*
G36*
X254140558Y-93900862D02*
G01*
X255059797Y-93830152D01*
X257534671Y-96305025D01*
X255837615Y-98002082D01*
X253362741Y-95527208D01*
X253433452Y-94607969D01*
X253079898Y-94254416D01*
X253787005Y-93547309D01*
X254140558Y-93900862D01*
G37*
X385776955Y-115500000D02*
X384009188Y-117267767D01*
X383514214Y-116772792D01*
X382877817Y-116843503D01*
X382170711Y-117550610D01*
X381392893Y-116772792D01*
X382100000Y-116065686D01*
X382100000Y-115358579D01*
X381605025Y-114863604D01*
X383372792Y-113095837D01*
X385776955Y-115500000D01*
G36*
X385776955Y-115500000D02*
G01*
X384009188Y-117267767D01*
X383514214Y-116772792D01*
X382877817Y-116843503D01*
X382170711Y-117550610D01*
X381392893Y-116772792D01*
X382100000Y-116065686D01*
X382100000Y-115358579D01*
X381605025Y-114863604D01*
X383372792Y-113095837D01*
X385776955Y-115500000D01*
G37*
X94624606Y-165414555D02*
X95543845Y-165343845D01*
X96162563Y-165962563D01*
X97523744Y-165343845D01*
X97771231Y-165591332D01*
X98080590Y-165900691D01*
X97400000Y-167200000D01*
X98018718Y-167818718D01*
X96321662Y-169515775D01*
X93846788Y-167040901D01*
X93917499Y-166121662D01*
X93563946Y-165768109D01*
X94271052Y-165061002D01*
X94624606Y-165414555D01*
G36*
X94624606Y-165414555D02*
G01*
X95543845Y-165343845D01*
X96162563Y-165962563D01*
X97523744Y-165343845D01*
X97771231Y-165591332D01*
X98080590Y-165900691D01*
X97400000Y-167200000D01*
X98018718Y-167818718D01*
X96321662Y-169515775D01*
X93846788Y-167040901D01*
X93917499Y-166121662D01*
X93563946Y-165768109D01*
X94271052Y-165061002D01*
X94624606Y-165414555D01*
G37*
X187558408Y-146224345D02*
X188477647Y-146153635D01*
X189096365Y-146772353D01*
X190457546Y-146153635D01*
X190705033Y-146401122D01*
X191014392Y-146710481D01*
X190333802Y-148009790D01*
X190952520Y-148628508D01*
X189255464Y-150325565D01*
X186780590Y-147850691D01*
X186851301Y-146931452D01*
X186497748Y-146577899D01*
X187204854Y-145870792D01*
X187558408Y-146224345D01*
G36*
X187558408Y-146224345D02*
G01*
X188477647Y-146153635D01*
X189096365Y-146772353D01*
X190457546Y-146153635D01*
X190705033Y-146401122D01*
X191014392Y-146710481D01*
X190333802Y-148009790D01*
X190952520Y-148628508D01*
X189255464Y-150325565D01*
X186780590Y-147850691D01*
X186851301Y-146931452D01*
X186497748Y-146577899D01*
X187204854Y-145870792D01*
X187558408Y-146224345D01*
G37*
X44721840Y-94082144D02*
X45641079Y-94011433D01*
X48115953Y-96486307D01*
X46418896Y-98183363D01*
X45800178Y-97564645D01*
X44500869Y-98245235D01*
X44191510Y-97935876D01*
X43944023Y-97688389D01*
X44562741Y-96327208D01*
X43944023Y-95708490D01*
X44014733Y-94789251D01*
X43661180Y-94435697D01*
X44368288Y-93728591D01*
X44721840Y-94082144D01*
G36*
X44721840Y-94082144D02*
G01*
X45641079Y-94011433D01*
X48115953Y-96486307D01*
X46418896Y-98183363D01*
X45800178Y-97564645D01*
X44500869Y-98245235D01*
X44191510Y-97935876D01*
X43944023Y-97688389D01*
X44562741Y-96327208D01*
X43944023Y-95708490D01*
X44014733Y-94789251D01*
X43661180Y-94435697D01*
X44368288Y-93728591D01*
X44721840Y-94082144D01*
G37*
X206558408Y-146124345D02*
X207477647Y-146053635D01*
X208096365Y-146672353D01*
X209457546Y-146053635D01*
X209705033Y-146301122D01*
X210014392Y-146610481D01*
X209333802Y-147909790D01*
X209952520Y-148528508D01*
X208255464Y-150225565D01*
X205780590Y-147750691D01*
X205851301Y-146831452D01*
X205497748Y-146477899D01*
X206204854Y-145770792D01*
X206558408Y-146124345D01*
G36*
X206558408Y-146124345D02*
G01*
X207477647Y-146053635D01*
X208096365Y-146672353D01*
X209457546Y-146053635D01*
X209705033Y-146301122D01*
X210014392Y-146610481D01*
X209333802Y-147909790D01*
X209952520Y-148528508D01*
X208255464Y-150225565D01*
X205780590Y-147750691D01*
X205851301Y-146831452D01*
X205497748Y-146477899D01*
X206204854Y-145770792D01*
X206558408Y-146124345D01*
G37*
X386032582Y-96232582D02*
X384264815Y-98000349D01*
X383769841Y-97505374D01*
X383133444Y-97576085D01*
X382426338Y-98283192D01*
X381648520Y-97505374D01*
X382355627Y-96798268D01*
X382355627Y-96091161D01*
X381860652Y-95596186D01*
X383628419Y-93828419D01*
X386032582Y-96232582D01*
G36*
X386032582Y-96232582D02*
G01*
X384264815Y-98000349D01*
X383769841Y-97505374D01*
X383133444Y-97576085D01*
X382426338Y-98283192D01*
X381648520Y-97505374D01*
X382355627Y-96798268D01*
X382355627Y-96091161D01*
X381860652Y-95596186D01*
X383628419Y-93828419D01*
X386032582Y-96232582D01*
G37*
X371921321Y-127629997D02*
X371214214Y-128337103D01*
X371214214Y-129044210D01*
X371709189Y-129539185D01*
X369941422Y-131306952D01*
X367537259Y-128902789D01*
X369305026Y-127135022D01*
X369800000Y-127629997D01*
X370436397Y-127559286D01*
X371143503Y-126852179D01*
X371921321Y-127629997D01*
G36*
X371921321Y-127629997D02*
G01*
X371214214Y-128337103D01*
X371214214Y-129044210D01*
X371709189Y-129539185D01*
X369941422Y-131306952D01*
X367537259Y-128902789D01*
X369305026Y-127135022D01*
X369800000Y-127629997D01*
X370436397Y-127559286D01*
X371143503Y-126852179D01*
X371921321Y-127629997D01*
G37*
X235000960Y-165290910D02*
X235920199Y-165220199D01*
X238182940Y-167482941D01*
X238182940Y-168472890D01*
X238465783Y-168755733D01*
X237758676Y-169462840D01*
X237475833Y-169179997D01*
X236485884Y-169179997D01*
X234223142Y-166917255D01*
X234223142Y-166068727D01*
X233940300Y-165785884D01*
X234718117Y-165008067D01*
X235000960Y-165290910D01*
G36*
X235000960Y-165290910D02*
G01*
X235920199Y-165220199D01*
X238182940Y-167482941D01*
X238182940Y-168472890D01*
X238465783Y-168755733D01*
X237758676Y-169462840D01*
X237475833Y-169179997D01*
X236485884Y-169179997D01*
X234223142Y-166917255D01*
X234223142Y-166068727D01*
X233940300Y-165785884D01*
X234718117Y-165008067D01*
X235000960Y-165290910D01*
G37*
X82860660Y-127305026D02*
X83779899Y-127234315D01*
X86042640Y-129497057D01*
X86042640Y-130487006D01*
X86325483Y-130769849D01*
X85618376Y-131476956D01*
X85335533Y-131194113D01*
X84345584Y-131194113D01*
X82082842Y-128931371D01*
X82082842Y-128082843D01*
X81800000Y-127800000D01*
X82577817Y-127022183D01*
X82860660Y-127305026D01*
G36*
X82860660Y-127305026D02*
G01*
X83779899Y-127234315D01*
X86042640Y-129497057D01*
X86042640Y-130487006D01*
X86325483Y-130769849D01*
X85618376Y-131476956D01*
X85335533Y-131194113D01*
X84345584Y-131194113D01*
X82082842Y-128931371D01*
X82082842Y-128082843D01*
X81800000Y-127800000D01*
X82577817Y-127022183D01*
X82860660Y-127305026D01*
G37*
X239592901Y-151064726D02*
X240512140Y-150994015D01*
X242987014Y-153468889D01*
X241289957Y-155165945D01*
X240671239Y-154547227D01*
X239371930Y-155227817D01*
X239062571Y-154918458D01*
X238815084Y-154670971D01*
X239433802Y-153309790D01*
X238815084Y-152691072D01*
X238885794Y-151771833D01*
X238532241Y-151418279D01*
X239239349Y-150711173D01*
X239592901Y-151064726D01*
G36*
X239592901Y-151064726D02*
G01*
X240512140Y-150994015D01*
X242987014Y-153468889D01*
X241289957Y-155165945D01*
X240671239Y-154547227D01*
X239371930Y-155227817D01*
X239062571Y-154918458D01*
X238815084Y-154670971D01*
X239433802Y-153309790D01*
X238815084Y-152691072D01*
X238885794Y-151771833D01*
X238532241Y-151418279D01*
X239239349Y-150711173D01*
X239592901Y-151064726D01*
G37*
X359069548Y-29065881D02*
X357569548Y-29065881D01*
X357569548Y-17865881D01*
X359069548Y-17865881D01*
X359069548Y-29065881D01*
G36*
X359069548Y-29065881D02*
G01*
X357569548Y-29065881D01*
X357569548Y-17865881D01*
X359069548Y-17865881D01*
X359069548Y-29065881D01*
G37*
X63496358Y-170492194D02*
X64415597Y-170421483D01*
X66678338Y-172684225D01*
X66678338Y-173674174D01*
X66961181Y-173957017D01*
X66254074Y-174664124D01*
X65971231Y-174381281D01*
X64981282Y-174381281D01*
X62718540Y-172118539D01*
X62718540Y-171270011D01*
X62435698Y-170987168D01*
X63213515Y-170209351D01*
X63496358Y-170492194D01*
G36*
X63496358Y-170492194D02*
G01*
X64415597Y-170421483D01*
X66678338Y-172684225D01*
X66678338Y-173674174D01*
X66961181Y-173957017D01*
X66254074Y-174664124D01*
X65971231Y-174381281D01*
X64981282Y-174381281D01*
X62718540Y-172118539D01*
X62718540Y-171270011D01*
X62435698Y-170987168D01*
X63213515Y-170209351D01*
X63496358Y-170492194D01*
G37*
X120967246Y-127311612D02*
X121886485Y-127240902D01*
X122505203Y-127859620D01*
X123866384Y-127240902D01*
X124113871Y-127488389D01*
X124423230Y-127797748D01*
X123742640Y-129097057D01*
X124361358Y-129715775D01*
X122664302Y-131412832D01*
X120189428Y-128937958D01*
X120260139Y-128018719D01*
X119906586Y-127665166D01*
X120613692Y-126958059D01*
X120967246Y-127311612D01*
G36*
X120967246Y-127311612D02*
G01*
X121886485Y-127240902D01*
X122505203Y-127859620D01*
X123866384Y-127240902D01*
X124113871Y-127488389D01*
X124423230Y-127797748D01*
X123742640Y-129097057D01*
X124361358Y-129715775D01*
X122664302Y-131412832D01*
X120189428Y-128937958D01*
X120260139Y-128018719D01*
X119906586Y-127665166D01*
X120613692Y-126958059D01*
X120967246Y-127311612D01*
G37*
X25743502Y-94097919D02*
X26662741Y-94027208D01*
X28925482Y-96289950D01*
X28925482Y-97279899D01*
X29208325Y-97562742D01*
X28501218Y-98269849D01*
X28218375Y-97987006D01*
X27228426Y-97987006D01*
X24965684Y-95724264D01*
X24965684Y-94875736D01*
X24682842Y-94592893D01*
X25460659Y-93815076D01*
X25743502Y-94097919D01*
G36*
X25743502Y-94097919D02*
G01*
X26662741Y-94027208D01*
X28925482Y-96289950D01*
X28925482Y-97279899D01*
X29208325Y-97562742D01*
X28501218Y-98269849D01*
X28218375Y-97987006D01*
X27228426Y-97987006D01*
X24965684Y-95724264D01*
X24965684Y-94875736D01*
X24682842Y-94592893D01*
X25460659Y-93815076D01*
X25743502Y-94097919D01*
G37*
X195700000Y-66300000D02*
X196100000Y-66300000D01*
X196100000Y-67300000D01*
X195700000Y-67300000D01*
X195000000Y-68000000D01*
X191800000Y-68000000D01*
X191200000Y-67400000D01*
X190800000Y-67400000D01*
X190800000Y-66300000D01*
X191200000Y-66300000D01*
X191800000Y-65600000D01*
X195000000Y-65600000D01*
X195700000Y-66300000D01*
G36*
X195700000Y-66300000D02*
G01*
X196100000Y-66300000D01*
X196100000Y-67300000D01*
X195700000Y-67300000D01*
X195000000Y-68000000D01*
X191800000Y-68000000D01*
X191200000Y-67400000D01*
X190800000Y-67400000D01*
X190800000Y-66300000D01*
X191200000Y-66300000D01*
X191800000Y-65600000D01*
X195000000Y-65600000D01*
X195700000Y-66300000D01*
G37*
X87887347Y-89041763D02*
X88806586Y-88971053D01*
X89425304Y-89589771D01*
X90786485Y-88971053D01*
X91033972Y-89218540D01*
X91343331Y-89527899D01*
X90662741Y-90827208D01*
X91281459Y-91445926D01*
X89584403Y-93142983D01*
X87109529Y-90668109D01*
X87180240Y-89748870D01*
X86826687Y-89395317D01*
X87533793Y-88688210D01*
X87887347Y-89041763D01*
G36*
X87887347Y-89041763D02*
G01*
X88806586Y-88971053D01*
X89425304Y-89589771D01*
X90786485Y-88971053D01*
X91033972Y-89218540D01*
X91343331Y-89527899D01*
X90662741Y-90827208D01*
X91281459Y-91445926D01*
X89584403Y-93142983D01*
X87109529Y-90668109D01*
X87180240Y-89748870D01*
X86826687Y-89395317D01*
X87533793Y-88688210D01*
X87887347Y-89041763D01*
G37*
X157505724Y-108331713D02*
X157753211Y-108579200D01*
X157134493Y-109940381D01*
X157753211Y-110559099D01*
X157682501Y-111478338D01*
X158036054Y-111831892D01*
X157328947Y-112538998D01*
X156975394Y-112185445D01*
X156056155Y-112256156D01*
X153581281Y-109781282D01*
X155278338Y-108084226D01*
X155897056Y-108702944D01*
X157196365Y-108022354D01*
X157505724Y-108331713D01*
G36*
X157505724Y-108331713D02*
G01*
X157753211Y-108579200D01*
X157134493Y-109940381D01*
X157753211Y-110559099D01*
X157682501Y-111478338D01*
X158036054Y-111831892D01*
X157328947Y-112538998D01*
X156975394Y-112185445D01*
X156056155Y-112256156D01*
X153581281Y-109781282D01*
X155278338Y-108084226D01*
X155897056Y-108702944D01*
X157196365Y-108022354D01*
X157505724Y-108331713D01*
G37*
X238415775Y-96221662D02*
X238345064Y-97140901D01*
X238698617Y-97494454D01*
X237991511Y-98201561D01*
X237637957Y-97848008D01*
X236718718Y-97918718D01*
X236100000Y-97300000D01*
X234738819Y-97918718D01*
X234491332Y-97671231D01*
X234181973Y-97361872D01*
X234862563Y-96062563D01*
X234243845Y-95443845D01*
X235940901Y-93746788D01*
X238415775Y-96221662D01*
G36*
X238415775Y-96221662D02*
G01*
X238345064Y-97140901D01*
X238698617Y-97494454D01*
X237991511Y-98201561D01*
X237637957Y-97848008D01*
X236718718Y-97918718D01*
X236100000Y-97300000D01*
X234738819Y-97918718D01*
X234491332Y-97671231D01*
X234181973Y-97361872D01*
X234862563Y-96062563D01*
X234243845Y-95443845D01*
X235940901Y-93746788D01*
X238415775Y-96221662D01*
G37*
X368462043Y-88998780D02*
X369381282Y-88928070D01*
X370000000Y-89546788D01*
X371361181Y-88928070D01*
X371608668Y-89175557D01*
X371918027Y-89484916D01*
X371237437Y-90784225D01*
X371856155Y-91402943D01*
X370159099Y-93100000D01*
X367684225Y-90625126D01*
X367754936Y-89705887D01*
X367401383Y-89352334D01*
X368108489Y-88645227D01*
X368462043Y-88998780D01*
G36*
X368462043Y-88998780D02*
G01*
X369381282Y-88928070D01*
X370000000Y-89546788D01*
X371361181Y-88928070D01*
X371608668Y-89175557D01*
X371918027Y-89484916D01*
X371237437Y-90784225D01*
X371856155Y-91402943D01*
X370159099Y-93100000D01*
X367684225Y-90625126D01*
X367754936Y-89705887D01*
X367401383Y-89352334D01*
X368108489Y-88645227D01*
X368462043Y-88998780D01*
G37*
X116315076Y-108210913D02*
X117234315Y-108140202D01*
X119497056Y-110402944D01*
X119497056Y-111392893D01*
X119779899Y-111675736D01*
X119072792Y-112382843D01*
X118789949Y-112100000D01*
X117800000Y-112100000D01*
X115537258Y-109837258D01*
X115537258Y-108988730D01*
X115254416Y-108705887D01*
X116032233Y-107928070D01*
X116315076Y-108210913D01*
G36*
X116315076Y-108210913D02*
G01*
X117234315Y-108140202D01*
X119497056Y-110402944D01*
X119497056Y-111392893D01*
X119779899Y-111675736D01*
X119072792Y-112382843D01*
X118789949Y-112100000D01*
X117800000Y-112100000D01*
X115537258Y-109837258D01*
X115537258Y-108988730D01*
X115254416Y-108705887D01*
X116032233Y-107928070D01*
X116315076Y-108210913D01*
G37*
X139300000Y-73600000D02*
X139800000Y-73600000D01*
X139800000Y-74600000D01*
X139300000Y-74600000D01*
X138700000Y-75300000D01*
X137825000Y-75300000D01*
X137300000Y-76700000D01*
X136950000Y-76700000D01*
X136512500Y-76700000D01*
X136075000Y-75300000D01*
X135200000Y-75300000D01*
X135200000Y-72900000D01*
X138700000Y-72900000D01*
X139300000Y-73600000D01*
G36*
X139300000Y-73600000D02*
G01*
X139800000Y-73600000D01*
X139800000Y-74600000D01*
X139300000Y-74600000D01*
X138700000Y-75300000D01*
X137825000Y-75300000D01*
X137300000Y-76700000D01*
X136950000Y-76700000D01*
X136512500Y-76700000D01*
X136075000Y-75300000D01*
X135200000Y-75300000D01*
X135200000Y-72900000D01*
X138700000Y-72900000D01*
X139300000Y-73600000D01*
G37*
X178023401Y-127267767D02*
X178942640Y-127197057D01*
X181417514Y-129671930D01*
X179720458Y-131368987D01*
X177245584Y-128894113D01*
X177316295Y-127974874D01*
X176962741Y-127621321D01*
X177669848Y-126914214D01*
X178023401Y-127267767D01*
G36*
X178023401Y-127267767D02*
G01*
X178942640Y-127197057D01*
X181417514Y-129671930D01*
X179720458Y-131368987D01*
X177245584Y-128894113D01*
X177316295Y-127974874D01*
X176962741Y-127621321D01*
X177669848Y-126914214D01*
X178023401Y-127267767D01*
G37*
X130315076Y-113010913D02*
X131234315Y-112940202D01*
X133497056Y-115202944D01*
X133497056Y-116192893D01*
X133779899Y-116475736D01*
X133072792Y-117182843D01*
X132789949Y-116900000D01*
X131800000Y-116900000D01*
X129537258Y-114637258D01*
X129537258Y-113788730D01*
X129254416Y-113505887D01*
X130032233Y-112728070D01*
X130315076Y-113010913D01*
G36*
X130315076Y-113010913D02*
G01*
X131234315Y-112940202D01*
X133497056Y-115202944D01*
X133497056Y-116192893D01*
X133779899Y-116475736D01*
X133072792Y-117182843D01*
X132789949Y-116900000D01*
X131800000Y-116900000D01*
X129537258Y-114637258D01*
X129537258Y-113788730D01*
X129254416Y-113505887D01*
X130032233Y-112728070D01*
X130315076Y-113010913D01*
G37*
X308460868Y-29065881D02*
X306960868Y-29065881D01*
X306960868Y-17865881D01*
X308460868Y-17865881D01*
X308460868Y-29065881D01*
G36*
X308460868Y-29065881D02*
G01*
X306960868Y-29065881D01*
X306960868Y-17865881D01*
X308460868Y-17865881D01*
X308460868Y-29065881D01*
G37*
X366670711Y-96227549D02*
X366600000Y-97146788D01*
X366953554Y-97500341D01*
X366246447Y-98207448D01*
X365892894Y-97853895D01*
X364973655Y-97924605D01*
X362498781Y-95449732D01*
X364195837Y-93752675D01*
X366670711Y-96227549D01*
G36*
X366670711Y-96227549D02*
G01*
X366600000Y-97146788D01*
X366953554Y-97500341D01*
X366246447Y-98207448D01*
X365892894Y-97853895D01*
X364973655Y-97924605D01*
X362498781Y-95449732D01*
X364195837Y-93752675D01*
X366670711Y-96227549D01*
G37*
X36900000Y-75300000D02*
X33400000Y-75300000D01*
X32800000Y-74600000D01*
X32300000Y-74600000D01*
X32300000Y-73600000D01*
X32800000Y-73600000D01*
X33400000Y-72900000D01*
X36900000Y-72900000D01*
X36900000Y-75300000D01*
G36*
X36900000Y-75300000D02*
G01*
X33400000Y-75300000D01*
X32800000Y-74600000D01*
X32300000Y-74600000D01*
X32300000Y-73600000D01*
X32800000Y-73600000D01*
X33400000Y-72900000D01*
X36900000Y-72900000D01*
X36900000Y-75300000D01*
G37*
X185933802Y-153609790D02*
X185863091Y-154529029D01*
X186216644Y-154882582D01*
X185509538Y-155589689D01*
X185155984Y-155236136D01*
X184236745Y-155306846D01*
X183618027Y-154688128D01*
X182256846Y-155306846D01*
X182009359Y-155059359D01*
X181700000Y-154750000D01*
X182380590Y-153450691D01*
X181761872Y-152831973D01*
X183458928Y-151134916D01*
X185933802Y-153609790D01*
G36*
X185933802Y-153609790D02*
G01*
X185863091Y-154529029D01*
X186216644Y-154882582D01*
X185509538Y-155589689D01*
X185155984Y-155236136D01*
X184236745Y-155306846D01*
X183618027Y-154688128D01*
X182256846Y-155306846D01*
X182009359Y-155059359D01*
X181700000Y-154750000D01*
X182380590Y-153450691D01*
X181761872Y-152831973D01*
X183458928Y-151134916D01*
X185933802Y-153609790D01*
G37*
X100239696Y-134600001D02*
X100168985Y-135519240D01*
X100522539Y-135872793D01*
X99815432Y-136579900D01*
X99461880Y-136226347D01*
X98542640Y-136297057D01*
X96067766Y-133822184D01*
X97764823Y-132125127D01*
X100239696Y-134600001D01*
G36*
X100239696Y-134600001D02*
G01*
X100168985Y-135519240D01*
X100522539Y-135872793D01*
X99815432Y-136579900D01*
X99461880Y-136226347D01*
X98542640Y-136297057D01*
X96067766Y-133822184D01*
X97764823Y-132125127D01*
X100239696Y-134600001D01*
G37*
X323643472Y-29065881D02*
X322143472Y-29065881D01*
X322143472Y-17865881D01*
X323643472Y-17865881D01*
X323643472Y-29065881D01*
G36*
X323643472Y-29065881D02*
G01*
X322143472Y-29065881D01*
X322143472Y-17865881D01*
X323643472Y-17865881D01*
X323643472Y-29065881D01*
G37*
X143339696Y-96268629D02*
X141571929Y-98036396D01*
X141076955Y-97541421D01*
X140440558Y-97612132D01*
X139733452Y-98319239D01*
X138955634Y-97541421D01*
X139662741Y-96834315D01*
X139662741Y-96127208D01*
X139167766Y-95632233D01*
X140935533Y-93864466D01*
X143339696Y-96268629D01*
G36*
X143339696Y-96268629D02*
G01*
X141571929Y-98036396D01*
X141076955Y-97541421D01*
X140440558Y-97612132D01*
X139733452Y-98319239D01*
X138955634Y-97541421D01*
X139662741Y-96834315D01*
X139662741Y-96127208D01*
X139167766Y-95632233D01*
X140935533Y-93864466D01*
X143339696Y-96268629D01*
G37*
X72284062Y-89427208D02*
X71576955Y-90134314D01*
X71576955Y-90841421D01*
X72071930Y-91336396D01*
X70304163Y-93104163D01*
X67900000Y-90700000D01*
X69667767Y-88932233D01*
X70162741Y-89427208D01*
X70799138Y-89356497D01*
X71506244Y-88649390D01*
X72284062Y-89427208D01*
G36*
X72284062Y-89427208D02*
G01*
X71576955Y-90134314D01*
X71576955Y-90841421D01*
X72071930Y-91336396D01*
X70304163Y-93104163D01*
X67900000Y-90700000D01*
X69667767Y-88932233D01*
X70162741Y-89427208D01*
X70799138Y-89356497D01*
X71506244Y-88649390D01*
X72284062Y-89427208D01*
G37*
X110684062Y-89527208D02*
X109976955Y-90234314D01*
X109976955Y-90941421D01*
X110471930Y-91436396D01*
X108704163Y-93204163D01*
X106300000Y-90800000D01*
X108067767Y-89032233D01*
X108562741Y-89527208D01*
X109199138Y-89456497D01*
X109906244Y-88749390D01*
X110684062Y-89527208D01*
G36*
X110684062Y-89527208D02*
G01*
X109976955Y-90234314D01*
X109976955Y-90941421D01*
X110471930Y-91436396D01*
X108704163Y-93204163D01*
X106300000Y-90800000D01*
X108067767Y-89032233D01*
X108562741Y-89527208D01*
X109199138Y-89456497D01*
X109906244Y-88749390D01*
X110684062Y-89527208D01*
G37*
X348947812Y-29065881D02*
X347447812Y-29065881D01*
X347447812Y-17865881D01*
X348947812Y-17865881D01*
X348947812Y-29065881D01*
G36*
X348947812Y-29065881D02*
G01*
X347447812Y-29065881D01*
X347447812Y-17865881D01*
X348947812Y-17865881D01*
X348947812Y-29065881D01*
G37*
X195700000Y-73400000D02*
X196100000Y-73400000D01*
X196100000Y-74400000D01*
X195700000Y-74400000D01*
X195000000Y-75100000D01*
X191800000Y-75100000D01*
X191200000Y-74500000D01*
X190800000Y-74500000D01*
X190800000Y-73400000D01*
X191200000Y-73400000D01*
X191800000Y-72700000D01*
X195000000Y-72700000D01*
X195700000Y-73400000D01*
G36*
X195700000Y-73400000D02*
G01*
X196100000Y-73400000D01*
X196100000Y-74400000D01*
X195700000Y-74400000D01*
X195000000Y-75100000D01*
X191800000Y-75100000D01*
X191200000Y-74500000D01*
X190800000Y-74500000D01*
X190800000Y-73400000D01*
X191200000Y-73400000D01*
X191800000Y-72700000D01*
X195000000Y-72700000D01*
X195700000Y-73400000D01*
G37*
X168400960Y-165490910D02*
X169320199Y-165420199D01*
X171582940Y-167682941D01*
X171582940Y-168672890D01*
X171865783Y-168955733D01*
X171158676Y-169662840D01*
X170875833Y-169379997D01*
X169885884Y-169379997D01*
X167623142Y-167117255D01*
X167623142Y-166268727D01*
X167340300Y-165985884D01*
X168118117Y-165208067D01*
X168400960Y-165490910D01*
G36*
X168400960Y-165490910D02*
G01*
X169320199Y-165420199D01*
X171582940Y-167682941D01*
X171582940Y-168672890D01*
X171865783Y-168955733D01*
X171158676Y-169662840D01*
X170875833Y-169379997D01*
X169885884Y-169379997D01*
X167623142Y-167117255D01*
X167623142Y-166268727D01*
X167340300Y-165985884D01*
X168118117Y-165208067D01*
X168400960Y-165490910D01*
G37*
X347874874Y-115574874D02*
X347804163Y-116494113D01*
X348157716Y-116847666D01*
X347450610Y-117554773D01*
X347097056Y-117201220D01*
X346177817Y-117271930D01*
X345559099Y-116653212D01*
X344197918Y-117271930D01*
X343950431Y-117024443D01*
X343641072Y-116715084D01*
X344321662Y-115415775D01*
X343702944Y-114797057D01*
X345400000Y-113100000D01*
X347874874Y-115574874D01*
G36*
X347874874Y-115574874D02*
G01*
X347804163Y-116494113D01*
X348157716Y-116847666D01*
X347450610Y-117554773D01*
X347097056Y-117201220D01*
X346177817Y-117271930D01*
X345559099Y-116653212D01*
X344197918Y-117271930D01*
X343950431Y-117024443D01*
X343641072Y-116715084D01*
X344321662Y-115415775D01*
X343702944Y-114797057D01*
X345400000Y-113100000D01*
X347874874Y-115574874D01*
G37*
X225456155Y-112957880D02*
X226375394Y-112887169D01*
X228850268Y-115362043D01*
X227153211Y-117059099D01*
X226534493Y-116440381D01*
X225235184Y-117120971D01*
X224925825Y-116811612D01*
X224678338Y-116564125D01*
X225297056Y-115202944D01*
X224678338Y-114584226D01*
X224749048Y-113664987D01*
X224395495Y-113311433D01*
X225102603Y-112604327D01*
X225456155Y-112957880D01*
G36*
X225456155Y-112957880D02*
G01*
X226375394Y-112887169D01*
X228850268Y-115362043D01*
X227153211Y-117059099D01*
X226534493Y-116440381D01*
X225235184Y-117120971D01*
X224925825Y-116811612D01*
X224678338Y-116564125D01*
X225297056Y-115202944D01*
X224678338Y-114584226D01*
X224749048Y-113664987D01*
X224395495Y-113311433D01*
X225102603Y-112604327D01*
X225456155Y-112957880D01*
G37*
X166833802Y-153609790D02*
X166763091Y-154529029D01*
X167116644Y-154882582D01*
X166409538Y-155589689D01*
X166055984Y-155236136D01*
X165136745Y-155306846D01*
X164518027Y-154688128D01*
X163156846Y-155306846D01*
X162909359Y-155059359D01*
X162600000Y-154750000D01*
X163280590Y-153450691D01*
X162661872Y-152831973D01*
X164358928Y-151134916D01*
X166833802Y-153609790D01*
G36*
X166833802Y-153609790D02*
G01*
X166763091Y-154529029D01*
X167116644Y-154882582D01*
X166409538Y-155589689D01*
X166055984Y-155236136D01*
X165136745Y-155306846D01*
X164518027Y-154688128D01*
X163156846Y-155306846D01*
X162909359Y-155059359D01*
X162600000Y-154750000D01*
X163280590Y-153450691D01*
X162661872Y-152831973D01*
X164358928Y-151134916D01*
X166833802Y-153609790D01*
G37*
X263551822Y-146117759D02*
X264471061Y-146047048D01*
X266733802Y-148309790D01*
X266733802Y-149299739D01*
X267016645Y-149582582D01*
X266309538Y-150289689D01*
X266026695Y-150006846D01*
X265036746Y-150006846D01*
X262774004Y-147744104D01*
X262774004Y-146895576D01*
X262491162Y-146612733D01*
X263268979Y-145834916D01*
X263551822Y-146117759D01*
G36*
X263551822Y-146117759D02*
G01*
X264471061Y-146047048D01*
X266733802Y-148309790D01*
X266733802Y-149299739D01*
X267016645Y-149582582D01*
X266309538Y-150289689D01*
X266026695Y-150006846D01*
X265036746Y-150006846D01*
X262774004Y-147744104D01*
X262774004Y-146895576D01*
X262491162Y-146612733D01*
X263268979Y-145834916D01*
X263551822Y-146117759D01*
G37*
X173277817Y-108173654D02*
X174197056Y-108102944D01*
X176671930Y-110577817D01*
X174974874Y-112274874D01*
X172500000Y-109800000D01*
X172570711Y-108880761D01*
X172217157Y-108527208D01*
X172924264Y-107820101D01*
X173277817Y-108173654D01*
G36*
X173277817Y-108173654D02*
G01*
X174197056Y-108102944D01*
X176671930Y-110577817D01*
X174974874Y-112274874D01*
X172500000Y-109800000D01*
X172570711Y-108880761D01*
X172217157Y-108527208D01*
X172924264Y-107820101D01*
X173277817Y-108173654D01*
G37*
X41263961Y-127797057D02*
X40556854Y-128504163D01*
X40556854Y-129211270D01*
X41051829Y-129706245D01*
X39284062Y-131474012D01*
X36879899Y-129069849D01*
X38647666Y-127302082D01*
X39142640Y-127797057D01*
X39779037Y-127726346D01*
X40486143Y-127019239D01*
X41263961Y-127797057D01*
G36*
X41263961Y-127797057D02*
G01*
X40556854Y-128504163D01*
X40556854Y-129211270D01*
X41051829Y-129706245D01*
X39284062Y-131474012D01*
X36879899Y-129069849D01*
X38647666Y-127302082D01*
X39142640Y-127797057D01*
X39779037Y-127726346D01*
X40486143Y-127019239D01*
X41263961Y-127797057D01*
G37*
X38468287Y-108494276D02*
X38715774Y-108741763D01*
X38097056Y-110102944D01*
X38715774Y-110721662D01*
X38645064Y-111640901D01*
X38998617Y-111994455D01*
X38291509Y-112701561D01*
X37937957Y-112348008D01*
X37018718Y-112418719D01*
X34543844Y-109943845D01*
X36240901Y-108246789D01*
X36859619Y-108865507D01*
X38158928Y-108184917D01*
X38468287Y-108494276D01*
G36*
X38468287Y-108494276D02*
G01*
X38715774Y-108741763D01*
X38097056Y-110102944D01*
X38715774Y-110721662D01*
X38645064Y-111640901D01*
X38998617Y-111994455D01*
X38291509Y-112701561D01*
X37937957Y-112348008D01*
X37018718Y-112418719D01*
X34543844Y-109943845D01*
X36240901Y-108246789D01*
X36859619Y-108865507D01*
X38158928Y-108184917D01*
X38468287Y-108494276D01*
G37*
X276739696Y-96168629D02*
X274971929Y-97936396D01*
X274476955Y-97441421D01*
X273840558Y-97512132D01*
X273133452Y-98219239D01*
X272355634Y-97441421D01*
X273062741Y-96734315D01*
X273062741Y-96027208D01*
X272567766Y-95532233D01*
X274335533Y-93764466D01*
X276739696Y-96168629D01*
G36*
X276739696Y-96168629D02*
G01*
X274971929Y-97936396D01*
X274476955Y-97441421D01*
X273840558Y-97512132D01*
X273133452Y-98219239D01*
X272355634Y-97441421D01*
X273062741Y-96734315D01*
X273062741Y-96027208D01*
X272567766Y-95532233D01*
X274335533Y-93764466D01*
X276739696Y-96168629D01*
G37*
X220600000Y-75100000D02*
X219900000Y-75100000D01*
X219500000Y-75600000D01*
X219500000Y-76600000D01*
X218400000Y-76600000D01*
X218400000Y-75600000D01*
X217900000Y-75100000D01*
X217200000Y-75100000D01*
X217200000Y-72600000D01*
X220600000Y-72600000D01*
X220600000Y-75100000D01*
G36*
X220600000Y-75100000D02*
G01*
X219900000Y-75100000D01*
X219500000Y-75600000D01*
X219500000Y-76600000D01*
X218400000Y-76600000D01*
X218400000Y-75600000D01*
X217900000Y-75100000D01*
X217200000Y-75100000D01*
X217200000Y-72600000D01*
X220600000Y-72600000D01*
X220600000Y-75100000D01*
G37*
X152955123Y-146709790D02*
X152248016Y-147416896D01*
X152248016Y-148124003D01*
X152742991Y-148618978D01*
X150975224Y-150386745D01*
X148571061Y-147982582D01*
X150338828Y-146214815D01*
X150833802Y-146709790D01*
X151470199Y-146639079D01*
X152177305Y-145931972D01*
X152955123Y-146709790D01*
G36*
X152955123Y-146709790D02*
G01*
X152248016Y-147416896D01*
X152248016Y-148124003D01*
X152742991Y-148618978D01*
X150975224Y-150386745D01*
X148571061Y-147982582D01*
X150338828Y-146214815D01*
X150833802Y-146709790D01*
X151470199Y-146639079D01*
X152177305Y-145931972D01*
X152955123Y-146709790D01*
G37*
X289852943Y-146248780D02*
X290772182Y-146178070D01*
X293247056Y-148652943D01*
X291550000Y-150350000D01*
X289075126Y-147875126D01*
X289145837Y-146955887D01*
X288792283Y-146602334D01*
X289499390Y-145895227D01*
X289852943Y-146248780D01*
G36*
X289852943Y-146248780D02*
G01*
X290772182Y-146178070D01*
X293247056Y-148652943D01*
X291550000Y-150350000D01*
X289075126Y-147875126D01*
X289145837Y-146955887D01*
X288792283Y-146602334D01*
X289499390Y-145895227D01*
X289852943Y-146248780D01*
G37*
X368685088Y-70010571D02*
X369604327Y-69939861D01*
X370223045Y-70558579D01*
X371584226Y-69939861D01*
X371831713Y-70187348D01*
X372141072Y-70496707D01*
X371460482Y-71796016D01*
X372079200Y-72414734D01*
X370382144Y-74111791D01*
X367907270Y-71636917D01*
X367977981Y-70717678D01*
X367624428Y-70364125D01*
X368331534Y-69657018D01*
X368685088Y-70010571D01*
G36*
X368685088Y-70010571D02*
G01*
X369604327Y-69939861D01*
X370223045Y-70558579D01*
X371584226Y-69939861D01*
X371831713Y-70187348D01*
X372141072Y-70496707D01*
X371460482Y-71796016D01*
X372079200Y-72414734D01*
X370382144Y-74111791D01*
X367907270Y-71636917D01*
X367977981Y-70717678D01*
X367624428Y-70364125D01*
X368331534Y-69657018D01*
X368685088Y-70010571D01*
G37*
X163418020Y-170407969D02*
X164337259Y-170337258D01*
X166600000Y-172600000D01*
X166600000Y-173589949D01*
X166882843Y-173872792D01*
X166175736Y-174579899D01*
X165892893Y-174297056D01*
X164902944Y-174297056D01*
X162640202Y-172034314D01*
X162640202Y-171185786D01*
X162357360Y-170902943D01*
X163135177Y-170125126D01*
X163418020Y-170407969D01*
G36*
X163418020Y-170407969D02*
G01*
X164337259Y-170337258D01*
X166600000Y-172600000D01*
X166600000Y-173589949D01*
X166882843Y-173872792D01*
X166175736Y-174579899D01*
X165892893Y-174297056D01*
X164902944Y-174297056D01*
X162640202Y-172034314D01*
X162640202Y-171185786D01*
X162357360Y-170902943D01*
X163135177Y-170125126D01*
X163418020Y-170407969D01*
G37*
X240140558Y-88900862D02*
X241059797Y-88830152D01*
X243534671Y-91305025D01*
X241837615Y-93002082D01*
X239362741Y-90527208D01*
X239433452Y-89607969D01*
X239079898Y-89254416D01*
X239787005Y-88547309D01*
X240140558Y-88900862D01*
G36*
X240140558Y-88900862D02*
G01*
X241059797Y-88830152D01*
X243534671Y-91305025D01*
X241837615Y-93002082D01*
X239362741Y-90527208D01*
X239433452Y-89607969D01*
X239079898Y-89254416D01*
X239787005Y-88547309D01*
X240140558Y-88900862D01*
G37*
X76855123Y-146809790D02*
X76148016Y-147516896D01*
X76148016Y-148224003D01*
X76642991Y-148718978D01*
X74875224Y-150486745D01*
X72471061Y-148082582D01*
X74238828Y-146314815D01*
X74733802Y-146809790D01*
X75370199Y-146739079D01*
X76077305Y-146031972D01*
X76855123Y-146809790D01*
G36*
X76855123Y-146809790D02*
G01*
X76148016Y-147516896D01*
X76148016Y-148224003D01*
X76642991Y-148718978D01*
X74875224Y-150486745D01*
X72471061Y-148082582D01*
X74238828Y-146314815D01*
X74733802Y-146809790D01*
X75370199Y-146739079D01*
X76077305Y-146031972D01*
X76855123Y-146809790D01*
G37*
X139200000Y-66500000D02*
X139600000Y-66500000D01*
X139600000Y-67500000D01*
X139200000Y-67500000D01*
X138500000Y-68200000D01*
X135300000Y-68200000D01*
X134700000Y-67600000D01*
X134300000Y-67600000D01*
X134300000Y-66500000D01*
X134700000Y-66500000D01*
X135300000Y-65800000D01*
X138500000Y-65800000D01*
X139200000Y-66500000D01*
G36*
X139200000Y-66500000D02*
G01*
X139600000Y-66500000D01*
X139600000Y-67500000D01*
X139200000Y-67500000D01*
X138500000Y-68200000D01*
X135300000Y-68200000D01*
X134700000Y-67600000D01*
X134300000Y-67600000D01*
X134300000Y-66500000D01*
X134700000Y-66500000D01*
X135300000Y-65800000D01*
X138500000Y-65800000D01*
X139200000Y-66500000D01*
G37*
X157358415Y-134618719D02*
X157287704Y-135537958D01*
X157641257Y-135891510D01*
X156934151Y-136598618D01*
X156580597Y-136245065D01*
X155661358Y-136315775D01*
X155042640Y-135697057D01*
X153681459Y-136315775D01*
X153433972Y-136068288D01*
X153124613Y-135758929D01*
X153805203Y-134459620D01*
X153186485Y-133840902D01*
X154883541Y-132143845D01*
X157358415Y-134618719D01*
G36*
X157358415Y-134618719D02*
G01*
X157287704Y-135537958D01*
X157641257Y-135891510D01*
X156934151Y-136598618D01*
X156580597Y-136245065D01*
X155661358Y-136315775D01*
X155042640Y-135697057D01*
X153681459Y-136315775D01*
X153433972Y-136068288D01*
X153124613Y-135758929D01*
X153805203Y-134459620D01*
X153186485Y-133840902D01*
X154883541Y-132143845D01*
X157358415Y-134618719D01*
G37*
X111315076Y-113110913D02*
X112234315Y-113040202D01*
X114497056Y-115302944D01*
X114497056Y-116292893D01*
X114779899Y-116575736D01*
X114072792Y-117282843D01*
X113789949Y-117000000D01*
X112800000Y-117000000D01*
X110537258Y-114737258D01*
X110537258Y-113888730D01*
X110254416Y-113605887D01*
X111032233Y-112828070D01*
X111315076Y-113110913D01*
G36*
X111315076Y-113110913D02*
G01*
X112234315Y-113040202D01*
X114497056Y-115302944D01*
X114497056Y-116292893D01*
X114779899Y-116575736D01*
X114072792Y-117282843D01*
X113789949Y-117000000D01*
X112800000Y-117000000D01*
X110537258Y-114737258D01*
X110537258Y-113888730D01*
X110254416Y-113605887D01*
X111032233Y-112828070D01*
X111315076Y-113110913D01*
G37*
X216060660Y-127105026D02*
X216979899Y-127034315D01*
X219242640Y-129297057D01*
X219242640Y-130287006D01*
X219525483Y-130569849D01*
X218818376Y-131276956D01*
X218535533Y-130994113D01*
X217545584Y-130994113D01*
X215282842Y-128731371D01*
X215282842Y-127882843D01*
X215000000Y-127600000D01*
X215777817Y-126822183D01*
X216060660Y-127105026D01*
G36*
X216060660Y-127105026D02*
G01*
X216979899Y-127034315D01*
X219242640Y-129297057D01*
X219242640Y-130287006D01*
X219525483Y-130569849D01*
X218818376Y-131276956D01*
X218535533Y-130994113D01*
X217545584Y-130994113D01*
X215282842Y-128731371D01*
X215282842Y-127882843D01*
X215000000Y-127600000D01*
X215777817Y-126822183D01*
X216060660Y-127105026D01*
G37*
X382307106Y-132122890D02*
X383226345Y-132052180D01*
X385701219Y-134527053D01*
X384004163Y-136224110D01*
X381529289Y-133749236D01*
X381600000Y-132829997D01*
X381246446Y-132476444D01*
X381953553Y-131769337D01*
X382307106Y-132122890D01*
G36*
X382307106Y-132122890D02*
G01*
X383226345Y-132052180D01*
X385701219Y-134527053D01*
X384004163Y-136224110D01*
X381529289Y-133749236D01*
X381600000Y-132829997D01*
X381246446Y-132476444D01*
X381953553Y-131769337D01*
X382307106Y-132122890D01*
G37*
X358302944Y-172478679D02*
X359222183Y-172407969D01*
X359840901Y-173026687D01*
X361202082Y-172407969D01*
X361449569Y-172655456D01*
X361758928Y-172964815D01*
X361078338Y-174264124D01*
X361697056Y-174882842D01*
X360000000Y-176579899D01*
X357525126Y-174105025D01*
X357595837Y-173185786D01*
X357242284Y-172832233D01*
X357949390Y-172125126D01*
X358302944Y-172478679D01*
G36*
X358302944Y-172478679D02*
G01*
X359222183Y-172407969D01*
X359840901Y-173026687D01*
X361202082Y-172407969D01*
X361449569Y-172655456D01*
X361758928Y-172964815D01*
X361078338Y-174264124D01*
X361697056Y-174882842D01*
X360000000Y-176579899D01*
X357525126Y-174105025D01*
X357595837Y-173185786D01*
X357242284Y-172832233D01*
X357949390Y-172125126D01*
X358302944Y-172478679D01*
G37*
X30256155Y-113157880D02*
X31175394Y-113087169D01*
X33650268Y-115562043D01*
X31953211Y-117259099D01*
X31334493Y-116640381D01*
X30035184Y-117320971D01*
X29725825Y-117011612D01*
X29478338Y-116764125D01*
X30097056Y-115402944D01*
X29478338Y-114784226D01*
X29549048Y-113864987D01*
X29195495Y-113511433D01*
X29902603Y-112804327D01*
X30256155Y-113157880D01*
G36*
X30256155Y-113157880D02*
G01*
X31175394Y-113087169D01*
X33650268Y-115562043D01*
X31953211Y-117259099D01*
X31334493Y-116640381D01*
X30035184Y-117320971D01*
X29725825Y-117011612D01*
X29478338Y-116764125D01*
X30097056Y-115402944D01*
X29478338Y-114784226D01*
X29549048Y-113864987D01*
X29195495Y-113511433D01*
X29902603Y-112804327D01*
X30256155Y-113157880D01*
G37*
X176442640Y-134597057D02*
X176371929Y-135516296D01*
X176725482Y-135869849D01*
X176018376Y-136576956D01*
X175664822Y-136223403D01*
X174745583Y-136294113D01*
X174126865Y-135675395D01*
X172765684Y-136294113D01*
X172518197Y-136046626D01*
X172208838Y-135737267D01*
X172889428Y-134437958D01*
X172270710Y-133819240D01*
X173967766Y-132122183D01*
X176442640Y-134597057D01*
G36*
X176442640Y-134597057D02*
G01*
X176371929Y-135516296D01*
X176725482Y-135869849D01*
X176018376Y-136576956D01*
X175664822Y-136223403D01*
X174745583Y-136294113D01*
X174126865Y-135675395D01*
X172765684Y-136294113D01*
X172518197Y-136046626D01*
X172208838Y-135737267D01*
X172889428Y-134437958D01*
X172270710Y-133819240D01*
X173967766Y-132122183D01*
X176442640Y-134597057D01*
G37*
X330418020Y-108266548D02*
X331337259Y-108195837D01*
X333600000Y-110458579D01*
X333600000Y-111448528D01*
X333882843Y-111731371D01*
X333175736Y-112438478D01*
X332892893Y-112155635D01*
X331902944Y-112155635D01*
X329640202Y-109892893D01*
X329640202Y-109044365D01*
X329357360Y-108761522D01*
X330135177Y-107983705D01*
X330418020Y-108266548D01*
G36*
X330418020Y-108266548D02*
G01*
X331337259Y-108195837D01*
X333600000Y-110458579D01*
X333600000Y-111448528D01*
X333882843Y-111731371D01*
X333175736Y-112438478D01*
X332892893Y-112155635D01*
X331902944Y-112155635D01*
X329640202Y-109892893D01*
X329640202Y-109044365D01*
X329357360Y-108761522D01*
X330135177Y-107983705D01*
X330418020Y-108266548D01*
G37*
X341356510Y-29065881D02*
X339856510Y-29065881D01*
X339856510Y-17865881D01*
X341356510Y-17865881D01*
X341356510Y-29065881D01*
G36*
X341356510Y-29065881D02*
G01*
X339856510Y-29065881D01*
X339856510Y-17865881D01*
X341356510Y-17865881D01*
X341356510Y-29065881D01*
G37*
X197123401Y-127267767D02*
X198042640Y-127197057D01*
X200517514Y-129671930D01*
X198820458Y-131368987D01*
X196345584Y-128894113D01*
X196416295Y-127974874D01*
X196062741Y-127621321D01*
X196769848Y-126914214D01*
X197123401Y-127267767D01*
G36*
X197123401Y-127267767D02*
G01*
X198042640Y-127197057D01*
X200517514Y-129671930D01*
X198820458Y-131368987D01*
X196345584Y-128894113D01*
X196416295Y-127974874D01*
X196062741Y-127621321D01*
X196769848Y-126914214D01*
X197123401Y-127267767D01*
G37*
X328704340Y-29065881D02*
X327204340Y-29065881D01*
X327204340Y-17865881D01*
X328704340Y-17865881D01*
X328704340Y-29065881D01*
G36*
X328704340Y-29065881D02*
G01*
X327204340Y-29065881D01*
X327204340Y-17865881D01*
X328704340Y-17865881D01*
X328704340Y-29065881D01*
G37*
X330715076Y-70110913D02*
X331634315Y-70040202D01*
X333897056Y-72302944D01*
X333897056Y-73292893D01*
X334179899Y-73575736D01*
X333472792Y-74282843D01*
X333189949Y-74000000D01*
X332200000Y-74000000D01*
X329937258Y-71737258D01*
X329937258Y-70888730D01*
X329654416Y-70605887D01*
X330432233Y-69828070D01*
X330715076Y-70110913D01*
G36*
X330715076Y-70110913D02*
G01*
X331634315Y-70040202D01*
X333897056Y-72302944D01*
X333897056Y-73292893D01*
X334179899Y-73575736D01*
X333472792Y-74282843D01*
X333189949Y-74000000D01*
X332200000Y-74000000D01*
X329937258Y-71737258D01*
X329937258Y-70888730D01*
X329654416Y-70605887D01*
X330432233Y-69828070D01*
X330715076Y-70110913D01*
G37*
X214542640Y-134497057D02*
X214471929Y-135416296D01*
X214825482Y-135769849D01*
X214118376Y-136476956D01*
X213764822Y-136123403D01*
X212845583Y-136194113D01*
X212226865Y-135575395D01*
X210865684Y-136194113D01*
X210618197Y-135946626D01*
X210308838Y-135637267D01*
X210989428Y-134337958D01*
X210370710Y-133719240D01*
X212067766Y-132022183D01*
X214542640Y-134497057D01*
G36*
X214542640Y-134497057D02*
G01*
X214471929Y-135416296D01*
X214825482Y-135769849D01*
X214118376Y-136476956D01*
X213764822Y-136123403D01*
X212845583Y-136194113D01*
X212226865Y-135575395D01*
X210865684Y-136194113D01*
X210618197Y-135946626D01*
X210308838Y-135637267D01*
X210989428Y-134337958D01*
X210370710Y-133719240D01*
X212067766Y-132022183D01*
X214542640Y-134497057D01*
G37*
X325477817Y-93940543D02*
X326397056Y-93869832D01*
X328871930Y-96344706D01*
X327174873Y-98041762D01*
X326556155Y-97423044D01*
X325256846Y-98103634D01*
X324947487Y-97794275D01*
X324700000Y-97546788D01*
X325318718Y-96185607D01*
X324700000Y-95566889D01*
X324770710Y-94647649D01*
X324417157Y-94294096D01*
X325124265Y-93586990D01*
X325477817Y-93940543D01*
G36*
X325477817Y-93940543D02*
G01*
X326397056Y-93869832D01*
X328871930Y-96344706D01*
X327174873Y-98041762D01*
X326556155Y-97423044D01*
X325256846Y-98103634D01*
X324947487Y-97794275D01*
X324700000Y-97546788D01*
X325318718Y-96185607D01*
X324700000Y-95566889D01*
X324770710Y-94647649D01*
X324417157Y-94294096D01*
X325124265Y-93586990D01*
X325477817Y-93940543D01*
G37*
X139960660Y-127305026D02*
X140879899Y-127234315D01*
X143142640Y-129497057D01*
X143142640Y-130487006D01*
X143425483Y-130769849D01*
X142718376Y-131476956D01*
X142435533Y-131194113D01*
X141445584Y-131194113D01*
X139182842Y-128931371D01*
X139182842Y-128082843D01*
X138900000Y-127800000D01*
X139677817Y-127022183D01*
X139960660Y-127305026D01*
G36*
X139960660Y-127305026D02*
G01*
X140879899Y-127234315D01*
X143142640Y-129497057D01*
X143142640Y-130487006D01*
X143425483Y-130769849D01*
X142718376Y-131476956D01*
X142435533Y-131194113D01*
X141445584Y-131194113D01*
X139182842Y-128931371D01*
X139182842Y-128082843D01*
X138900000Y-127800000D01*
X139677817Y-127022183D01*
X139960660Y-127305026D01*
G37*
X366779289Y-115479289D02*
X366708578Y-116398528D01*
X367062131Y-116752081D01*
X366355025Y-117459188D01*
X366001471Y-117105635D01*
X365082232Y-117176345D01*
X364463514Y-116557627D01*
X363102333Y-117176345D01*
X362854846Y-116928858D01*
X362545487Y-116619499D01*
X363226077Y-115320190D01*
X362607359Y-114701472D01*
X364304415Y-113004415D01*
X366779289Y-115479289D01*
G36*
X366779289Y-115479289D02*
G01*
X366708578Y-116398528D01*
X367062131Y-116752081D01*
X366355025Y-117459188D01*
X366001471Y-117105635D01*
X365082232Y-117176345D01*
X364463514Y-116557627D01*
X363102333Y-117176345D01*
X362854846Y-116928858D01*
X362545487Y-116619499D01*
X363226077Y-115320190D01*
X362607359Y-114701472D01*
X364304415Y-113004415D01*
X366779289Y-115479289D01*
G37*
X170200000Y-73500000D02*
X170600000Y-73500000D01*
X170600000Y-74500000D01*
X170200000Y-74500000D01*
X169500000Y-75200000D01*
X166300000Y-75200000D01*
X165700000Y-74600000D01*
X165300000Y-74600000D01*
X165300000Y-73500000D01*
X165700000Y-73500000D01*
X166300000Y-72800000D01*
X169500000Y-72800000D01*
X170200000Y-73500000D01*
G36*
X170200000Y-73500000D02*
G01*
X170600000Y-73500000D01*
X170600000Y-74500000D01*
X170200000Y-74500000D01*
X169500000Y-75200000D01*
X166300000Y-75200000D01*
X165700000Y-74600000D01*
X165300000Y-74600000D01*
X165300000Y-73500000D01*
X165700000Y-73500000D01*
X166300000Y-72800000D01*
X169500000Y-72800000D01*
X170200000Y-73500000D01*
G37*
X330307106Y-127222890D02*
X331226345Y-127152180D01*
X333701219Y-129627053D01*
X332004163Y-131324110D01*
X329529289Y-128849236D01*
X329600000Y-127929997D01*
X329246446Y-127576444D01*
X329953553Y-126869337D01*
X330307106Y-127222890D01*
G36*
X330307106Y-127222890D02*
G01*
X331226345Y-127152180D01*
X333701219Y-129627053D01*
X332004163Y-131324110D01*
X329529289Y-128849236D01*
X329600000Y-127929997D01*
X329246446Y-127576444D01*
X329953553Y-126869337D01*
X330307106Y-127222890D01*
G37*
X347973394Y-96473394D02*
X347902683Y-97392633D01*
X348256236Y-97746186D01*
X347549130Y-98453293D01*
X347195576Y-98099740D01*
X346276337Y-98170450D01*
X345657619Y-97551732D01*
X344296438Y-98170450D01*
X344048951Y-97922963D01*
X343739592Y-97613604D01*
X344420182Y-96314295D01*
X343801464Y-95695577D01*
X345498520Y-93998520D01*
X347973394Y-96473394D01*
G36*
X347973394Y-96473394D02*
G01*
X347902683Y-97392633D01*
X348256236Y-97746186D01*
X347549130Y-98453293D01*
X347195576Y-98099740D01*
X346276337Y-98170450D01*
X345657619Y-97551732D01*
X344296438Y-98170450D01*
X344048951Y-97922963D01*
X343739592Y-97613604D01*
X344420182Y-96314295D01*
X343801464Y-95695577D01*
X345498520Y-93998520D01*
X347973394Y-96473394D01*
G37*
X172055123Y-146709790D02*
X171348016Y-147416896D01*
X171348016Y-148124003D01*
X171842991Y-148618978D01*
X170075224Y-150386745D01*
X167671061Y-147982582D01*
X169438828Y-146214815D01*
X169933802Y-146709790D01*
X170570199Y-146639079D01*
X171277305Y-145931972D01*
X172055123Y-146709790D01*
G36*
X172055123Y-146709790D02*
G01*
X171348016Y-147416896D01*
X171348016Y-148124003D01*
X171842991Y-148618978D01*
X170075224Y-150386745D01*
X167671061Y-147982582D01*
X169438828Y-146214815D01*
X169933802Y-146709790D01*
X170570199Y-146639079D01*
X171277305Y-145931972D01*
X172055123Y-146709790D01*
G37*
X321113038Y-29065881D02*
X319613038Y-29065881D01*
X319613038Y-17865881D01*
X321113038Y-17865881D01*
X321113038Y-29065881D01*
G36*
X321113038Y-29065881D02*
G01*
X319613038Y-29065881D01*
X319613038Y-17865881D01*
X321113038Y-17865881D01*
X321113038Y-29065881D01*
G37*
X278280761Y-88935177D02*
X279200000Y-88864466D01*
X281462741Y-91127208D01*
X281462741Y-92117157D01*
X281745584Y-92400000D01*
X281038477Y-93107107D01*
X280755634Y-92824264D01*
X279765685Y-92824264D01*
X277502943Y-90561522D01*
X277502943Y-89712994D01*
X277220101Y-89430151D01*
X277997918Y-88652334D01*
X278280761Y-88935177D01*
G36*
X278280761Y-88935177D02*
G01*
X279200000Y-88864466D01*
X281462741Y-91127208D01*
X281462741Y-92117157D01*
X281745584Y-92400000D01*
X281038477Y-93107107D01*
X280755634Y-92824264D01*
X279765685Y-92824264D01*
X277502943Y-90561522D01*
X277502943Y-89712994D01*
X277220101Y-89430151D01*
X277997918Y-88652334D01*
X278280761Y-88935177D01*
G37*
X305930434Y-29065881D02*
X304430434Y-29065881D01*
X304430434Y-17865881D01*
X305930434Y-17865881D01*
X305930434Y-29065881D01*
G36*
X305930434Y-29065881D02*
G01*
X304430434Y-29065881D01*
X304430434Y-17865881D01*
X305930434Y-17865881D01*
X305930434Y-29065881D01*
G37*
X254060660Y-127005026D02*
X254979899Y-126934315D01*
X257242640Y-129197057D01*
X257242640Y-130187006D01*
X257525483Y-130469849D01*
X256818376Y-131176956D01*
X256535533Y-130894113D01*
X255545584Y-130894113D01*
X253282842Y-128631371D01*
X253282842Y-127782843D01*
X253000000Y-127500000D01*
X253777817Y-126722183D01*
X254060660Y-127005026D01*
G36*
X254060660Y-127005026D02*
G01*
X254979899Y-126934315D01*
X257242640Y-129197057D01*
X257242640Y-130187006D01*
X257525483Y-130469849D01*
X256818376Y-131176956D01*
X256535533Y-130894113D01*
X255545584Y-130894113D01*
X253282842Y-128631371D01*
X253282842Y-127782843D01*
X253000000Y-127500000D01*
X253777817Y-126722183D01*
X254060660Y-127005026D01*
G37*
X62700000Y-66500000D02*
X63100000Y-66500000D01*
X63100000Y-67500000D01*
X62700000Y-67500000D01*
X62000000Y-68200000D01*
X58800000Y-68200000D01*
X58200000Y-67600000D01*
X57800000Y-67600000D01*
X57800000Y-66500000D01*
X58200000Y-66500000D01*
X58800000Y-65800000D01*
X62000000Y-65800000D01*
X62700000Y-66500000D01*
G36*
X62700000Y-66500000D02*
G01*
X63100000Y-66500000D01*
X63100000Y-67500000D01*
X62700000Y-67500000D01*
X62000000Y-68200000D01*
X58800000Y-68200000D01*
X58200000Y-67600000D01*
X57800000Y-67600000D01*
X57800000Y-66500000D01*
X58200000Y-66500000D01*
X58800000Y-65800000D01*
X62000000Y-65800000D01*
X62700000Y-66500000D01*
G37*
X258762043Y-165117873D02*
X259681282Y-165047163D01*
X260300000Y-165665881D01*
X261661181Y-165047163D01*
X261908668Y-165294650D01*
X262218027Y-165604009D01*
X261537437Y-166903318D01*
X262156155Y-167522036D01*
X260459099Y-169219093D01*
X257984225Y-166744219D01*
X258054936Y-165824980D01*
X257701383Y-165471428D01*
X258408489Y-164764320D01*
X258762043Y-165117873D01*
G36*
X258762043Y-165117873D02*
G01*
X259681282Y-165047163D01*
X260300000Y-165665881D01*
X261661181Y-165047163D01*
X261908668Y-165294650D01*
X262218027Y-165604009D01*
X261537437Y-166903318D01*
X262156155Y-167522036D01*
X260459099Y-169219093D01*
X257984225Y-166744219D01*
X258054936Y-165824980D01*
X257701383Y-165471428D01*
X258408489Y-164764320D01*
X258762043Y-165117873D01*
G37*
X328874874Y-77274874D02*
X328804163Y-78194113D01*
X329157717Y-78547666D01*
X328450610Y-79254773D01*
X328097057Y-78901220D01*
X327177818Y-78971930D01*
X324702944Y-76497057D01*
X326400000Y-74800000D01*
X328874874Y-77274874D01*
G36*
X328874874Y-77274874D02*
G01*
X328804163Y-78194113D01*
X329157717Y-78547666D01*
X328450610Y-79254773D01*
X328097057Y-78901220D01*
X327177818Y-78971930D01*
X324702944Y-76497057D01*
X326400000Y-74800000D01*
X328874874Y-77274874D01*
G37*
X349585088Y-70110571D02*
X350504327Y-70039861D01*
X351123045Y-70658579D01*
X352484226Y-70039861D01*
X352731713Y-70287348D01*
X353041072Y-70596707D01*
X352360482Y-71896016D01*
X352979200Y-72514734D01*
X351282144Y-74211791D01*
X348807270Y-71736917D01*
X348877981Y-70817678D01*
X348524428Y-70464125D01*
X349231534Y-69757018D01*
X349585088Y-70110571D01*
G36*
X349585088Y-70110571D02*
G01*
X350504327Y-70039861D01*
X351123045Y-70658579D01*
X352484226Y-70039861D01*
X352731713Y-70287348D01*
X353041072Y-70596707D01*
X352360482Y-71896016D01*
X352979200Y-72514734D01*
X351282144Y-74211791D01*
X348807270Y-71736917D01*
X348877981Y-70817678D01*
X348524428Y-70464125D01*
X349231534Y-69757018D01*
X349585088Y-70110571D01*
G37*
X113900000Y-66500000D02*
X114300000Y-66500000D01*
X114300000Y-67500000D01*
X113900000Y-67500000D01*
X113200000Y-68200000D01*
X110000000Y-68200000D01*
X109400000Y-67600000D01*
X109000000Y-67600000D01*
X109000000Y-66500000D01*
X109400000Y-66500000D01*
X110000000Y-65800000D01*
X113200000Y-65800000D01*
X113900000Y-66500000D01*
G36*
X113900000Y-66500000D02*
G01*
X114300000Y-66500000D01*
X114300000Y-67500000D01*
X113900000Y-67500000D01*
X113200000Y-68200000D01*
X110000000Y-68200000D01*
X109400000Y-67600000D01*
X109000000Y-67600000D01*
X109000000Y-66500000D01*
X109400000Y-66500000D01*
X110000000Y-65800000D01*
X113200000Y-65800000D01*
X113900000Y-66500000D01*
G37*
X333765208Y-29065881D02*
X332265208Y-29065881D01*
X332265208Y-17865881D01*
X333765208Y-17865881D01*
X333765208Y-29065881D01*
G36*
X333765208Y-29065881D02*
G01*
X332265208Y-29065881D01*
X332265208Y-17865881D01*
X333765208Y-17865881D01*
X333765208Y-29065881D01*
G37*
X93000000Y-172700000D02*
X92929289Y-173619239D01*
X93282842Y-173972792D01*
X92575736Y-174679899D01*
X92222182Y-174326346D01*
X91302943Y-174397056D01*
X90684225Y-173778338D01*
X89323044Y-174397056D01*
X89075557Y-174149569D01*
X88766198Y-173840210D01*
X89446788Y-172540901D01*
X88828070Y-171922183D01*
X90525126Y-170225126D01*
X93000000Y-172700000D01*
G36*
X93000000Y-172700000D02*
G01*
X92929289Y-173619239D01*
X93282842Y-173972792D01*
X92575736Y-174679899D01*
X92222182Y-174326346D01*
X91302943Y-174397056D01*
X90684225Y-173778338D01*
X89323044Y-174397056D01*
X89075557Y-174149569D01*
X88766198Y-173840210D01*
X89446788Y-172540901D01*
X88828070Y-171922183D01*
X90525126Y-170225126D01*
X93000000Y-172700000D01*
G37*
X225558408Y-146124345D02*
X226477647Y-146053635D01*
X227096365Y-146672353D01*
X228457546Y-146053635D01*
X228705033Y-146301122D01*
X229014392Y-146610481D01*
X228333802Y-147909790D01*
X228952520Y-148528508D01*
X227255464Y-150225565D01*
X224780590Y-147750691D01*
X224851301Y-146831452D01*
X224497748Y-146477899D01*
X225204854Y-145770792D01*
X225558408Y-146124345D01*
G36*
X225558408Y-146124345D02*
G01*
X226477647Y-146053635D01*
X227096365Y-146672353D01*
X228457546Y-146053635D01*
X228705033Y-146301122D01*
X229014392Y-146610481D01*
X228333802Y-147909790D01*
X228952520Y-148528508D01*
X227255464Y-150225565D01*
X224780590Y-147750691D01*
X224851301Y-146831452D01*
X224497748Y-146477899D01*
X225204854Y-145770792D01*
X225558408Y-146124345D01*
G37*
X353107107Y-89485787D02*
X352400000Y-90192893D01*
X352400000Y-90900000D01*
X352894975Y-91394975D01*
X351127208Y-93162742D01*
X348723045Y-90758579D01*
X350490812Y-88990812D01*
X350985786Y-89485787D01*
X351622183Y-89415076D01*
X352329289Y-88707969D01*
X353107107Y-89485787D01*
G36*
X353107107Y-89485787D02*
G01*
X352400000Y-90192893D01*
X352400000Y-90900000D01*
X352894975Y-91394975D01*
X351127208Y-93162742D01*
X348723045Y-90758579D01*
X350490812Y-88990812D01*
X350985786Y-89485787D01*
X351622183Y-89415076D01*
X352329289Y-88707969D01*
X353107107Y-89485787D01*
G37*
X251700000Y-75000000D02*
X248200000Y-75000000D01*
X247600000Y-74300000D01*
X247100000Y-74300000D01*
X247100000Y-73300000D01*
X247600000Y-73300000D01*
X248200000Y-72600000D01*
X251700000Y-72600000D01*
X251700000Y-75000000D01*
G36*
X251700000Y-75000000D02*
G01*
X248200000Y-75000000D01*
X247600000Y-74300000D01*
X247100000Y-74300000D01*
X247100000Y-73300000D01*
X247600000Y-73300000D01*
X248200000Y-72600000D01*
X251700000Y-72600000D01*
X251700000Y-75000000D01*
G37*
X336295642Y-29065881D02*
X334795642Y-29065881D01*
X334795642Y-17865881D01*
X336295642Y-17865881D01*
X336295642Y-29065881D01*
G36*
X336295642Y-29065881D02*
G01*
X334795642Y-29065881D01*
X334795642Y-17865881D01*
X336295642Y-17865881D01*
X336295642Y-29065881D01*
G37*
X63923401Y-127367767D02*
X64842640Y-127297057D01*
X67317514Y-129771930D01*
X65620458Y-131468987D01*
X63145584Y-128994113D01*
X63216295Y-128074874D01*
X62862741Y-127721321D01*
X63569848Y-127014214D01*
X63923401Y-127367767D01*
G36*
X63923401Y-127367767D02*
G01*
X64842640Y-127297057D01*
X67317514Y-129771930D01*
X65620458Y-131468987D01*
X63145584Y-128994113D01*
X63216295Y-128074874D01*
X62862741Y-127721321D01*
X63569848Y-127014214D01*
X63923401Y-127367767D01*
G37*
X343886944Y-29065881D02*
X342386944Y-29065881D01*
X342386944Y-17865881D01*
X343886944Y-17865881D01*
X343886944Y-29065881D01*
G36*
X343886944Y-29065881D02*
G01*
X342386944Y-29065881D01*
X342386944Y-17865881D01*
X343886944Y-17865881D01*
X343886944Y-29065881D01*
G37*
X390540735Y-129440735D02*
X390470024Y-130359974D01*
X390823578Y-130713527D01*
X390116471Y-131420634D01*
X389762918Y-131067081D01*
X388843679Y-131137791D01*
X386368805Y-128662918D01*
X388065861Y-126965861D01*
X390540735Y-129440735D01*
G36*
X390540735Y-129440735D02*
G01*
X390470024Y-130359974D01*
X390823578Y-130713527D01*
X390116471Y-131420634D01*
X389762918Y-131067081D01*
X388843679Y-131137791D01*
X386368805Y-128662918D01*
X388065861Y-126965861D01*
X390540735Y-129440735D01*
G37*
X299700000Y-68100000D02*
X300400000Y-68500000D01*
X300400000Y-72500000D01*
X299700000Y-72500000D01*
X299700000Y-69100000D01*
X298300000Y-69100000D01*
X298300000Y-71400000D01*
X297700000Y-71400000D01*
X297700000Y-68600000D01*
X298400000Y-68000000D01*
X298400000Y-67400000D01*
X299700000Y-67400000D01*
X299700000Y-68100000D01*
G36*
X299700000Y-68100000D02*
G01*
X300400000Y-68500000D01*
X300400000Y-72500000D01*
X299700000Y-72500000D01*
X299700000Y-69100000D01*
X298300000Y-69100000D01*
X298300000Y-71400000D01*
X297700000Y-71400000D01*
X297700000Y-68600000D01*
X298400000Y-68000000D01*
X298400000Y-67400000D01*
X299700000Y-67400000D01*
X299700000Y-68100000D01*
G37*
X361600000Y-29065881D02*
X360100000Y-29065881D01*
X360100000Y-17865881D01*
X361600000Y-17865881D01*
X361600000Y-29065881D01*
G36*
X361600000Y-29065881D02*
G01*
X360100000Y-29065881D01*
X360100000Y-17865881D01*
X361600000Y-17865881D01*
X361600000Y-29065881D01*
G37*
X126024784Y-89079200D02*
X126944023Y-89008490D01*
X127562741Y-89627208D01*
X128923922Y-89008490D01*
X129171409Y-89255977D01*
X129480768Y-89565336D01*
X128800178Y-90864645D01*
X129418896Y-91483363D01*
X127721840Y-93180420D01*
X125246966Y-90705546D01*
X125317677Y-89786307D01*
X124964124Y-89432754D01*
X125671230Y-88725647D01*
X126024784Y-89079200D01*
G36*
X126024784Y-89079200D02*
G01*
X126944023Y-89008490D01*
X127562741Y-89627208D01*
X128923922Y-89008490D01*
X129171409Y-89255977D01*
X129480768Y-89565336D01*
X128800178Y-90864645D01*
X129418896Y-91483363D01*
X127721840Y-93180420D01*
X125246966Y-90705546D01*
X125317677Y-89786307D01*
X124964124Y-89432754D01*
X125671230Y-88725647D01*
X126024784Y-89079200D01*
G37*
X32660660Y-132405026D02*
X33579899Y-132334315D01*
X35842640Y-134597057D01*
X35842640Y-135587006D01*
X36125483Y-135869849D01*
X35418376Y-136576956D01*
X35135533Y-136294113D01*
X34145584Y-136294113D01*
X31882842Y-134031371D01*
X31882842Y-133182843D01*
X31600000Y-132900000D01*
X32377817Y-132122183D01*
X32660660Y-132405026D01*
G36*
X32660660Y-132405026D02*
G01*
X33579899Y-132334315D01*
X35842640Y-134597057D01*
X35842640Y-135587006D01*
X36125483Y-135869849D01*
X35418376Y-136576956D01*
X35135533Y-136294113D01*
X34145584Y-136294113D01*
X31882842Y-134031371D01*
X31882842Y-133182843D01*
X31600000Y-132900000D01*
X32377817Y-132122183D01*
X32660660Y-132405026D01*
G37*
X238763961Y-127497057D02*
X238056854Y-128204163D01*
X238056854Y-128911270D01*
X238551829Y-129406245D01*
X236784062Y-131174012D01*
X234379899Y-128769849D01*
X236147666Y-127002082D01*
X236642640Y-127497057D01*
X237279037Y-127426346D01*
X237986143Y-126719239D01*
X238763961Y-127497057D01*
G36*
X238763961Y-127497057D02*
G01*
X238056854Y-128204163D01*
X238056854Y-128911270D01*
X238551829Y-129406245D01*
X236784062Y-131174012D01*
X234379899Y-128769849D01*
X236147666Y-127002082D01*
X236642640Y-127497057D01*
X237279037Y-127426346D01*
X237986143Y-126719239D01*
X238763961Y-127497057D01*
G37*
X124362741Y-96427208D02*
X124292030Y-97346447D01*
X124645583Y-97700000D01*
X123938477Y-98407107D01*
X123584923Y-98053554D01*
X122665684Y-98124264D01*
X122046966Y-97505546D01*
X120685785Y-98124264D01*
X120438298Y-97876777D01*
X120128939Y-97567418D01*
X120809529Y-96268109D01*
X120190811Y-95649391D01*
X121887867Y-93952334D01*
X124362741Y-96427208D01*
G36*
X124362741Y-96427208D02*
G01*
X124292030Y-97346447D01*
X124645583Y-97700000D01*
X123938477Y-98407107D01*
X123584923Y-98053554D01*
X122665684Y-98124264D01*
X122046966Y-97505546D01*
X120685785Y-98124264D01*
X120438298Y-97876777D01*
X120128939Y-97567418D01*
X120809529Y-96268109D01*
X120190811Y-95649391D01*
X121887867Y-93952334D01*
X124362741Y-96427208D01*
G37*
X249474873Y-107976598D02*
X250394112Y-107905888D01*
X252868986Y-110380761D01*
X251171930Y-112077818D01*
X248697056Y-109602944D01*
X248767767Y-108683705D01*
X248414213Y-108330152D01*
X249121320Y-107623045D01*
X249474873Y-107976598D01*
G36*
X249474873Y-107976598D02*
G01*
X250394112Y-107905888D01*
X252868986Y-110380761D01*
X251171930Y-112077818D01*
X248697056Y-109602944D01*
X248767767Y-108683705D01*
X248414213Y-108330152D01*
X249121320Y-107623045D01*
X249474873Y-107976598D01*
G37*
X152650268Y-115562043D02*
X152579557Y-116481282D01*
X152933110Y-116834835D01*
X152226004Y-117541942D01*
X151872450Y-117188389D01*
X150953211Y-117259099D01*
X150334493Y-116640381D01*
X148973312Y-117259099D01*
X148725825Y-117011612D01*
X148416466Y-116702253D01*
X149097056Y-115402944D01*
X148478338Y-114784226D01*
X150175394Y-113087169D01*
X152650268Y-115562043D01*
G36*
X152650268Y-115562043D02*
G01*
X152579557Y-116481282D01*
X152933110Y-116834835D01*
X152226004Y-117541942D01*
X151872450Y-117188389D01*
X150953211Y-117259099D01*
X150334493Y-116640381D01*
X148973312Y-117259099D01*
X148725825Y-117011612D01*
X148416466Y-116702253D01*
X149097056Y-115402944D01*
X148478338Y-114784226D01*
X150175394Y-113087169D01*
X152650268Y-115562043D01*
G37*
X162563961Y-127697057D02*
X161856854Y-128404163D01*
X161856854Y-129111270D01*
X162351829Y-129606245D01*
X160584062Y-131374012D01*
X158179899Y-128969849D01*
X159947666Y-127202082D01*
X160442640Y-127697057D01*
X161079037Y-127626346D01*
X161786143Y-126919239D01*
X162563961Y-127697057D01*
G36*
X162563961Y-127697057D02*
G01*
X161856854Y-128404163D01*
X161856854Y-129111270D01*
X162351829Y-129606245D01*
X160584062Y-131374012D01*
X158179899Y-128969849D01*
X159947666Y-127202082D01*
X160442640Y-127697057D01*
X161079037Y-127626346D01*
X161786143Y-126919239D01*
X162563961Y-127697057D01*
G37*
X253818020Y-170107969D02*
X254737259Y-170037258D01*
X257000000Y-172300000D01*
X257000000Y-173289949D01*
X257282843Y-173572792D01*
X256575736Y-174279899D01*
X256292893Y-173997056D01*
X255302944Y-173997056D01*
X253040202Y-171734314D01*
X253040202Y-170885786D01*
X252757360Y-170602943D01*
X253535177Y-169825126D01*
X253818020Y-170107969D01*
G36*
X253818020Y-170107969D02*
G01*
X254737259Y-170037258D01*
X257000000Y-172300000D01*
X257000000Y-173289949D01*
X257282843Y-173572792D01*
X256575736Y-174279899D01*
X256292893Y-173997056D01*
X255302944Y-173997056D01*
X253040202Y-171734314D01*
X253040202Y-170885786D01*
X252757360Y-170602943D01*
X253535177Y-169825126D01*
X253818020Y-170107969D01*
G37*
X252542640Y-134397057D02*
X252471929Y-135316296D01*
X252825482Y-135669849D01*
X252118376Y-136376956D01*
X251764822Y-136023403D01*
X250845583Y-136094113D01*
X250226865Y-135475395D01*
X248865684Y-136094113D01*
X248618197Y-135846626D01*
X248308838Y-135537267D01*
X248989428Y-134237958D01*
X248370710Y-133619240D01*
X250067766Y-131922183D01*
X252542640Y-134397057D01*
G36*
X252542640Y-134397057D02*
G01*
X252471929Y-135316296D01*
X252825482Y-135669849D01*
X252118376Y-136376956D01*
X251764822Y-136023403D01*
X250845583Y-136094113D01*
X250226865Y-135475395D01*
X248865684Y-136094113D01*
X248618197Y-135846626D01*
X248308838Y-135537267D01*
X248989428Y-134237958D01*
X248370710Y-133619240D01*
X250067766Y-131922183D01*
X252542640Y-134397057D01*
G37*
X361874874Y-155174874D02*
X361804163Y-156094113D01*
X362157717Y-156447666D01*
X361450610Y-157154773D01*
X361097057Y-156801220D01*
X360177818Y-156871930D01*
X357702944Y-154397057D01*
X359400000Y-152700000D01*
X361874874Y-155174874D01*
G36*
X361874874Y-155174874D02*
G01*
X361804163Y-156094113D01*
X362157717Y-156447666D01*
X361450610Y-157154773D01*
X361097057Y-156801220D01*
X360177818Y-156871930D01*
X357702944Y-154397057D01*
X359400000Y-152700000D01*
X361874874Y-155174874D01*
G37*
X187477817Y-112973654D02*
X188397056Y-112902944D01*
X190871930Y-115377817D01*
X189174874Y-117074874D01*
X186700000Y-114600000D01*
X186770711Y-113680761D01*
X186417157Y-113327208D01*
X187124264Y-112620101D01*
X187477817Y-112973654D01*
G36*
X187477817Y-112973654D02*
G01*
X188397056Y-112902944D01*
X190871930Y-115377817D01*
X189174874Y-117074874D01*
X186700000Y-114600000D01*
X186770711Y-113680761D01*
X186417157Y-113327208D01*
X187124264Y-112620101D01*
X187477817Y-112973654D01*
G37*
X68351822Y-151317759D02*
X69271061Y-151247048D01*
X71533802Y-153509790D01*
X71533802Y-154499739D01*
X71816645Y-154782582D01*
X71109538Y-155489689D01*
X70826695Y-155206846D01*
X69836746Y-155206846D01*
X67574004Y-152944104D01*
X67574004Y-152095576D01*
X67291162Y-151812733D01*
X68068979Y-151034916D01*
X68351822Y-151317759D01*
G36*
X68351822Y-151317759D02*
G01*
X69271061Y-151247048D01*
X71533802Y-153509790D01*
X71533802Y-154499739D01*
X71816645Y-154782582D01*
X71109538Y-155489689D01*
X70826695Y-155206846D01*
X69836746Y-155206846D01*
X67574004Y-152944104D01*
X67574004Y-152095576D01*
X67291162Y-151812733D01*
X68068979Y-151034916D01*
X68351822Y-151317759D01*
G37*
X62168287Y-108294276D02*
X62415774Y-108541763D01*
X61797056Y-109902944D01*
X62415774Y-110521662D01*
X62345064Y-111440901D01*
X62698617Y-111794455D01*
X61991509Y-112501561D01*
X61637957Y-112148008D01*
X60718718Y-112218719D01*
X58243844Y-109743845D01*
X59940901Y-108046789D01*
X60559619Y-108665507D01*
X61858928Y-107984917D01*
X62168287Y-108294276D01*
G36*
X62168287Y-108294276D02*
G01*
X62415774Y-108541763D01*
X61797056Y-109902944D01*
X62415774Y-110521662D01*
X62345064Y-111440901D01*
X62698617Y-111794455D01*
X61991509Y-112501561D01*
X61637957Y-112148008D01*
X60718718Y-112218719D01*
X58243844Y-109743845D01*
X59940901Y-108046789D01*
X60559619Y-108665507D01*
X61858928Y-107984917D01*
X62168287Y-108294276D01*
G37*
X316052170Y-29065881D02*
X314552170Y-29065881D01*
X314552170Y-17865881D01*
X316052170Y-17865881D01*
X316052170Y-29065881D01*
G36*
X316052170Y-29065881D02*
G01*
X314552170Y-29065881D01*
X314552170Y-17865881D01*
X316052170Y-17865881D01*
X316052170Y-29065881D01*
G37*
X261833802Y-153409790D02*
X261763091Y-154329029D01*
X262116644Y-154682582D01*
X261409538Y-155389689D01*
X261055984Y-155036136D01*
X260136745Y-155106846D01*
X259518027Y-154488128D01*
X258156846Y-155106846D01*
X257909359Y-154859359D01*
X257600000Y-154550000D01*
X258280590Y-153250691D01*
X257661872Y-152631973D01*
X259358928Y-150934916D01*
X261833802Y-153409790D01*
G36*
X261833802Y-153409790D02*
G01*
X261763091Y-154329029D01*
X262116644Y-154682582D01*
X261409538Y-155389689D01*
X261055984Y-155036136D01*
X260136745Y-155106846D01*
X259518027Y-154488128D01*
X258156846Y-155106846D01*
X257909359Y-154859359D01*
X257600000Y-154550000D01*
X258280590Y-153250691D01*
X257661872Y-152631973D01*
X259358928Y-150934916D01*
X261833802Y-153409790D01*
G37*
X244598878Y-146070703D02*
X245518117Y-145999992D01*
X247780858Y-148262734D01*
X247780858Y-149252683D01*
X248063701Y-149535526D01*
X247356594Y-150242633D01*
X247073751Y-149959790D01*
X246083802Y-149959790D01*
X243821060Y-147697048D01*
X243821060Y-146848520D01*
X243538218Y-146565677D01*
X244316035Y-145787860D01*
X244598878Y-146070703D01*
G36*
X244598878Y-146070703D02*
G01*
X245518117Y-145999992D01*
X247780858Y-148262734D01*
X247780858Y-149252683D01*
X248063701Y-149535526D01*
X247356594Y-150242633D01*
X247073751Y-149959790D01*
X246083802Y-149959790D01*
X243821060Y-147697048D01*
X243821060Y-146848520D01*
X243538218Y-146565677D01*
X244316035Y-145787860D01*
X244598878Y-146070703D01*
G37*
X368457106Y-108152943D02*
X369376345Y-108082233D01*
X371851219Y-110557106D01*
X370154163Y-112254163D01*
X367679289Y-109779289D01*
X367750000Y-108860050D01*
X367396446Y-108506497D01*
X368103553Y-107799390D01*
X368457106Y-108152943D01*
G36*
X368457106Y-108152943D02*
G01*
X369376345Y-108082233D01*
X371851219Y-110557106D01*
X370154163Y-112254163D01*
X367679289Y-109779289D01*
X367750000Y-108860050D01*
X367396446Y-108506497D01*
X368103553Y-107799390D01*
X368457106Y-108152943D01*
G37*
X53384062Y-89627208D02*
X52676955Y-90334314D01*
X52676955Y-91041421D01*
X53171930Y-91536396D01*
X51404163Y-93304163D01*
X49000000Y-90900000D01*
X50767767Y-89132233D01*
X51262741Y-89627208D01*
X51899138Y-89556497D01*
X52606244Y-88849390D01*
X53384062Y-89627208D01*
G36*
X53384062Y-89627208D02*
G01*
X52676955Y-90334314D01*
X52676955Y-91041421D01*
X53171930Y-91536396D01*
X51404163Y-93304163D01*
X49000000Y-90900000D01*
X50767767Y-89132233D01*
X51262741Y-89627208D01*
X51899138Y-89556497D01*
X52606244Y-88849390D01*
X53384062Y-89627208D01*
G37*
X77923401Y-132367767D02*
X78842640Y-132297057D01*
X81317514Y-134771930D01*
X79620458Y-136468987D01*
X77145584Y-133994113D01*
X77216295Y-133074874D01*
X76862741Y-132721321D01*
X77569848Y-132014214D01*
X77923401Y-132367767D01*
G36*
X77923401Y-132367767D02*
G01*
X78842640Y-132297057D01*
X81317514Y-134771930D01*
X79620458Y-136468987D01*
X77145584Y-133994113D01*
X77216295Y-133074874D01*
X76862741Y-132721321D01*
X77569848Y-132014214D01*
X77923401Y-132367767D01*
G37*
X171694112Y-115405888D02*
X171623401Y-116325127D01*
X171976955Y-116678680D01*
X171269848Y-117385787D01*
X170916296Y-117032234D01*
X169997056Y-117102944D01*
X167522182Y-114628071D01*
X169219239Y-112931014D01*
X171694112Y-115405888D01*
G36*
X171694112Y-115405888D02*
G01*
X171623401Y-116325127D01*
X171976955Y-116678680D01*
X171269848Y-117385787D01*
X170916296Y-117032234D01*
X169997056Y-117102944D01*
X167522182Y-114628071D01*
X169219239Y-112931014D01*
X171694112Y-115405888D01*
G37*
X62219595Y-134638478D02*
X60451828Y-136406245D01*
X59956854Y-135911270D01*
X59320457Y-135981981D01*
X58613351Y-136689088D01*
X57835533Y-135911270D01*
X58542640Y-135204164D01*
X58542640Y-134497057D01*
X58047665Y-134002082D01*
X59815432Y-132234315D01*
X62219595Y-134638478D01*
G36*
X62219595Y-134638478D02*
G01*
X60451828Y-136406245D01*
X59956854Y-135911270D01*
X59320457Y-135981981D01*
X58613351Y-136689088D01*
X57835533Y-135911270D01*
X58542640Y-135204164D01*
X58542640Y-134497057D01*
X58047665Y-134002082D01*
X59815432Y-132234315D01*
X62219595Y-134638478D01*
G37*
X325914466Y-167656140D02*
X326833705Y-167585429D01*
X329096446Y-169848171D01*
X329096446Y-170838120D01*
X329379289Y-171120963D01*
X328672182Y-171828070D01*
X328389339Y-171545227D01*
X327399390Y-171545227D01*
X325136648Y-169282485D01*
X325136648Y-168433957D01*
X324853806Y-168151114D01*
X325631623Y-167373297D01*
X325914466Y-167656140D01*
G36*
X325914466Y-167656140D02*
G01*
X326833705Y-167585429D01*
X329096446Y-169848171D01*
X329096446Y-170838120D01*
X329379289Y-171120963D01*
X328672182Y-171828070D01*
X328389339Y-171545227D01*
X327399390Y-171545227D01*
X325136648Y-169282485D01*
X325136648Y-168433957D01*
X324853806Y-168151114D01*
X325631623Y-167373297D01*
X325914466Y-167656140D01*
G37*
X252100000Y-66200000D02*
X252500000Y-66200000D01*
X252500000Y-67200000D01*
X252100000Y-67200000D01*
X251400000Y-67900000D01*
X248200000Y-67900000D01*
X247600000Y-67300000D01*
X247200000Y-67300000D01*
X247200000Y-66200000D01*
X247600000Y-66200000D01*
X248200000Y-65500000D01*
X251400000Y-65500000D01*
X252100000Y-66200000D01*
G36*
X252100000Y-66200000D02*
G01*
X252500000Y-66200000D01*
X252500000Y-67200000D01*
X252100000Y-67200000D01*
X251400000Y-67900000D01*
X248200000Y-67900000D01*
X247600000Y-67300000D01*
X247200000Y-67300000D01*
X247200000Y-66200000D01*
X247600000Y-66200000D01*
X248200000Y-65500000D01*
X251400000Y-65500000D01*
X252100000Y-66200000D01*
G37*
X230100960Y-170290910D02*
X231020199Y-170220199D01*
X233282940Y-172482941D01*
X233282940Y-173472890D01*
X233565783Y-173755733D01*
X232858676Y-174462840D01*
X232575833Y-174179997D01*
X231585884Y-174179997D01*
X229323142Y-171917255D01*
X229323142Y-171068727D01*
X229040300Y-170785884D01*
X229818117Y-170008067D01*
X230100960Y-170290910D01*
G36*
X230100960Y-170290910D02*
G01*
X231020199Y-170220199D01*
X233282940Y-172482941D01*
X233282940Y-173472890D01*
X233565783Y-173755733D01*
X232858676Y-174462840D01*
X232575833Y-174179997D01*
X231585884Y-174179997D01*
X229323142Y-171917255D01*
X229323142Y-171068727D01*
X229040300Y-170785884D01*
X229818117Y-170008067D01*
X230100960Y-170290910D01*
G37*
X76494112Y-115505888D02*
X76423401Y-116425127D01*
X76776955Y-116778680D01*
X76069848Y-117485787D01*
X75716296Y-117132234D01*
X74797056Y-117202944D01*
X72322182Y-114728071D01*
X74019239Y-113031014D01*
X76494112Y-115505888D01*
G36*
X76494112Y-115505888D02*
G01*
X76423401Y-116425127D01*
X76776955Y-116778680D01*
X76069848Y-117485787D01*
X75716296Y-117132234D01*
X74797056Y-117202944D01*
X72322182Y-114728071D01*
X74019239Y-113031014D01*
X76494112Y-115505888D01*
G37*
X147833802Y-153609790D02*
X147763091Y-154529029D01*
X148116644Y-154882582D01*
X147409538Y-155589689D01*
X147055984Y-155236136D01*
X146136745Y-155306846D01*
X145518027Y-154688128D01*
X144156846Y-155306846D01*
X143909359Y-155059359D01*
X143600000Y-154750000D01*
X144280590Y-153450691D01*
X143661872Y-152831973D01*
X145358928Y-151134916D01*
X147833802Y-153609790D01*
G36*
X147833802Y-153609790D02*
G01*
X147763091Y-154529029D01*
X148116644Y-154882582D01*
X147409538Y-155589689D01*
X147055984Y-155236136D01*
X146136745Y-155306846D01*
X145518027Y-154688128D01*
X144156846Y-155306846D01*
X143909359Y-155059359D01*
X143600000Y-154750000D01*
X144280590Y-153450691D01*
X143661872Y-152831973D01*
X145358928Y-151134916D01*
X147833802Y-153609790D01*
G37*
X367100000Y-77304163D02*
X365332233Y-79071930D01*
X364837259Y-78576955D01*
X364200862Y-78647666D01*
X363493756Y-79354773D01*
X362715938Y-78576955D01*
X363423045Y-77869849D01*
X363423045Y-77162742D01*
X362928070Y-76667767D01*
X364695837Y-74900000D01*
X367100000Y-77304163D01*
G36*
X367100000Y-77304163D02*
G01*
X365332233Y-79071930D01*
X364837259Y-78576955D01*
X364200862Y-78647666D01*
X363493756Y-79354773D01*
X362715938Y-78576955D01*
X363423045Y-77869849D01*
X363423045Y-77162742D01*
X362928070Y-76667767D01*
X364695837Y-74900000D01*
X367100000Y-77304163D01*
G37*
X295839696Y-96068629D02*
X294071929Y-97836396D01*
X293576955Y-97341421D01*
X292940558Y-97412132D01*
X292233452Y-98119239D01*
X291455634Y-97341421D01*
X292162741Y-96634315D01*
X292162741Y-95927208D01*
X291667766Y-95432233D01*
X293435533Y-93664466D01*
X295839696Y-96068629D01*
G36*
X295839696Y-96068629D02*
G01*
X294071929Y-97836396D01*
X293576955Y-97341421D01*
X292940558Y-97412132D01*
X292233452Y-98119239D01*
X291455634Y-97341421D01*
X292162741Y-96634315D01*
X292162741Y-95927208D01*
X291667766Y-95432233D01*
X293435533Y-93664466D01*
X295839696Y-96068629D01*
G37*
X86262741Y-96427208D02*
X86192030Y-97346447D01*
X86545583Y-97700000D01*
X85838477Y-98407107D01*
X85484923Y-98053554D01*
X84565684Y-98124264D01*
X83946966Y-97505546D01*
X82585785Y-98124264D01*
X82338298Y-97876777D01*
X82028939Y-97567418D01*
X82709529Y-96268109D01*
X82090811Y-95649391D01*
X83787867Y-93952334D01*
X86262741Y-96427208D01*
G36*
X86262741Y-96427208D02*
G01*
X86192030Y-97346447D01*
X86545583Y-97700000D01*
X85838477Y-98407107D01*
X85484923Y-98053554D01*
X84565684Y-98124264D01*
X83946966Y-97505546D01*
X82585785Y-98124264D01*
X82338298Y-97876777D01*
X82028939Y-97567418D01*
X82709529Y-96268109D01*
X82090811Y-95649391D01*
X83787867Y-93952334D01*
X86262741Y-96427208D01*
G37*
X390698097Y-108449911D02*
X390945584Y-108697398D01*
X390326866Y-110058579D01*
X390945584Y-110677297D01*
X390874874Y-111596536D01*
X391228427Y-111950090D01*
X390521320Y-112657196D01*
X390167767Y-112303643D01*
X389248528Y-112374354D01*
X386773654Y-109899480D01*
X388470711Y-108202424D01*
X389089429Y-108821142D01*
X390388738Y-108140552D01*
X390698097Y-108449911D01*
G36*
X390698097Y-108449911D02*
G01*
X390945584Y-108697398D01*
X390326866Y-110058579D01*
X390945584Y-110677297D01*
X390874874Y-111596536D01*
X391228427Y-111950090D01*
X390521320Y-112657196D01*
X390167767Y-112303643D01*
X389248528Y-112374354D01*
X386773654Y-109899480D01*
X388470711Y-108202424D01*
X389089429Y-108821142D01*
X390388738Y-108140552D01*
X390698097Y-108449911D01*
G37*
X211415076Y-108010913D02*
X212334315Y-107940202D01*
X214597056Y-110202944D01*
X214597056Y-111192893D01*
X214879899Y-111475736D01*
X214172792Y-112182843D01*
X213889949Y-111900000D01*
X212900000Y-111900000D01*
X210637258Y-109637258D01*
X210637258Y-108788730D01*
X210354416Y-108505887D01*
X211132233Y-107728070D01*
X211415076Y-108010913D01*
G36*
X211415076Y-108010913D02*
G01*
X212334315Y-107940202D01*
X214597056Y-110202944D01*
X214597056Y-111192893D01*
X214879899Y-111475736D01*
X214172792Y-112182843D01*
X213889949Y-111900000D01*
X212900000Y-111900000D01*
X210637258Y-109637258D01*
X210637258Y-108788730D01*
X210354416Y-108505887D01*
X211132233Y-107728070D01*
X211415076Y-108010913D01*
G37*
X40630858Y-153612734D02*
X40560147Y-154531973D01*
X40913701Y-154885526D01*
X40206594Y-155592633D01*
X39853042Y-155239080D01*
X38933802Y-155309790D01*
X36458928Y-152834917D01*
X38155985Y-151137860D01*
X40630858Y-153612734D01*
G36*
X40630858Y-153612734D02*
G01*
X40560147Y-154531973D01*
X40913701Y-154885526D01*
X40206594Y-155592633D01*
X39853042Y-155239080D01*
X38933802Y-155309790D01*
X36458928Y-152834917D01*
X38155985Y-151137860D01*
X40630858Y-153612734D01*
G37*
X37400000Y-66500000D02*
X37900000Y-66500000D01*
X37900000Y-67500000D01*
X37400000Y-67500000D01*
X36800000Y-68200000D01*
X33300000Y-68200000D01*
X33300000Y-65800000D01*
X36800000Y-65800000D01*
X37400000Y-66500000D01*
G36*
X37400000Y-66500000D02*
G01*
X37900000Y-66500000D01*
X37900000Y-67500000D01*
X37400000Y-67500000D01*
X36800000Y-68200000D01*
X33300000Y-68200000D01*
X33300000Y-65800000D01*
X36800000Y-65800000D01*
X37400000Y-66500000D01*
G37*
X144887347Y-88941763D02*
X145806586Y-88871053D01*
X146425304Y-89489771D01*
X147786485Y-88871053D01*
X148033972Y-89118540D01*
X148343331Y-89427899D01*
X147662741Y-90727208D01*
X148281459Y-91345926D01*
X146584403Y-93042983D01*
X144109529Y-90568109D01*
X144180240Y-89648870D01*
X143826687Y-89295317D01*
X144533793Y-88588210D01*
X144887347Y-88941763D01*
G36*
X144887347Y-88941763D02*
G01*
X145806586Y-88871053D01*
X146425304Y-89489771D01*
X147786485Y-88871053D01*
X148033972Y-89118540D01*
X148343331Y-89427899D01*
X147662741Y-90727208D01*
X148281459Y-91345926D01*
X146584403Y-93042983D01*
X144109529Y-90568109D01*
X144180240Y-89648870D01*
X143826687Y-89295317D01*
X144533793Y-88588210D01*
X144887347Y-88941763D01*
G37*
X268260660Y-132105026D02*
X269179899Y-132034315D01*
X271442640Y-134297057D01*
X271442640Y-135287006D01*
X271725483Y-135569849D01*
X271018376Y-136276956D01*
X270735533Y-135994113D01*
X269745584Y-135994113D01*
X267482842Y-133731371D01*
X267482842Y-132882843D01*
X267200000Y-132600000D01*
X267977817Y-131822183D01*
X268260660Y-132105026D01*
G36*
X268260660Y-132105026D02*
G01*
X269179899Y-132034315D01*
X271442640Y-134297057D01*
X271442640Y-135287006D01*
X271725483Y-135569849D01*
X271018376Y-136276956D01*
X270735533Y-135994113D01*
X269745584Y-135994113D01*
X267482842Y-133731371D01*
X267482842Y-132882843D01*
X267200000Y-132600000D01*
X267977817Y-131822183D01*
X268260660Y-132105026D01*
G37*
X62400000Y-75300000D02*
X58900000Y-75300000D01*
X58300000Y-74600000D01*
X57800000Y-74600000D01*
X57800000Y-73600000D01*
X58300000Y-73600000D01*
X58900000Y-72900000D01*
X62400000Y-72900000D01*
X62400000Y-75300000D01*
G36*
X62400000Y-75300000D02*
G01*
X58900000Y-75300000D01*
X58300000Y-74600000D01*
X57800000Y-74600000D01*
X57800000Y-73600000D01*
X58300000Y-73600000D01*
X58900000Y-72900000D01*
X62400000Y-72900000D01*
X62400000Y-75300000D01*
G37*
X195694112Y-110305888D02*
X195623401Y-111225127D01*
X195976955Y-111578680D01*
X195269848Y-112285787D01*
X194916296Y-111932234D01*
X193997056Y-112002944D01*
X191522182Y-109528071D01*
X193219239Y-107831014D01*
X195694112Y-110305888D01*
G36*
X195694112Y-110305888D02*
G01*
X195623401Y-111225127D01*
X195976955Y-111578680D01*
X195269848Y-112285787D01*
X194916296Y-111932234D01*
X193997056Y-112002944D01*
X191522182Y-109528071D01*
X193219239Y-107831014D01*
X195694112Y-110305888D01*
G37*
X195339696Y-134500001D02*
X195268985Y-135419240D01*
X195622539Y-135772793D01*
X194915432Y-136479900D01*
X194561880Y-136126347D01*
X193642640Y-136197057D01*
X191167766Y-133722184D01*
X192864823Y-132025127D01*
X195339696Y-134500001D01*
G36*
X195339696Y-134500001D02*
G01*
X195268985Y-135419240D01*
X195622539Y-135772793D01*
X194915432Y-136479900D01*
X194561880Y-136126347D01*
X193642640Y-136197057D01*
X191167766Y-133722184D01*
X192864823Y-132025127D01*
X195339696Y-134500001D01*
G37*
X277800000Y-73400000D02*
X278300000Y-73400000D01*
X278300000Y-74400000D01*
X277800000Y-74400000D01*
X277200000Y-75100000D01*
X273700000Y-75100000D01*
X273700000Y-72700000D01*
X277200000Y-72700000D01*
X277800000Y-73400000D01*
G36*
X277800000Y-73400000D02*
G01*
X278300000Y-73400000D01*
X278300000Y-74400000D01*
X277800000Y-74400000D01*
X277200000Y-75100000D01*
X273700000Y-75100000D01*
X273700000Y-72700000D01*
X277200000Y-72700000D01*
X277800000Y-73400000D01*
G37*
X42351822Y-146417759D02*
X43271061Y-146347048D01*
X45533802Y-148609790D01*
X45533802Y-149599739D01*
X45816645Y-149882582D01*
X45109538Y-150589689D01*
X44826695Y-150306846D01*
X43836746Y-150306846D01*
X41574004Y-148044104D01*
X41574004Y-147195576D01*
X41291162Y-146912733D01*
X42068979Y-146134916D01*
X42351822Y-146417759D01*
G36*
X42351822Y-146417759D02*
G01*
X43271061Y-146347048D01*
X45533802Y-148609790D01*
X45533802Y-149599739D01*
X45816645Y-149882582D01*
X45109538Y-150589689D01*
X44826695Y-150306846D01*
X43836746Y-150306846D01*
X41574004Y-148044104D01*
X41574004Y-147195576D01*
X41291162Y-146912733D01*
X42068979Y-146134916D01*
X42351822Y-146417759D01*
G37*
X87800000Y-68200000D02*
X84300000Y-68200000D01*
X83700000Y-67500000D01*
X83200000Y-67500000D01*
X83200000Y-66500000D01*
X83700000Y-66500000D01*
X84300000Y-65800000D01*
X87800000Y-65800000D01*
X87800000Y-68200000D01*
G36*
X87800000Y-68200000D02*
G01*
X84300000Y-68200000D01*
X83700000Y-67500000D01*
X83200000Y-67500000D01*
X83200000Y-66500000D01*
X83700000Y-66500000D01*
X84300000Y-65800000D01*
X87800000Y-65800000D01*
X87800000Y-68200000D01*
G37*
X328700000Y-134529997D02*
X328629289Y-135449236D01*
X328982842Y-135802789D01*
X328275736Y-136509896D01*
X327922182Y-136156343D01*
X327002943Y-136227053D01*
X326384225Y-135608335D01*
X325023044Y-136227053D01*
X324775557Y-135979566D01*
X324466198Y-135670207D01*
X325146788Y-134370898D01*
X324528070Y-133752180D01*
X326225126Y-132055123D01*
X328700000Y-134529997D01*
G36*
X328700000Y-134529997D02*
G01*
X328629289Y-135449236D01*
X328982842Y-135802789D01*
X328275736Y-136509896D01*
X327922182Y-136156343D01*
X327002943Y-136227053D01*
X326384225Y-135608335D01*
X325023044Y-136227053D01*
X324775557Y-135979566D01*
X324466198Y-135670207D01*
X325146788Y-134370898D01*
X324528070Y-133752180D01*
X326225126Y-132055123D01*
X328700000Y-134529997D01*
G37*
X353442284Y-177507969D02*
X354361523Y-177437258D01*
X356624264Y-179700000D01*
X356624264Y-180689949D01*
X356907107Y-180972792D01*
X356200000Y-181679899D01*
X355917157Y-181397056D01*
X354927208Y-181397056D01*
X352664466Y-179134314D01*
X352664466Y-178285786D01*
X352381624Y-178002943D01*
X353159441Y-177225126D01*
X353442284Y-177507969D01*
G36*
X353442284Y-177507969D02*
G01*
X354361523Y-177437258D01*
X356624264Y-179700000D01*
X356624264Y-180689949D01*
X356907107Y-180972792D01*
X356200000Y-181679899D01*
X355917157Y-181397056D01*
X354927208Y-181397056D01*
X352664466Y-179134314D01*
X352664466Y-178285786D01*
X352381624Y-178002943D01*
X353159441Y-177225126D01*
X353442284Y-177507969D01*
G37*
X130358408Y-146224345D02*
X131277647Y-146153635D01*
X131896365Y-146772353D01*
X133257546Y-146153635D01*
X133505033Y-146401122D01*
X133814392Y-146710481D01*
X133133802Y-148009790D01*
X133752520Y-148628508D01*
X132055464Y-150325565D01*
X129580590Y-147850691D01*
X129651301Y-146931452D01*
X129297748Y-146577899D01*
X130004854Y-145870792D01*
X130358408Y-146224345D01*
G36*
X130358408Y-146224345D02*
G01*
X131277647Y-146153635D01*
X131896365Y-146772353D01*
X133257546Y-146153635D01*
X133505033Y-146401122D01*
X133814392Y-146710481D01*
X133133802Y-148009790D01*
X133752520Y-148628508D01*
X132055464Y-150325565D01*
X129580590Y-147850691D01*
X129651301Y-146931452D01*
X129297748Y-146577899D01*
X130004854Y-145870792D01*
X130358408Y-146224345D01*
G37*
X386660757Y-162856594D02*
X387579996Y-162785884D01*
X390054870Y-165260757D01*
X388357814Y-166957814D01*
X385882940Y-164482940D01*
X385953651Y-163563701D01*
X385600097Y-163210148D01*
X386307204Y-162503041D01*
X386660757Y-162856594D01*
G36*
X386660757Y-162856594D02*
G01*
X387579996Y-162785884D01*
X390054870Y-165260757D01*
X388357814Y-166957814D01*
X385882940Y-164482940D01*
X385953651Y-163563701D01*
X385600097Y-163210148D01*
X386307204Y-162503041D01*
X386660757Y-162856594D01*
G37*
X33787184Y-89277639D02*
X34034671Y-89525126D01*
X33415953Y-90886307D01*
X34034671Y-91505025D01*
X33963961Y-92424264D01*
X34317514Y-92777818D01*
X33610406Y-93484924D01*
X33256854Y-93131371D01*
X32337615Y-93202082D01*
X29862741Y-90727208D01*
X31559798Y-89030152D01*
X32178516Y-89648870D01*
X33477824Y-88968280D01*
X33787184Y-89277639D01*
G36*
X33787184Y-89277639D02*
G01*
X34034671Y-89525126D01*
X33415953Y-90886307D01*
X34034671Y-91505025D01*
X33963961Y-92424264D01*
X34317514Y-92777818D01*
X33610406Y-93484924D01*
X33256854Y-93131371D01*
X32337615Y-93202082D01*
X29862741Y-90727208D01*
X31559798Y-89030152D01*
X32178516Y-89648870D01*
X33477824Y-88968280D01*
X33787184Y-89277639D01*
G37*
X202140558Y-89000862D02*
X203059797Y-88930152D01*
X205534671Y-91405025D01*
X203837615Y-93102082D01*
X201362741Y-90627208D01*
X201433452Y-89707969D01*
X201079898Y-89354416D01*
X201787005Y-88647309D01*
X202140558Y-89000862D01*
G36*
X202140558Y-89000862D02*
G01*
X203059797Y-88930152D01*
X205534671Y-91405025D01*
X203837615Y-93102082D01*
X201362741Y-90627208D01*
X201433452Y-89707969D01*
X201079898Y-89354416D01*
X201787005Y-88647309D01*
X202140558Y-89000862D01*
G37*
X297808668Y-117628769D02*
X298056155Y-117876256D01*
X297437437Y-119237437D01*
X298056155Y-119856155D01*
X297985445Y-120775394D01*
X298338998Y-121128948D01*
X297631890Y-121836054D01*
X297278338Y-121482501D01*
X296359099Y-121553212D01*
X293884225Y-119078338D01*
X295581282Y-117381282D01*
X296200000Y-118000000D01*
X297499309Y-117319410D01*
X297808668Y-117628769D01*
G36*
X297808668Y-117628769D02*
G01*
X298056155Y-117876256D01*
X297437437Y-119237437D01*
X298056155Y-119856155D01*
X297985445Y-120775394D01*
X298338998Y-121128948D01*
X297631890Y-121836054D01*
X297278338Y-121482501D01*
X296359099Y-121553212D01*
X293884225Y-119078338D01*
X295581282Y-117381282D01*
X296200000Y-118000000D01*
X297499309Y-117319410D01*
X297808668Y-117628769D01*
G37*
X330802943Y-162698780D02*
X331722182Y-162628070D01*
X334197056Y-165102943D01*
X332500000Y-166800000D01*
X330025126Y-164325126D01*
X330095837Y-163405887D01*
X329742283Y-163052334D01*
X330449390Y-162345227D01*
X330802943Y-162698780D01*
G36*
X330802943Y-162698780D02*
G01*
X331722182Y-162628070D01*
X334197056Y-165102943D01*
X332500000Y-166800000D01*
X330025126Y-164325126D01*
X330095837Y-163405887D01*
X329742283Y-163052334D01*
X330449390Y-162345227D01*
X330802943Y-162698780D01*
G37*
X170200000Y-66400000D02*
X170600000Y-66400000D01*
X170600000Y-67400000D01*
X170200000Y-67400000D01*
X169500000Y-68100000D01*
X166300000Y-68100000D01*
X165700000Y-67500000D01*
X165300000Y-67500000D01*
X165300000Y-66400000D01*
X165700000Y-66400000D01*
X166300000Y-65700000D01*
X169500000Y-65700000D01*
X170200000Y-66400000D01*
G36*
X170200000Y-66400000D02*
G01*
X170600000Y-66400000D01*
X170600000Y-67400000D01*
X170200000Y-67400000D01*
X169500000Y-68100000D01*
X166300000Y-68100000D01*
X165700000Y-67500000D01*
X165300000Y-67500000D01*
X165300000Y-66400000D01*
X165700000Y-66400000D01*
X166300000Y-65700000D01*
X169500000Y-65700000D01*
X170200000Y-66400000D01*
G37*
X97215076Y-108110913D02*
X98134315Y-108040202D01*
X100397056Y-110302944D01*
X100397056Y-111292893D01*
X100679899Y-111575736D01*
X99972792Y-112282843D01*
X99689949Y-112000000D01*
X98700000Y-112000000D01*
X96437258Y-109737258D01*
X96437258Y-108888730D01*
X96154416Y-108605887D01*
X96932233Y-107828070D01*
X97215076Y-108110913D01*
G36*
X97215076Y-108110913D02*
G01*
X98134315Y-108040202D01*
X100397056Y-110302944D01*
X100397056Y-111292893D01*
X100679899Y-111575736D01*
X99972792Y-112282843D01*
X99689949Y-112000000D01*
X98700000Y-112000000D01*
X96437258Y-109737258D01*
X96437258Y-108888730D01*
X96154416Y-108605887D01*
X96932233Y-107828070D01*
X97215076Y-108110913D01*
G37*
X300984062Y-89227208D02*
X300276955Y-89934314D01*
X300276955Y-90641421D01*
X300771930Y-91136396D01*
X299004163Y-92904163D01*
X296600000Y-90500000D01*
X298367767Y-88732233D01*
X298862741Y-89227208D01*
X299499138Y-89156497D01*
X300206244Y-88449390D01*
X300984062Y-89227208D01*
G36*
X300984062Y-89227208D02*
G01*
X300276955Y-89934314D01*
X300276955Y-90641421D01*
X300771930Y-91136396D01*
X299004163Y-92904163D01*
X296600000Y-90500000D01*
X298367767Y-88732233D01*
X298862741Y-89227208D01*
X299499138Y-89156497D01*
X300206244Y-88449390D01*
X300984062Y-89227208D01*
G37*
X109710757Y-153651211D02*
X107942990Y-155418978D01*
X107448016Y-154924003D01*
X106811619Y-154994714D01*
X106104513Y-155701821D01*
X105326695Y-154924003D01*
X106033802Y-154216897D01*
X106033802Y-153509790D01*
X105538827Y-153014815D01*
X107306594Y-151247048D01*
X109710757Y-153651211D01*
G36*
X109710757Y-153651211D02*
G01*
X107942990Y-155418978D01*
X107448016Y-154924003D01*
X106811619Y-154994714D01*
X106104513Y-155701821D01*
X105326695Y-154924003D01*
X106033802Y-154216897D01*
X106033802Y-153509790D01*
X105538827Y-153014815D01*
X107306594Y-151247048D01*
X109710757Y-153651211D01*
G37*
X318582604Y-29065881D02*
X317082604Y-29065881D01*
X317082604Y-17865881D01*
X318582604Y-17865881D01*
X318582604Y-29065881D01*
G36*
X318582604Y-29065881D02*
G01*
X317082604Y-29065881D01*
X317082604Y-17865881D01*
X318582604Y-17865881D01*
X318582604Y-29065881D01*
G37*
X111358408Y-146324345D02*
X112277647Y-146253635D01*
X112896365Y-146872353D01*
X114257546Y-146253635D01*
X114505033Y-146501122D01*
X114814392Y-146810481D01*
X114133802Y-148109790D01*
X114752520Y-148728508D01*
X113055464Y-150425565D01*
X110580590Y-147950691D01*
X110651301Y-147031452D01*
X110297748Y-146677899D01*
X111004854Y-145970792D01*
X111358408Y-146324345D01*
G36*
X111358408Y-146324345D02*
G01*
X112277647Y-146253635D01*
X112896365Y-146872353D01*
X114257546Y-146253635D01*
X114505033Y-146501122D01*
X114814392Y-146810481D01*
X114133802Y-148109790D01*
X114752520Y-148728508D01*
X113055464Y-150425565D01*
X110580590Y-147950691D01*
X110651301Y-147031452D01*
X110297748Y-146677899D01*
X111004854Y-145970792D01*
X111358408Y-146324345D01*
G37*
X390897056Y-72402944D02*
X390826345Y-73322183D01*
X391179899Y-73675736D01*
X390472792Y-74382843D01*
X390119239Y-74029290D01*
X389200000Y-74100000D01*
X386725126Y-71625127D01*
X388422182Y-69928070D01*
X390897056Y-72402944D01*
G36*
X390897056Y-72402944D02*
G01*
X390826345Y-73322183D01*
X391179899Y-73675736D01*
X390472792Y-74382843D01*
X390119239Y-74029290D01*
X389200000Y-74100000D01*
X386725126Y-71625127D01*
X388422182Y-69928070D01*
X390897056Y-72402944D01*
G37*
X63780761Y-94135177D02*
X64700000Y-94064466D01*
X66962741Y-96327208D01*
X66962741Y-97317157D01*
X67245584Y-97600000D01*
X66538477Y-98307107D01*
X66255634Y-98024264D01*
X65265685Y-98024264D01*
X63002943Y-95761522D01*
X63002943Y-94912994D01*
X62720101Y-94630151D01*
X63497918Y-93852334D01*
X63780761Y-94135177D01*
G36*
X63780761Y-94135177D02*
G01*
X64700000Y-94064466D01*
X66962741Y-96327208D01*
X66962741Y-97317157D01*
X67245584Y-97600000D01*
X66538477Y-98307107D01*
X66255634Y-98024264D01*
X65265685Y-98024264D01*
X63002943Y-95761522D01*
X63002943Y-94912994D01*
X62720101Y-94630151D01*
X63497918Y-93852334D01*
X63780761Y-94135177D01*
G37*
X353607106Y-157827915D02*
X354526345Y-157757205D01*
X357001219Y-160232078D01*
X355304163Y-161929135D01*
X352829289Y-159454261D01*
X352900000Y-158535022D01*
X352546446Y-158181469D01*
X353253553Y-157474362D01*
X353607106Y-157827915D01*
G36*
X353607106Y-157827915D02*
G01*
X354526345Y-157757205D01*
X357001219Y-160232078D01*
X355304163Y-161929135D01*
X352829289Y-159454261D01*
X352900000Y-158535022D01*
X352546446Y-158181469D01*
X353253553Y-157474362D01*
X353607106Y-157827915D01*
G37*
X277800000Y-66300000D02*
X278300000Y-66300000D01*
X278300000Y-67300000D01*
X277800000Y-67300000D01*
X277200000Y-68000000D01*
X273700000Y-68000000D01*
X273700000Y-65600000D01*
X277200000Y-65600000D01*
X277800000Y-66300000D01*
G36*
X277800000Y-66300000D02*
G01*
X278300000Y-66300000D01*
X278300000Y-67300000D01*
X277800000Y-67300000D01*
X277200000Y-68000000D01*
X273700000Y-68000000D01*
X273700000Y-65600000D01*
X277200000Y-65600000D01*
X277800000Y-66300000D01*
G37*
X330618020Y-89107969D02*
X331537259Y-89037258D01*
X333800000Y-91300000D01*
X333800000Y-92289949D01*
X334082843Y-92572792D01*
X333375736Y-93279899D01*
X333092893Y-92997056D01*
X332102944Y-92997056D01*
X329840202Y-90734314D01*
X329840202Y-89885786D01*
X329557360Y-89602943D01*
X330335177Y-88825126D01*
X330618020Y-89107969D01*
G36*
X330618020Y-89107969D02*
G01*
X331537259Y-89037258D01*
X333800000Y-91300000D01*
X333800000Y-92289949D01*
X334082843Y-92572792D01*
X333375736Y-93279899D01*
X333092893Y-92997056D01*
X332102944Y-92997056D01*
X329840202Y-90734314D01*
X329840202Y-89885786D01*
X329557360Y-89602943D01*
X330335177Y-88825126D01*
X330618020Y-89107969D01*
G37*
X348100000Y-77300000D02*
X346332233Y-79067767D01*
X345837259Y-78572792D01*
X345200862Y-78643503D01*
X344493756Y-79350610D01*
X343715938Y-78572792D01*
X344423045Y-77865686D01*
X344423045Y-77158579D01*
X343928070Y-76663604D01*
X345695837Y-74895837D01*
X348100000Y-77300000D01*
G36*
X348100000Y-77300000D02*
G01*
X346332233Y-79067767D01*
X345837259Y-78572792D01*
X345200862Y-78643503D01*
X344493756Y-79350610D01*
X343715938Y-78572792D01*
X344423045Y-77865686D01*
X344423045Y-77158579D01*
X343928070Y-76663604D01*
X345695837Y-74895837D01*
X348100000Y-77300000D01*
G37*
X352921321Y-127529997D02*
X352214214Y-128237103D01*
X352214214Y-128944210D01*
X352709189Y-129439185D01*
X350941422Y-131206952D01*
X348537259Y-128802789D01*
X350305026Y-127035022D01*
X350800000Y-127529997D01*
X351436397Y-127459286D01*
X352143503Y-126752179D01*
X352921321Y-127529997D01*
G36*
X352921321Y-127529997D02*
G01*
X352214214Y-128237103D01*
X352214214Y-128944210D01*
X352709189Y-129439185D01*
X350941422Y-131206952D01*
X348537259Y-128802789D01*
X350305026Y-127035022D01*
X350800000Y-127529997D01*
X351436397Y-127459286D01*
X352143503Y-126752179D01*
X352921321Y-127529997D01*
G37*
X325407106Y-113035050D02*
X326326345Y-112964340D01*
X328801219Y-115439213D01*
X327104163Y-117136270D01*
X324629289Y-114661396D01*
X324700000Y-113742157D01*
X324346446Y-113388604D01*
X325053553Y-112681497D01*
X325407106Y-113035050D01*
G36*
X325407106Y-113035050D02*
G01*
X326326345Y-112964340D01*
X328801219Y-115439213D01*
X327104163Y-117136270D01*
X324629289Y-114661396D01*
X324700000Y-113742157D01*
X324346446Y-113388604D01*
X325053553Y-112681497D01*
X325407106Y-113035050D01*
G37*
X220900000Y-68000000D02*
X217400000Y-68000000D01*
X216800000Y-67300000D01*
X216300000Y-67300000D01*
X216300000Y-66300000D01*
X216800000Y-66300000D01*
X217400000Y-65600000D01*
X220900000Y-65600000D01*
X220900000Y-68000000D01*
G36*
X220900000Y-68000000D02*
G01*
X217400000Y-68000000D01*
X216800000Y-67300000D01*
X216300000Y-67300000D01*
X216300000Y-66300000D01*
X216800000Y-66300000D01*
X217400000Y-65600000D01*
X220900000Y-65600000D01*
X220900000Y-68000000D01*
G37*
M02*
