%TF.GenerationSoftware,KiCad,Pcbnew,9.0.3*%
%TF.CreationDate,2025-10-03T14:49:21+02:00*%
%TF.ProjectId,Sony_HB-F1Xxx_Membrane,536f6e79-5f48-4422-9d46-315878785f4d,1.0*%
%TF.SameCoordinates,Original*%
%TF.FileFunction,Profile,NP*%
%FSLAX46Y46*%
G04 Gerber Fmt 4.6, Leading zero omitted, Abs format (unit mm)*
G04 Created by KiCad (PCBNEW 9.0.3) date 2025-10-03 14:49:21*
%MOMM*%
%LPD*%
G01*
G04 APERTURE LIST*
%TA.AperFunction,Profile*%
%ADD10C,0.050000*%
%TD*%
G04 APERTURE END LIST*
D10*
X237950000Y-62450000D02*
G75*
G02*
X238823989Y-61495514I898689J54486D01*
G01*
X237950000Y-65248582D02*
G75*
G02*
X230650120Y-65244289I-3650000J-99990D01*
G01*
X237950000Y-62450000D02*
X237949999Y-65248582D01*
X230650000Y-62400000D02*
X230650120Y-65244289D01*
X238823066Y-61495514D02*
X283434916Y-61496077D01*
X229950000Y-61500000D02*
G75*
G02*
X230652895Y-62400000I-224741J-900000D01*
G01*
X185561577Y-61500000D02*
X229950000Y-61500000D01*
X402500000Y-178768629D02*
G75*
G02*
X400900000Y-180368600I-1600000J29D01*
G01*
X207900000Y-165650000D02*
X213900000Y-165650000D01*
X213900000Y-175750000D01*
X207900000Y-175750000D01*
X207900000Y-165650000D01*
X120060635Y-61500000D02*
G75*
G02*
X121226138Y-62410052I-35J-1201400D01*
G01*
X292700000Y-61500000D02*
X293667458Y-61500000D01*
X15000000Y-129500000D02*
G75*
G02*
X16558018Y-127716340I1800000J0D01*
G01*
X177698898Y-62900001D02*
X177614195Y-62571505D01*
X20300000Y-187965880D02*
G75*
G02*
X19612988Y-187340773I100000J799980D01*
G01*
X299800000Y-61300000D02*
X299800000Y-62500000D01*
X26600000Y-176731762D02*
X29565881Y-176731762D01*
X401202786Y-61300000D02*
X365850000Y-61300000D01*
X20400000Y-187965881D02*
X393300000Y-187865881D01*
X16450447Y-121581788D02*
G75*
G02*
X16558018Y-127716346I3J-3068222D01*
G01*
X296500000Y-169500000D02*
G75*
G02*
X289900000Y-169500000I-3300000J0D01*
G01*
X289900000Y-169500000D02*
G75*
G02*
X296500000Y-169500000I3300000J0D01*
G01*
X14963146Y-119518283D02*
X14997062Y-70202938D01*
X402500000Y-176565881D02*
X402500000Y-62750000D01*
X293667458Y-61500000D02*
X297132542Y-61500000D01*
X29565881Y-176731762D02*
G75*
G02*
X29565881Y-183799998I-1J-3534118D01*
G01*
X19800000Y-63200000D02*
G75*
G02*
X21400000Y-61600000I1600000J0D01*
G01*
X92100000Y-124600000D02*
G75*
G02*
X85500000Y-124600000I-3300000J0D01*
G01*
X85500000Y-124600000D02*
G75*
G02*
X92100000Y-124600000I3300000J0D01*
G01*
X291195586Y-63066918D02*
G75*
G02*
X285162574Y-62812181I-2995586J622818D01*
G01*
X113500000Y-169565881D02*
G75*
G02*
X106900000Y-169565881I-3300000J0D01*
G01*
X106900000Y-169565881D02*
G75*
G02*
X113500000Y-169565881I3300000J0D01*
G01*
X230500000Y-176500000D02*
G75*
G02*
X223900000Y-176500000I-3300000J0D01*
G01*
X223900000Y-176500000D02*
G75*
G02*
X230500000Y-176500000I3300000J0D01*
G01*
X16500000Y-184065882D02*
G75*
G02*
X19496785Y-186853112I-188680J-3207528D01*
G01*
X299800000Y-19665881D02*
X299800000Y-18565881D01*
X291186014Y-62867205D02*
X291195586Y-63066916D01*
X176337321Y-61500001D02*
G75*
G02*
X177614233Y-62571495I-100021J-1415799D01*
G01*
X183903507Y-62915722D02*
X184023977Y-62480994D01*
X364050000Y-63200000D02*
G75*
G02*
X363398217Y-62500000I50000J700000D01*
G01*
X121313822Y-62681885D02*
X121413822Y-62880456D01*
X63900000Y-176765881D02*
G75*
G02*
X57300000Y-176765881I-3300000J0D01*
G01*
X57300000Y-176765881D02*
G75*
G02*
X63900000Y-176765881I3300000J0D01*
G01*
X339400000Y-124500000D02*
G75*
G02*
X332800000Y-124500000I-3300000J0D01*
G01*
X332800000Y-124500000D02*
G75*
G02*
X339400000Y-124500000I3300000J0D01*
G01*
X149300000Y-124500000D02*
G75*
G02*
X142700000Y-124500000I-3300000J0D01*
G01*
X142700000Y-124500000D02*
G75*
G02*
X149300000Y-124500000I3300000J0D01*
G01*
X402500000Y-62650000D02*
X402500000Y-62750000D01*
X297132550Y-61499999D02*
G75*
G02*
X297619794Y-61720137I67450J-500001D01*
G01*
X127572512Y-62939728D02*
G75*
G02*
X129199998Y-61499965I1719588J-304072D01*
G01*
X363400000Y-61300000D02*
X363400000Y-62500000D01*
X21400000Y-61600000D02*
X68638423Y-61600000D01*
X352000000Y-144100000D02*
G75*
G02*
X349000000Y-144100000I-1500000J0D01*
G01*
X349000000Y-144100000D02*
G75*
G02*
X352000000Y-144100000I1500000J0D01*
G01*
X299800000Y-60465881D02*
X299800000Y-61300000D01*
X20300000Y-187965880D02*
X20400000Y-187965881D01*
X291186014Y-62867182D02*
G75*
G02*
X292699996Y-61500053I1403886J-32818D01*
G01*
X305934119Y-183668238D02*
G75*
G02*
X305934119Y-176599962I-19J3534138D01*
G01*
X184023977Y-62480994D02*
G75*
G02*
X185100000Y-61500000I1276023J-319006D01*
G01*
X395050600Y-183300000D02*
G75*
G02*
X397950610Y-180400000I2900000J0D01*
G01*
X299800068Y-18565881D02*
G75*
G02*
X300694377Y-17665986I899932J-19D01*
G01*
X283838431Y-61496042D02*
G75*
G02*
X285153931Y-62569018I110969J-1206858D01*
G01*
X183903507Y-62915722D02*
G75*
G02*
X177699985Y-62900003I-3100007J700022D01*
G01*
X14997062Y-70202938D02*
G75*
G02*
X16700000Y-68500002I1702938J-2D01*
G01*
X19700000Y-65497062D02*
X19800000Y-63200000D01*
X16450447Y-121581787D02*
G75*
G02*
X14963128Y-119952402I148853J1629387D01*
G01*
X395050600Y-183300000D02*
X395100000Y-186000000D01*
X364385043Y-63085043D02*
G75*
G02*
X364050007Y-63200000I-285043J285043D01*
G01*
X395100000Y-186000000D02*
X395100000Y-186065900D01*
X363400000Y-19765881D02*
X363400000Y-18465881D01*
X19496785Y-186853112D02*
X19612974Y-187340776D01*
X285153931Y-62569024D02*
X285162576Y-62812181D01*
X68638423Y-61600000D02*
G75*
G02*
X69996674Y-62660437I-23J-1400100D01*
G01*
X283434916Y-61496077D02*
X283838062Y-61496077D01*
X120900000Y-165750000D02*
X126900000Y-165750000D01*
X126900000Y-175850000D01*
X120900000Y-175850000D01*
X120900000Y-165750000D01*
X70100000Y-62984278D02*
X69996623Y-62660450D01*
X362600000Y-17665881D02*
G75*
G02*
X363400019Y-18465881I0J-800019D01*
G01*
X305934119Y-176600000D02*
X308900000Y-176600000D01*
X396500000Y-124500000D02*
G75*
G02*
X389900000Y-124500000I-3300000J0D01*
G01*
X389900000Y-124500000D02*
G75*
G02*
X396500000Y-124500000I3300000J0D01*
G01*
X14963146Y-119518283D02*
X14963146Y-119952402D01*
X299800000Y-19665881D02*
X299800000Y-60465881D01*
X400900000Y-180368629D02*
X397950610Y-180400000D01*
X308900000Y-176600000D02*
G75*
G02*
X308900000Y-183668200I0J-3534100D01*
G01*
X299800000Y-62500000D02*
G75*
G02*
X298075379Y-62712310I-900000J200000D01*
G01*
X353700000Y-164200000D02*
G75*
G02*
X347100000Y-164200000I-3300000J0D01*
G01*
X347100000Y-164200000D02*
G75*
G02*
X353700000Y-164200000I3300000J0D01*
G01*
X263300000Y-124065881D02*
G75*
G02*
X256700000Y-124065881I-3300000J0D01*
G01*
X256700000Y-124065881D02*
G75*
G02*
X263300000Y-124065881I3300000J0D01*
G01*
X402500000Y-62650000D02*
X402500000Y-62600000D01*
X402500000Y-178534510D02*
X402500000Y-178768629D01*
X402500000Y-176565881D02*
X402500000Y-178534510D01*
X76303507Y-63000000D02*
G75*
G02*
X77772306Y-61592299I1696493J-300000D01*
G01*
X77772306Y-61592299D02*
X119834916Y-61500000D01*
X395100000Y-186065881D02*
G75*
G02*
X393300000Y-187865900I-1800000J-19D01*
G01*
X14999999Y-182565881D02*
X15000000Y-129500000D01*
X396600000Y-67300000D02*
G75*
G02*
X390000000Y-67300000I-3300000J0D01*
G01*
X390000000Y-67300000D02*
G75*
G02*
X396600000Y-67300000I3300000J0D01*
G01*
X121313822Y-62681885D02*
X121226176Y-62410042D01*
X305934119Y-183668238D02*
X308900000Y-183668238D01*
X401200000Y-61300000D02*
G75*
G02*
X402500000Y-62600000I0J-1300000D01*
G01*
X188300000Y-84200000D02*
G75*
G02*
X185137722Y-84200000I-1581139J0D01*
G01*
X185137722Y-84200000D02*
G75*
G02*
X188300000Y-84200000I1581139J0D01*
G01*
X362300000Y-17665881D02*
X300694377Y-17665967D01*
X365400000Y-61576393D02*
X364500000Y-62965686D01*
X363400000Y-19765881D02*
X363400000Y-61300000D01*
X26600000Y-183800000D02*
X29565881Y-183800000D01*
X23100000Y-163200000D02*
X38000000Y-163200000D01*
X38000000Y-173200000D01*
X23100000Y-173200000D01*
X23100000Y-163200000D01*
X365400000Y-61576393D02*
G75*
G02*
X365847214Y-61300012I447200J-223607D01*
G01*
X297619794Y-61720137D02*
X298075379Y-62712310D01*
X16500000Y-184065882D02*
G75*
G02*
X15000018Y-182565881I0J1499982D01*
G01*
X163600000Y-176467443D02*
G75*
G02*
X157000000Y-176467443I-3300000J0D01*
G01*
X157000000Y-176467443D02*
G75*
G02*
X163600000Y-176467443I3300000J0D01*
G01*
X362300000Y-17665881D02*
X362600000Y-17665881D01*
X339500000Y-67200000D02*
G75*
G02*
X332900000Y-67200000I-3300000J0D01*
G01*
X332900000Y-67200000D02*
G75*
G02*
X339500000Y-67200000I3300000J0D01*
G01*
X185100000Y-61500001D02*
X185561577Y-61500000D01*
X364382843Y-63082843D02*
X364500000Y-62965686D01*
X237500000Y-82000000D02*
G75*
G02*
X230900000Y-82000000I-3300000J0D01*
G01*
X230900000Y-82000000D02*
G75*
G02*
X237500000Y-82000000I3300000J0D01*
G01*
X206300000Y-124400000D02*
G75*
G02*
X199700000Y-124400000I-3300000J0D01*
G01*
X199700000Y-124400000D02*
G75*
G02*
X206300000Y-124400000I3300000J0D01*
G01*
X127572512Y-62939728D02*
G75*
G02*
X121413820Y-62880456I-3072512J739728D01*
G01*
X76303507Y-63000000D02*
G75*
G02*
X70099985Y-62984281I-3100007J700000D01*
G01*
X26600000Y-183800000D02*
G75*
G02*
X26600000Y-176731760I0J3534120D01*
G01*
X19700000Y-65500000D02*
G75*
G02*
X16700000Y-68500000I-3000000J0D01*
G01*
X129200000Y-61500001D02*
X176337321Y-61500001D01*
X119834916Y-61500000D02*
X120060635Y-61500000D01*
M02*
