M48
; DRILL file {KiCad 9.0.3} date 2025-10-03T14:49:18+0200
; FORMAT={-:-/ absolute / inch / decimal}
; #@! TF.CreationDate,2025-10-03T14:49:18+02:00
; #@! TF.GenerationSoftware,Kicad,Pcbnew,9.0.3
; #@! TF.FileFunction,Plated,1,2,PTH
FMAT,2
INCH
; #@! TA.AperFunction,Plated,PTH,ViaDrill
T1C0.0197
%
G90
G05
T1
X1.815Y-2.5827
X1.815Y-3.1601
X3.0354Y-3.0984
X3.0354Y-3.4843
X3.1339Y-6.3491
X3.1339Y-7.0577
X5.5354Y-6.4868
X5.5354Y-6.979
X7.0709Y-6.3294
X7.0709Y-6.9593
X7.5236Y-6.3687
X7.5236Y-6.979
X7.7598Y-6.4081
X7.7598Y-6.9593
X9.6496Y-6.2113
X9.6496Y-6.9396
X10.6943Y-5.6024
X10.811Y-6.29
X10.811Y-6.9987
X10.9094Y-5.4435
X11.5984Y-5.5813
X11.6969Y-5.4435
X11.7756Y-3.1063
X11.7874Y-3.2402
X11.7966Y-2.9843
X11.874Y-6.0144
X11.874Y-6.4868
X11.9921Y-4.8386
X12.189Y-5.0302
X12.2087Y-4.0827
X12.248Y-4.3465
X12.2677Y-4.5577
X12.3071Y-4.6955
X12.4252Y-3.9724
X12.5616Y-2.9843
X12.5774Y-4.8386
X12.5813Y-4.5787
X12.5827Y-5.0302
X12.5892Y-4.7087
X12.6732Y-4.3465
X12.6811Y-3.1063
X12.9646Y-3.9724
X13.126Y-3.2402
X13.2835Y-4.0827
M30
