%TF.GenerationSoftware,KiCad,Pcbnew,9.0.3*%
%TF.CreationDate,2025-10-03T14:49:21+02:00*%
%TF.ProjectId,Sony_HB-F1Xxx_Membrane,536f6e79-5f48-4422-9d46-315878785f4d,1.0*%
%TF.SameCoordinates,Original*%
%TF.FileFunction,Copper,L2,Bot*%
%TF.FilePolarity,Positive*%
%FSLAX46Y46*%
G04 Gerber Fmt 4.6, Leading zero omitted, Abs format (unit mm)*
G04 Created by KiCad (PCBNEW 9.0.3) date 2025-10-03 14:49:21*
%MOMM*%
%LPD*%
G01*
G04 APERTURE LIST*
%TA.AperFunction,ViaPad*%
%ADD10C,1.000000*%
%TD*%
%TA.AperFunction,Conductor*%
%ADD11C,0.500000*%
%TD*%
G04 APERTURE END LIST*
D10*
%TO.N,PAD7*%
X46100000Y-80265881D03*
X46100000Y-65600000D03*
%TO.N,PAD9*%
X301600000Y-164765881D03*
X301600000Y-152765881D03*
%TO.N,PAD10*%
X271634119Y-142300000D03*
X294600000Y-141765881D03*
X310100000Y-103700000D03*
X337400000Y-103700000D03*
%TO.N,PAD11*%
X297100000Y-138265881D03*
X277100000Y-138265881D03*
X304600000Y-122900000D03*
X319465881Y-122900000D03*
%TO.N,PAD12*%
X329300000Y-100900000D03*
X179600000Y-176765881D03*
X315600000Y-100900000D03*
X179600000Y-160765881D03*
%TO.N,PAD13*%
X77100000Y-78700000D03*
X191100000Y-177265881D03*
X77100000Y-88500000D03*
X309600000Y-127765881D03*
X319600000Y-127765881D03*
X191100000Y-161765881D03*
%TO.N,PAD14*%
X245100000Y-176265881D03*
X311100000Y-110400000D03*
X245100000Y-157765881D03*
X321900000Y-110400000D03*
%TO.N,PAD15*%
X319565881Y-116300000D03*
X79600000Y-179265881D03*
X197100000Y-162765881D03*
X311600000Y-115765881D03*
X197100000Y-176765881D03*
X79600000Y-161265881D03*
%TO.N,PAD16*%
X140600000Y-177265881D03*
X312600000Y-119265881D03*
X319765881Y-119600000D03*
X140600000Y-164765881D03*
%TO.N,PAD18*%
X299634119Y-75800000D03*
X319065881Y-75800000D03*
%TO.N,PAD17*%
X274600000Y-159765881D03*
X274600000Y-177765881D03*
%TO.N,PAD20*%
X322100000Y-78900000D03*
X299100000Y-78900000D03*
%TO.N,PAD22*%
X299400000Y-82300000D03*
X333400000Y-82300000D03*
%TD*%
D11*
%TO.N,PAD7*%
X46100000Y-80265881D02*
X46100000Y-65600000D01*
%TO.N,PAD9*%
X301600000Y-152765881D02*
X301600000Y-164765881D01*
%TO.N,PAD10*%
X294065881Y-142300000D02*
X271634119Y-142300000D01*
X310100000Y-103700000D02*
X337400000Y-103700000D01*
X294600000Y-141765881D02*
X294065881Y-142300000D01*
%TO.N,PAD11*%
X304600000Y-122900000D02*
X319465881Y-122900000D01*
X297100000Y-138265881D02*
X277100000Y-138265881D01*
%TO.N,PAD12*%
X179600000Y-176765881D02*
X179600000Y-160765881D01*
X329300000Y-100900000D02*
X315600000Y-100900000D01*
%TO.N,PAD13*%
X309600000Y-127765881D02*
X319600000Y-127765881D01*
X77100000Y-78700000D02*
X77100000Y-88500000D01*
X191100000Y-177265881D02*
X191100000Y-161765881D01*
%TO.N,PAD14*%
X311100000Y-110400000D02*
X321900000Y-110400000D01*
X245100000Y-176265881D02*
X245100000Y-157765881D01*
%TO.N,PAD15*%
X197100000Y-176765881D02*
X197100000Y-162765881D01*
X312134119Y-116300000D02*
X319565881Y-116300000D01*
X311600000Y-115765881D02*
X312134119Y-116300000D01*
X79600000Y-179265881D02*
X79600000Y-161265881D01*
%TO.N,PAD16*%
X312934119Y-119600000D02*
X312600000Y-119265881D01*
X140600000Y-177265881D02*
X140600000Y-164765881D01*
X319765881Y-119600000D02*
X312934119Y-119600000D01*
%TO.N,PAD18*%
X319065881Y-75800000D02*
X299634119Y-75800000D01*
%TO.N,PAD17*%
X274600000Y-177765881D02*
X274600000Y-159765881D01*
%TO.N,PAD20*%
X322100000Y-78900000D02*
X299100000Y-78900000D01*
%TO.N,PAD22*%
X299400000Y-82300000D02*
X333400000Y-82300000D01*
%TD*%
%TA.AperFunction,Conductor*%
%TO.N,PAD7*%
G36*
X46578155Y-65695085D02*
G01*
X46585590Y-65700075D01*
X46587320Y-65708861D01*
X46587147Y-65709598D01*
X46352331Y-66581735D01*
X46346871Y-66588833D01*
X46341033Y-66590393D01*
X45858967Y-66590393D01*
X45850694Y-66586966D01*
X45847669Y-66581735D01*
X45612852Y-65709598D01*
X45614010Y-65700718D01*
X45621108Y-65695258D01*
X45621822Y-65695090D01*
X46097696Y-65599463D01*
X46102304Y-65599463D01*
X46578155Y-65695085D01*
G37*
%TD.AperFunction*%
%TD*%
%TA.AperFunction,Conductor*%
%TO.N,PAD7*%
G36*
X46349306Y-79278915D02*
G01*
X46352331Y-79284146D01*
X46587147Y-80156282D01*
X46585989Y-80165162D01*
X46578891Y-80170622D01*
X46578154Y-80170795D01*
X46102305Y-80266417D01*
X46097695Y-80266417D01*
X45621845Y-80170795D01*
X45614409Y-80165805D01*
X45612679Y-80157019D01*
X45612852Y-80156282D01*
X45847669Y-79284146D01*
X45853129Y-79277048D01*
X45858967Y-79275488D01*
X46341033Y-79275488D01*
X46349306Y-79278915D01*
G37*
%TD.AperFunction*%
%TD*%
%TA.AperFunction,Conductor*%
%TO.N,PAD9*%
G36*
X302078155Y-152860966D02*
G01*
X302085590Y-152865956D01*
X302087320Y-152874742D01*
X302087147Y-152875479D01*
X301852331Y-153747616D01*
X301846871Y-153754714D01*
X301841033Y-153756274D01*
X301358967Y-153756274D01*
X301350694Y-153752847D01*
X301347669Y-153747616D01*
X301112852Y-152875479D01*
X301114010Y-152866599D01*
X301121108Y-152861139D01*
X301121822Y-152860971D01*
X301597696Y-152765344D01*
X301602304Y-152765344D01*
X302078155Y-152860966D01*
G37*
%TD.AperFunction*%
%TD*%
%TA.AperFunction,Conductor*%
%TO.N,PAD9*%
G36*
X301849306Y-163778915D02*
G01*
X301852331Y-163784146D01*
X302087147Y-164656282D01*
X302085989Y-164665162D01*
X302078891Y-164670622D01*
X302078154Y-164670795D01*
X301602305Y-164766417D01*
X301597695Y-164766417D01*
X301121845Y-164670795D01*
X301114409Y-164665805D01*
X301112679Y-164657019D01*
X301112852Y-164656282D01*
X301347669Y-163784146D01*
X301353129Y-163777048D01*
X301358967Y-163775488D01*
X301841033Y-163775488D01*
X301849306Y-163778915D01*
G37*
%TD.AperFunction*%
%TD*%
%TA.AperFunction,Conductor*%
%TO.N,PAD10*%
G36*
X271743711Y-141812850D02*
G01*
X272615855Y-142047669D01*
X272622952Y-142053128D01*
X272624512Y-142058966D01*
X272624512Y-142541033D01*
X272621085Y-142549306D01*
X272615854Y-142552331D01*
X271743717Y-142787147D01*
X271734837Y-142785989D01*
X271729377Y-142778891D01*
X271729207Y-142778170D01*
X271633582Y-142302304D01*
X271633582Y-142297695D01*
X271682728Y-142053128D01*
X271729205Y-141821843D01*
X271734194Y-141814409D01*
X271742980Y-141812679D01*
X271743711Y-141812850D01*
G37*
%TD.AperFunction*%
%TD*%
%TA.AperFunction,Conductor*%
%TO.N,PAD10*%
G36*
X310209592Y-103212850D02*
G01*
X311081736Y-103447669D01*
X311088833Y-103453128D01*
X311090393Y-103458966D01*
X311090393Y-103941033D01*
X311086966Y-103949306D01*
X311081735Y-103952331D01*
X310209598Y-104187147D01*
X310200718Y-104185989D01*
X310195258Y-104178891D01*
X310195088Y-104178170D01*
X310099463Y-103702304D01*
X310099463Y-103697695D01*
X310148609Y-103453128D01*
X310195086Y-103221843D01*
X310200075Y-103214409D01*
X310208861Y-103212679D01*
X310209592Y-103212850D01*
G37*
%TD.AperFunction*%
%TD*%
%TA.AperFunction,Conductor*%
%TO.N,PAD10*%
G36*
X337299281Y-103214010D02*
G01*
X337304741Y-103221108D01*
X337304914Y-103221845D01*
X337400536Y-103697695D01*
X337400536Y-103702305D01*
X337304914Y-104178154D01*
X337299924Y-104185590D01*
X337291138Y-104187320D01*
X337290401Y-104187147D01*
X336418265Y-103952331D01*
X336411167Y-103946871D01*
X336409607Y-103941033D01*
X336409607Y-103458966D01*
X336413034Y-103450693D01*
X336418262Y-103447669D01*
X337290402Y-103212852D01*
X337299281Y-103214010D01*
G37*
%TD.AperFunction*%
%TD*%
%TA.AperFunction,Conductor*%
%TO.N,PAD10*%
G36*
X294194001Y-141494590D02*
G01*
X294194256Y-141494755D01*
X294596949Y-141763181D01*
X294601933Y-141770620D01*
X294601940Y-141770655D01*
X294695565Y-142246221D01*
X294693800Y-142255000D01*
X294687840Y-142259562D01*
X293846302Y-142544762D01*
X293837367Y-142544172D01*
X293831466Y-142537436D01*
X293830847Y-142533681D01*
X293830847Y-142053373D01*
X293832643Y-142047144D01*
X294006567Y-141770620D01*
X294177869Y-141498263D01*
X294185174Y-141493086D01*
X294194001Y-141494590D01*
G37*
%TD.AperFunction*%
%TD*%
%TA.AperFunction,Conductor*%
%TO.N,PAD11*%
G36*
X304709592Y-122412850D02*
G01*
X305581736Y-122647669D01*
X305588833Y-122653128D01*
X305590393Y-122658966D01*
X305590393Y-123141033D01*
X305586966Y-123149306D01*
X305581735Y-123152331D01*
X304709598Y-123387147D01*
X304700718Y-123385989D01*
X304695258Y-123378891D01*
X304695088Y-123378170D01*
X304599463Y-122902304D01*
X304599463Y-122897695D01*
X304648609Y-122653128D01*
X304695086Y-122421843D01*
X304700075Y-122414409D01*
X304708861Y-122412679D01*
X304709592Y-122412850D01*
G37*
%TD.AperFunction*%
%TD*%
%TA.AperFunction,Conductor*%
%TO.N,PAD11*%
G36*
X319365162Y-122414010D02*
G01*
X319370622Y-122421108D01*
X319370795Y-122421845D01*
X319466417Y-122897695D01*
X319466417Y-122902305D01*
X319370795Y-123378154D01*
X319365805Y-123385590D01*
X319357019Y-123387320D01*
X319356282Y-123387147D01*
X318484146Y-123152331D01*
X318477048Y-123146871D01*
X318475488Y-123141033D01*
X318475488Y-122658966D01*
X318478915Y-122650693D01*
X318484143Y-122647669D01*
X319356283Y-122412852D01*
X319365162Y-122414010D01*
G37*
%TD.AperFunction*%
%TD*%
%TA.AperFunction,Conductor*%
%TO.N,PAD11*%
G36*
X296999281Y-137779891D02*
G01*
X297004741Y-137786989D01*
X297004914Y-137787726D01*
X297100536Y-138263576D01*
X297100536Y-138268186D01*
X297004914Y-138744035D01*
X296999924Y-138751471D01*
X296991138Y-138753201D01*
X296990401Y-138753028D01*
X296118265Y-138518212D01*
X296111167Y-138512752D01*
X296109607Y-138506914D01*
X296109607Y-138024847D01*
X296113034Y-138016574D01*
X296118262Y-138013550D01*
X296990402Y-137778733D01*
X296999281Y-137779891D01*
G37*
%TD.AperFunction*%
%TD*%
%TA.AperFunction,Conductor*%
%TO.N,PAD11*%
G36*
X277209592Y-137778731D02*
G01*
X278081736Y-138013550D01*
X278088833Y-138019009D01*
X278090393Y-138024847D01*
X278090393Y-138506914D01*
X278086966Y-138515187D01*
X278081735Y-138518212D01*
X277209598Y-138753028D01*
X277200718Y-138751870D01*
X277195258Y-138744772D01*
X277195088Y-138744051D01*
X277099463Y-138268185D01*
X277099463Y-138263576D01*
X277148609Y-138019009D01*
X277195086Y-137787724D01*
X277200075Y-137780290D01*
X277208861Y-137778560D01*
X277209592Y-137778731D01*
G37*
%TD.AperFunction*%
%TD*%
%TA.AperFunction,Conductor*%
%TO.N,PAD12*%
G36*
X180078155Y-160860966D02*
G01*
X180085590Y-160865956D01*
X180087320Y-160874742D01*
X180087147Y-160875479D01*
X179852331Y-161747616D01*
X179846871Y-161754714D01*
X179841033Y-161756274D01*
X179358967Y-161756274D01*
X179350694Y-161752847D01*
X179347669Y-161747616D01*
X179112852Y-160875479D01*
X179114010Y-160866599D01*
X179121108Y-160861139D01*
X179121822Y-160860971D01*
X179597696Y-160765344D01*
X179602304Y-160765344D01*
X180078155Y-160860966D01*
G37*
%TD.AperFunction*%
%TD*%
%TA.AperFunction,Conductor*%
%TO.N,PAD12*%
G36*
X179849306Y-175778915D02*
G01*
X179852331Y-175784146D01*
X180087147Y-176656282D01*
X180085989Y-176665162D01*
X180078891Y-176670622D01*
X180078154Y-176670795D01*
X179602305Y-176766417D01*
X179597695Y-176766417D01*
X179121845Y-176670795D01*
X179114409Y-176665805D01*
X179112679Y-176657019D01*
X179112852Y-176656282D01*
X179347669Y-175784146D01*
X179353129Y-175777048D01*
X179358967Y-175775488D01*
X179841033Y-175775488D01*
X179849306Y-175778915D01*
G37*
%TD.AperFunction*%
%TD*%
%TA.AperFunction,Conductor*%
%TO.N,PAD12*%
G36*
X315709592Y-100412850D02*
G01*
X316581736Y-100647669D01*
X316588833Y-100653128D01*
X316590393Y-100658966D01*
X316590393Y-101141033D01*
X316586966Y-101149306D01*
X316581735Y-101152331D01*
X315709598Y-101387147D01*
X315700718Y-101385989D01*
X315695258Y-101378891D01*
X315695088Y-101378170D01*
X315599463Y-100902304D01*
X315599463Y-100897695D01*
X315648609Y-100653128D01*
X315695086Y-100421843D01*
X315700075Y-100414409D01*
X315708861Y-100412679D01*
X315709592Y-100412850D01*
G37*
%TD.AperFunction*%
%TD*%
%TA.AperFunction,Conductor*%
%TO.N,PAD12*%
G36*
X329199281Y-100414010D02*
G01*
X329204741Y-100421108D01*
X329204914Y-100421845D01*
X329300536Y-100897695D01*
X329300536Y-100902305D01*
X329204914Y-101378154D01*
X329199924Y-101385590D01*
X329191138Y-101387320D01*
X329190401Y-101387147D01*
X328318265Y-101152331D01*
X328311167Y-101146871D01*
X328309607Y-101141033D01*
X328309607Y-100658966D01*
X328313034Y-100650693D01*
X328318262Y-100647669D01*
X329190402Y-100412852D01*
X329199281Y-100414010D01*
G37*
%TD.AperFunction*%
%TD*%
%TA.AperFunction,Conductor*%
%TO.N,PAD13*%
G36*
X309709592Y-127278731D02*
G01*
X310581736Y-127513550D01*
X310588833Y-127519009D01*
X310590393Y-127524847D01*
X310590393Y-128006914D01*
X310586966Y-128015187D01*
X310581735Y-128018212D01*
X309709598Y-128253028D01*
X309700718Y-128251870D01*
X309695258Y-128244772D01*
X309695088Y-128244051D01*
X309599463Y-127768185D01*
X309599463Y-127763576D01*
X309648609Y-127519009D01*
X309695086Y-127287724D01*
X309700075Y-127280290D01*
X309708861Y-127278560D01*
X309709592Y-127278731D01*
G37*
%TD.AperFunction*%
%TD*%
%TA.AperFunction,Conductor*%
%TO.N,PAD13*%
G36*
X319499281Y-127279891D02*
G01*
X319504741Y-127286989D01*
X319504914Y-127287726D01*
X319600536Y-127763576D01*
X319600536Y-127768186D01*
X319504914Y-128244035D01*
X319499924Y-128251471D01*
X319491138Y-128253201D01*
X319490401Y-128253028D01*
X318618265Y-128018212D01*
X318611167Y-128012752D01*
X318609607Y-128006914D01*
X318609607Y-127524847D01*
X318613034Y-127516574D01*
X318618262Y-127513550D01*
X319490402Y-127278733D01*
X319499281Y-127279891D01*
G37*
%TD.AperFunction*%
%TD*%
%TA.AperFunction,Conductor*%
%TO.N,PAD13*%
G36*
X77349306Y-87513034D02*
G01*
X77352331Y-87518265D01*
X77587147Y-88390401D01*
X77585989Y-88399281D01*
X77578891Y-88404741D01*
X77578154Y-88404914D01*
X77102305Y-88500536D01*
X77097695Y-88500536D01*
X76621845Y-88404914D01*
X76614409Y-88399924D01*
X76612679Y-88391138D01*
X76612852Y-88390401D01*
X76847669Y-87518265D01*
X76853129Y-87511167D01*
X76858967Y-87509607D01*
X77341033Y-87509607D01*
X77349306Y-87513034D01*
G37*
%TD.AperFunction*%
%TD*%
%TA.AperFunction,Conductor*%
%TO.N,PAD13*%
G36*
X77578155Y-78795085D02*
G01*
X77585590Y-78800075D01*
X77587320Y-78808861D01*
X77587147Y-78809598D01*
X77352331Y-79681735D01*
X77346871Y-79688833D01*
X77341033Y-79690393D01*
X76858967Y-79690393D01*
X76850694Y-79686966D01*
X76847669Y-79681735D01*
X76612852Y-78809598D01*
X76614010Y-78800718D01*
X76621108Y-78795258D01*
X76621822Y-78795090D01*
X77097696Y-78699463D01*
X77102304Y-78699463D01*
X77578155Y-78795085D01*
G37*
%TD.AperFunction*%
%TD*%
%TA.AperFunction,Conductor*%
%TO.N,PAD13*%
G36*
X191349306Y-176278915D02*
G01*
X191352331Y-176284146D01*
X191587147Y-177156282D01*
X191585989Y-177165162D01*
X191578891Y-177170622D01*
X191578154Y-177170795D01*
X191102305Y-177266417D01*
X191097695Y-177266417D01*
X190621845Y-177170795D01*
X190614409Y-177165805D01*
X190612679Y-177157019D01*
X190612852Y-177156282D01*
X190847669Y-176284146D01*
X190853129Y-176277048D01*
X190858967Y-176275488D01*
X191341033Y-176275488D01*
X191349306Y-176278915D01*
G37*
%TD.AperFunction*%
%TD*%
%TA.AperFunction,Conductor*%
%TO.N,PAD13*%
G36*
X191578155Y-161860966D02*
G01*
X191585590Y-161865956D01*
X191587320Y-161874742D01*
X191587147Y-161875479D01*
X191352331Y-162747616D01*
X191346871Y-162754714D01*
X191341033Y-162756274D01*
X190858967Y-162756274D01*
X190850694Y-162752847D01*
X190847669Y-162747616D01*
X190612852Y-161875479D01*
X190614010Y-161866599D01*
X190621108Y-161861139D01*
X190621822Y-161860971D01*
X191097696Y-161765344D01*
X191102304Y-161765344D01*
X191578155Y-161860966D01*
G37*
%TD.AperFunction*%
%TD*%
%TA.AperFunction,Conductor*%
%TO.N,PAD14*%
G36*
X311209592Y-109912850D02*
G01*
X312081736Y-110147669D01*
X312088833Y-110153128D01*
X312090393Y-110158966D01*
X312090393Y-110641033D01*
X312086966Y-110649306D01*
X312081735Y-110652331D01*
X311209598Y-110887147D01*
X311200718Y-110885989D01*
X311195258Y-110878891D01*
X311195088Y-110878170D01*
X311099463Y-110402304D01*
X311099463Y-110397695D01*
X311148609Y-110153128D01*
X311195086Y-109921843D01*
X311200075Y-109914409D01*
X311208861Y-109912679D01*
X311209592Y-109912850D01*
G37*
%TD.AperFunction*%
%TD*%
%TA.AperFunction,Conductor*%
%TO.N,PAD14*%
G36*
X321799281Y-109914010D02*
G01*
X321804741Y-109921108D01*
X321804914Y-109921845D01*
X321900536Y-110397695D01*
X321900536Y-110402305D01*
X321804914Y-110878154D01*
X321799924Y-110885590D01*
X321791138Y-110887320D01*
X321790401Y-110887147D01*
X320918265Y-110652331D01*
X320911167Y-110646871D01*
X320909607Y-110641033D01*
X320909607Y-110158966D01*
X320913034Y-110150693D01*
X320918262Y-110147669D01*
X321790402Y-109912852D01*
X321799281Y-109914010D01*
G37*
%TD.AperFunction*%
%TD*%
%TA.AperFunction,Conductor*%
%TO.N,PAD14*%
G36*
X245578155Y-157860966D02*
G01*
X245585590Y-157865956D01*
X245587320Y-157874742D01*
X245587147Y-157875479D01*
X245352331Y-158747616D01*
X245346871Y-158754714D01*
X245341033Y-158756274D01*
X244858967Y-158756274D01*
X244850694Y-158752847D01*
X244847669Y-158747616D01*
X244612852Y-157875479D01*
X244614010Y-157866599D01*
X244621108Y-157861139D01*
X244621822Y-157860971D01*
X245097696Y-157765344D01*
X245102304Y-157765344D01*
X245578155Y-157860966D01*
G37*
%TD.AperFunction*%
%TD*%
%TA.AperFunction,Conductor*%
%TO.N,PAD14*%
G36*
X245349306Y-175278915D02*
G01*
X245352331Y-175284146D01*
X245587147Y-176156282D01*
X245585989Y-176165162D01*
X245578891Y-176170622D01*
X245578154Y-176170795D01*
X245102305Y-176266417D01*
X245097695Y-176266417D01*
X244621845Y-176170795D01*
X244614409Y-176165805D01*
X244612679Y-176157019D01*
X244612852Y-176156282D01*
X244847669Y-175284146D01*
X244853129Y-175277048D01*
X244858967Y-175275488D01*
X245341033Y-175275488D01*
X245349306Y-175278915D01*
G37*
%TD.AperFunction*%
%TD*%
%TA.AperFunction,Conductor*%
%TO.N,PAD15*%
G36*
X197349306Y-175778915D02*
G01*
X197352331Y-175784146D01*
X197587147Y-176656282D01*
X197585989Y-176665162D01*
X197578891Y-176670622D01*
X197578154Y-176670795D01*
X197102305Y-176766417D01*
X197097695Y-176766417D01*
X196621845Y-176670795D01*
X196614409Y-176665805D01*
X196612679Y-176657019D01*
X196612852Y-176656282D01*
X196847669Y-175784146D01*
X196853129Y-175777048D01*
X196858967Y-175775488D01*
X197341033Y-175775488D01*
X197349306Y-175778915D01*
G37*
%TD.AperFunction*%
%TD*%
%TA.AperFunction,Conductor*%
%TO.N,PAD15*%
G36*
X197578155Y-162860966D02*
G01*
X197585590Y-162865956D01*
X197587320Y-162874742D01*
X197587147Y-162875479D01*
X197352331Y-163747616D01*
X197346871Y-163754714D01*
X197341033Y-163756274D01*
X196858967Y-163756274D01*
X196850694Y-163752847D01*
X196847669Y-163747616D01*
X196612852Y-162875479D01*
X196614010Y-162866599D01*
X196621108Y-162861139D01*
X196621822Y-162860971D01*
X197097696Y-162765344D01*
X197102304Y-162765344D01*
X197578155Y-162860966D01*
G37*
%TD.AperFunction*%
%TD*%
%TA.AperFunction,Conductor*%
%TO.N,PAD15*%
G36*
X319465162Y-115814010D02*
G01*
X319470622Y-115821108D01*
X319470795Y-115821845D01*
X319566417Y-116297695D01*
X319566417Y-116302305D01*
X319470795Y-116778154D01*
X319465805Y-116785590D01*
X319457019Y-116787320D01*
X319456282Y-116787147D01*
X318584146Y-116552331D01*
X318577048Y-116546871D01*
X318575488Y-116541033D01*
X318575488Y-116058966D01*
X318578915Y-116050693D01*
X318584143Y-116047669D01*
X319456283Y-115812852D01*
X319465162Y-115814010D01*
G37*
%TD.AperFunction*%
%TD*%
%TA.AperFunction,Conductor*%
%TO.N,PAD15*%
G36*
X312021962Y-115498005D02*
G01*
X312022131Y-115498265D01*
X312367357Y-116047144D01*
X312369153Y-116053373D01*
X312369153Y-116533681D01*
X312365726Y-116541954D01*
X312357453Y-116545381D01*
X312353698Y-116544762D01*
X311512159Y-116259562D01*
X311505423Y-116253661D01*
X311504434Y-116246221D01*
X311598060Y-115770652D01*
X311603018Y-115763202D01*
X312005739Y-115494758D01*
X312014522Y-115493021D01*
X312021962Y-115498005D01*
G37*
%TD.AperFunction*%
%TD*%
%TA.AperFunction,Conductor*%
%TO.N,PAD15*%
G36*
X79849306Y-178278915D02*
G01*
X79852331Y-178284146D01*
X80087147Y-179156282D01*
X80085989Y-179165162D01*
X80078891Y-179170622D01*
X80078154Y-179170795D01*
X79602305Y-179266417D01*
X79597695Y-179266417D01*
X79121845Y-179170795D01*
X79114409Y-179165805D01*
X79112679Y-179157019D01*
X79112852Y-179156282D01*
X79347669Y-178284146D01*
X79353129Y-178277048D01*
X79358967Y-178275488D01*
X79841033Y-178275488D01*
X79849306Y-178278915D01*
G37*
%TD.AperFunction*%
%TD*%
%TA.AperFunction,Conductor*%
%TO.N,PAD15*%
G36*
X80078155Y-161360966D02*
G01*
X80085590Y-161365956D01*
X80087320Y-161374742D01*
X80087147Y-161375479D01*
X79852331Y-162247616D01*
X79846871Y-162254714D01*
X79841033Y-162256274D01*
X79358967Y-162256274D01*
X79350694Y-162252847D01*
X79347669Y-162247616D01*
X79112852Y-161375479D01*
X79114010Y-161366599D01*
X79121108Y-161361139D01*
X79121822Y-161360971D01*
X79597696Y-161265344D01*
X79602304Y-161265344D01*
X80078155Y-161360966D01*
G37*
%TD.AperFunction*%
%TD*%
%TA.AperFunction,Conductor*%
%TO.N,PAD16*%
G36*
X140849306Y-176278915D02*
G01*
X140852331Y-176284146D01*
X141087147Y-177156282D01*
X141085989Y-177165162D01*
X141078891Y-177170622D01*
X141078154Y-177170795D01*
X140602305Y-177266417D01*
X140597695Y-177266417D01*
X140121845Y-177170795D01*
X140114409Y-177165805D01*
X140112679Y-177157019D01*
X140112852Y-177156282D01*
X140347669Y-176284146D01*
X140353129Y-176277048D01*
X140358967Y-176275488D01*
X140841033Y-176275488D01*
X140849306Y-176278915D01*
G37*
%TD.AperFunction*%
%TD*%
%TA.AperFunction,Conductor*%
%TO.N,PAD16*%
G36*
X141078155Y-164860966D02*
G01*
X141085590Y-164865956D01*
X141087320Y-164874742D01*
X141087147Y-164875479D01*
X140852331Y-165747616D01*
X140846871Y-165754714D01*
X140841033Y-165756274D01*
X140358967Y-165756274D01*
X140350694Y-165752847D01*
X140347669Y-165747616D01*
X140112852Y-164875479D01*
X140114010Y-164866599D01*
X140121108Y-164861139D01*
X140121822Y-164860971D01*
X140597696Y-164765344D01*
X140602304Y-164765344D01*
X141078155Y-164860966D01*
G37*
%TD.AperFunction*%
%TD*%
%TA.AperFunction,Conductor*%
%TO.N,PAD16*%
G36*
X312886674Y-118857895D02*
G01*
X312887780Y-118858736D01*
X313455327Y-119346499D01*
X313459368Y-119354489D01*
X313459401Y-119355371D01*
X313459401Y-119837098D01*
X313455974Y-119845371D01*
X313447701Y-119848798D01*
X313446561Y-119848742D01*
X312515284Y-119757530D01*
X312507384Y-119753313D01*
X312504780Y-119744746D01*
X312504940Y-119743646D01*
X312598547Y-119268181D01*
X312600307Y-119263930D01*
X312870443Y-118861094D01*
X312877894Y-118856133D01*
X312886674Y-118857895D01*
G37*
%TD.AperFunction*%
%TD*%
%TA.AperFunction,Conductor*%
%TO.N,PAD16*%
G36*
X319665162Y-119114010D02*
G01*
X319670622Y-119121108D01*
X319670795Y-119121845D01*
X319766417Y-119597695D01*
X319766417Y-119602305D01*
X319670795Y-120078154D01*
X319665805Y-120085590D01*
X319657019Y-120087320D01*
X319656282Y-120087147D01*
X318784146Y-119852331D01*
X318777048Y-119846871D01*
X318775488Y-119841033D01*
X318775488Y-119358966D01*
X318778915Y-119350693D01*
X318784143Y-119347669D01*
X319656283Y-119112852D01*
X319665162Y-119114010D01*
G37*
%TD.AperFunction*%
%TD*%
%TA.AperFunction,Conductor*%
%TO.N,PAD18*%
G36*
X318965162Y-75314010D02*
G01*
X318970622Y-75321108D01*
X318970795Y-75321845D01*
X319066417Y-75797695D01*
X319066417Y-75802305D01*
X318970795Y-76278154D01*
X318965805Y-76285590D01*
X318957019Y-76287320D01*
X318956282Y-76287147D01*
X318084146Y-76052331D01*
X318077048Y-76046871D01*
X318075488Y-76041033D01*
X318075488Y-75558966D01*
X318078915Y-75550693D01*
X318084143Y-75547669D01*
X318956283Y-75312852D01*
X318965162Y-75314010D01*
G37*
%TD.AperFunction*%
%TD*%
%TA.AperFunction,Conductor*%
%TO.N,PAD18*%
G36*
X299743711Y-75312850D02*
G01*
X300615855Y-75547669D01*
X300622952Y-75553128D01*
X300624512Y-75558966D01*
X300624512Y-76041033D01*
X300621085Y-76049306D01*
X300615854Y-76052331D01*
X299743717Y-76287147D01*
X299734837Y-76285989D01*
X299729377Y-76278891D01*
X299729207Y-76278170D01*
X299633582Y-75802304D01*
X299633582Y-75797695D01*
X299682728Y-75553128D01*
X299729205Y-75321843D01*
X299734194Y-75314409D01*
X299742980Y-75312679D01*
X299743711Y-75312850D01*
G37*
%TD.AperFunction*%
%TD*%
%TA.AperFunction,Conductor*%
%TO.N,PAD17*%
G36*
X274849306Y-176778915D02*
G01*
X274852331Y-176784146D01*
X275087147Y-177656282D01*
X275085989Y-177665162D01*
X275078891Y-177670622D01*
X275078154Y-177670795D01*
X274602305Y-177766417D01*
X274597695Y-177766417D01*
X274121845Y-177670795D01*
X274114409Y-177665805D01*
X274112679Y-177657019D01*
X274112852Y-177656282D01*
X274347669Y-176784146D01*
X274353129Y-176777048D01*
X274358967Y-176775488D01*
X274841033Y-176775488D01*
X274849306Y-176778915D01*
G37*
%TD.AperFunction*%
%TD*%
%TA.AperFunction,Conductor*%
%TO.N,PAD17*%
G36*
X275078155Y-159860966D02*
G01*
X275085590Y-159865956D01*
X275087320Y-159874742D01*
X275087147Y-159875479D01*
X274852331Y-160747616D01*
X274846871Y-160754714D01*
X274841033Y-160756274D01*
X274358967Y-160756274D01*
X274350694Y-160752847D01*
X274347669Y-160747616D01*
X274112852Y-159875479D01*
X274114010Y-159866599D01*
X274121108Y-159861139D01*
X274121822Y-159860971D01*
X274597696Y-159765344D01*
X274602304Y-159765344D01*
X275078155Y-159860966D01*
G37*
%TD.AperFunction*%
%TD*%
%TA.AperFunction,Conductor*%
%TO.N,PAD20*%
G36*
X321999281Y-78414010D02*
G01*
X322004741Y-78421108D01*
X322004914Y-78421845D01*
X322100536Y-78897695D01*
X322100536Y-78902305D01*
X322004914Y-79378154D01*
X321999924Y-79385590D01*
X321991138Y-79387320D01*
X321990401Y-79387147D01*
X321118265Y-79152331D01*
X321111167Y-79146871D01*
X321109607Y-79141033D01*
X321109607Y-78658966D01*
X321113034Y-78650693D01*
X321118262Y-78647669D01*
X321990402Y-78412852D01*
X321999281Y-78414010D01*
G37*
%TD.AperFunction*%
%TD*%
%TA.AperFunction,Conductor*%
%TO.N,PAD20*%
G36*
X299209592Y-78412850D02*
G01*
X300081736Y-78647669D01*
X300088833Y-78653128D01*
X300090393Y-78658966D01*
X300090393Y-79141033D01*
X300086966Y-79149306D01*
X300081735Y-79152331D01*
X299209598Y-79387147D01*
X299200718Y-79385989D01*
X299195258Y-79378891D01*
X299195088Y-79378170D01*
X299099463Y-78902304D01*
X299099463Y-78897695D01*
X299148609Y-78653128D01*
X299195086Y-78421843D01*
X299200075Y-78414409D01*
X299208861Y-78412679D01*
X299209592Y-78412850D01*
G37*
%TD.AperFunction*%
%TD*%
%TA.AperFunction,Conductor*%
%TO.N,PAD22*%
G36*
X299509592Y-81812850D02*
G01*
X300381736Y-82047669D01*
X300388833Y-82053128D01*
X300390393Y-82058966D01*
X300390393Y-82541033D01*
X300386966Y-82549306D01*
X300381735Y-82552331D01*
X299509598Y-82787147D01*
X299500718Y-82785989D01*
X299495258Y-82778891D01*
X299495088Y-82778170D01*
X299399463Y-82302304D01*
X299399463Y-82297695D01*
X299448609Y-82053128D01*
X299495086Y-81821843D01*
X299500075Y-81814409D01*
X299508861Y-81812679D01*
X299509592Y-81812850D01*
G37*
%TD.AperFunction*%
%TD*%
%TA.AperFunction,Conductor*%
%TO.N,PAD22*%
G36*
X333299281Y-81814010D02*
G01*
X333304741Y-81821108D01*
X333304914Y-81821845D01*
X333400536Y-82297695D01*
X333400536Y-82302305D01*
X333304914Y-82778154D01*
X333299924Y-82785590D01*
X333291138Y-82787320D01*
X333290401Y-82787147D01*
X332418265Y-82552331D01*
X332411167Y-82546871D01*
X332409607Y-82541033D01*
X332409607Y-82058966D01*
X332413034Y-82050693D01*
X332418262Y-82047669D01*
X333290402Y-81812852D01*
X333299281Y-81814010D01*
G37*
%TD.AperFunction*%
%TD*%
M02*
